; NON-PLATED HOLES START AT T1
; THROUGH (PLATED) HOLES START AT T100
M48
INCH
T100C0.039111
T101C0.038189
T102C0.015748
T103C0.027559
T104C0.038000
%
T100
X035958Y033854
X019708Y035854
X035958Y031853
X035958Y026853
X025708Y023854
X025708Y026853
X035958Y022854
X025708Y030854
X035958Y025854
X029958Y025854
X019708Y024854
X025708Y033854
X019708Y022854
X025708Y035854
X025708Y027854
X019708Y031853
X029958Y030854
X019708Y029854
X029958Y022854
X025708Y032854
X025708Y024854
X035958Y027854
X035958Y032854
X035958Y030854
X025708Y022854
X025708Y031853
X029958Y035854
X019708Y028853
X025708Y025854
X035958Y024854
X019708Y030854
X019708Y025854
X035958Y035854
X029958Y031853
X029958Y028853
X035958Y028853
X029958Y029854
X035958Y029854
X025708Y028853
X025708Y029854
X029958Y024854
X035958Y023854
T101
X006958Y005354
X005958Y008354
X011958Y008297
X004958Y008354
X008958Y005354
X007958Y005354
X012958Y005297
X002958Y008354
X007958Y008354
X011958Y005297
X017958Y008297
X009958Y005354
X003958Y005354
X015958Y005297
X005958Y005354
X017958Y005297
X018958Y008297
X014958Y008297
X016958Y005297
X013958Y008297
X002958Y005354
X003958Y008354
X004958Y005354
X012958Y008297
X015958Y008297
X008958Y008354
X013958Y005297
X016958Y008297
X014958Y005297
X018958Y005297
X006958Y008354
X009958Y008354
T102
X018458Y035604
X024458Y012854
X005708Y030354
X011459Y000862
X006958Y026604
X010958Y024604
X029958Y018854
X026958Y001854
X012958Y021854
X024708Y001854
X005708Y028354
X011458Y024104
X008458Y003854
X015958Y026854
X010958Y019854
X005708Y033354
X008958Y026104
X024947Y004604
X037208Y018854
X005708Y034354
X008458Y027104
X005958Y025604
X008958Y025104
X014458Y003104
X009958Y024604
X018958Y034604
X021958Y018854
X001468Y014347
X040208Y004104
X036458Y012854
X031458Y011104
X023485Y037331
X033208Y018854
X005458Y025104
X011958Y024604
X008958Y023604
X034958Y007354
X031458Y018854
X001458Y018854
X021708Y012854
X025708Y018854
X027208Y012854
X022219Y011098
X013705Y025361
X000958Y013354
X040958Y005604
X001458Y016854
X010958Y030104
X038972Y029108
X015208Y019604
X022208Y001354
X009958Y019854
X023708Y018854
X008458Y030854
X041708Y035098
X005708Y032354
X010958Y006354
X011958Y031104
X009458Y024104
X004958Y023104
X034958Y018854
X005708Y031354
X012958Y003104
X010458Y024104
X018958Y032354
X024208Y003854
X012458Y024104
X000458Y015104
X009458Y025604
X006458Y026104
X041210Y033871
X005708Y029354
X033708Y012854
X026708Y011104
X011958Y019854
X023213Y007362
X019958Y018854
X033950Y004604
X027958Y019604
X035958Y011104
X033208Y003854
X031208Y012854
X042208Y005604
T103
X007458Y015104
X038958Y013354
X007458Y029354
X008458Y012104
X015458Y012104
X007458Y032354
X013458Y032354
X014458Y029354
X013458Y012104
X038958Y021354
X015458Y015104
X009458Y029354
X011458Y012104
X039958Y020354
X014458Y012104
X038958Y012354
X011458Y032354
X038958Y019354
X039958Y013354
X038958Y018354
X014458Y032354
X012458Y032354
X011458Y029354
X039958Y026354
X038958Y011354
X039958Y018354
X016458Y015104
X009458Y012104
X038958Y025354
X038958Y008354
X039958Y019354
X012458Y015104
X014458Y015104
X015458Y032354
X038958Y022354
X038958Y015354
X039958Y007354
X039958Y010354
X012458Y029354
X039958Y024354
X016458Y032354
X007458Y012104
X038958Y007354
X038958Y023354
X039958Y008354
X011458Y015104
X013458Y015104
X012458Y012104
X038958Y009354
X009458Y015104
X039958Y016354
X008458Y029354
X038958Y016354
X039958Y023354
X039958Y022354
X039958Y015354
X008458Y015104
X039958Y014354
X010458Y012104
X039958Y009354
X039958Y011354
X039958Y017354
X039958Y012354
X016458Y029354
X016458Y012104
X010458Y029354
X008458Y032354
X009458Y032354
X038958Y010354
X038958Y014354
X038958Y017354
X010458Y032354
X015458Y029354
X039958Y025354
X010458Y015104
X039958Y021354
X038958Y026354
X013458Y029354
X038958Y020354
X038958Y024354
T104
X003958Y031354
X037208Y026648
X002958Y021354
X003958Y020354
X029708Y008604
X002958Y032354
X029708Y009604
X003958Y028354
X003958Y021354
X028708Y008604
X003958Y017354
X003958Y034354
X002958Y036354
X002958Y035354
X028708Y009604
X003958Y023354
X003958Y029354
X002958Y022354
X002958Y034354
X003958Y027354
X002958Y024354
X037208Y025648
X002958Y026354
X002958Y033354
X028708Y005604
X002958Y028354
X028708Y006604
X003958Y025354
X002958Y030354
X037208Y023648
X002958Y023354
X026958Y025648
X003958Y019354
X003958Y035354
X003958Y032354
X002958Y025354
X037208Y024648
X002958Y018354
X003958Y022354
X003958Y036354
X003958Y030354
X029708Y006604
X002958Y019354
X029708Y007604
X003958Y024354
X028708Y007604
X002958Y031354
X026958Y024648
X003958Y033354
X026958Y023648
X002958Y027354
X026958Y026648
X029708Y005604
X002958Y017354
X003958Y018354
X003958Y026354
X002958Y029354
X002958Y020354
T00
M30
