G04 MADE WITH FRITZING*
G04 WWW.FRITZING.ORG*
G04 DOUBLE SIDED*
G04 HOLES PLATED*
G04 CONTOUR ON CENTER OF CONTOUR VECTOR*
%ASAXBY*%
%FSLAX23Y23*%
%MOIN*%
%OFA0B0*%
%SFA1.0B1.0*%
%ADD10R,0.059055X0.055118*%
%LNPASTEMASK0*%
G90*
G70*
G54D10*
X3396Y3485D03*
X3396Y3566D03*
X3221Y3485D03*
X3221Y3566D03*
X2396Y3485D03*
X2396Y3566D03*
X2221Y3485D03*
X2221Y3566D03*
X1796Y710D03*
X1796Y630D03*
X1296Y710D03*
X1296Y630D03*
X1196Y710D03*
X1196Y630D03*
X1896Y710D03*
X1896Y630D03*
X1696Y710D03*
X1696Y630D03*
X496Y716D03*
X496Y635D03*
X396Y716D03*
X396Y635D03*
X296Y716D03*
X296Y635D03*
X596Y716D03*
X596Y635D03*
X696Y716D03*
X696Y635D03*
X896Y716D03*
X896Y635D03*
X1596Y710D03*
X1596Y630D03*
X1496Y710D03*
X1496Y630D03*
X1396Y710D03*
X1396Y630D03*
X996Y716D03*
X996Y635D03*
X796Y716D03*
X796Y635D03*
G36*
X1650Y3008D02*
X1591Y3008D01*
X1591Y3063D01*
X1650Y3063D01*
X1650Y3008D01*
G37*
D02*
G36*
X1650Y3089D02*
X1591Y3089D01*
X1591Y3144D01*
X1650Y3144D01*
X1650Y3089D01*
G37*
D02*
G36*
X1650Y1283D02*
X1591Y1283D01*
X1591Y1338D01*
X1650Y1338D01*
X1650Y1283D01*
G37*
D02*
G36*
X1650Y1364D02*
X1591Y1364D01*
X1591Y1419D01*
X1650Y1419D01*
X1650Y1364D01*
G37*
D02*
G04 End of PasteMask0*
M02*