<?xml version="1.0" encoding="UTF-8" standalone="no"?>
<!-- Created with Inkscape (http://www.inkscape.org/) -->

<svg
   xmlns:dc="http://purl.org/dc/elements/1.1/"
   xmlns:cc="http://creativecommons.org/ns#"
   xmlns:rdf="http://www.w3.org/1999/02/22-rdf-syntax-ns#"
   xmlns:svg="http://www.w3.org/2000/svg"
   xmlns="http://www.w3.org/2000/svg"
   xmlns:sodipodi="http://sodipodi.sourceforge.net/DTD/sodipodi-0.dtd"
   xmlns:inkscape="http://www.inkscape.org/namespaces/inkscape"
   version="1.1"
   width="72.038025mm"
   height="15.072983mm"
   id="svg2"
   xml:space="preserve"
   inkscape:version="0.92.2 5c3e80d, 2017-08-06"
   sodipodi:docname="AnalogSignalGenerator_logo.svg"><sodipodi:namedview
     pagecolor="#ffffff"
     bordercolor="#666666"
     borderopacity="1"
     objecttolerance="10"
     gridtolerance="10"
     guidetolerance="10"
     inkscape:pageopacity="0"
     inkscape:pageshadow="2"
     inkscape:window-width="1280"
     inkscape:window-height="1016"
     id="namedview6"
     showgrid="false"
     fit-margin-top="0"
     fit-margin-left="3"
     fit-margin-right="0"
     fit-margin-bottom="0"
     inkscape:zoom="1.6454611"
     inkscape:cx="167.23486"
     inkscape:cy="43.010567"
     inkscape:window-x="1280"
     inkscape:window-y="27"
     inkscape:window-maximized="0"
     inkscape:current-layer="svg2"
     units="mm" /><metadata
     id="metadata8"><rdf:RDF><cc:Work
         rdf:about=""><dc:format>image/svg+xml</dc:format><dc:type
           rdf:resource="http://purl.org/dc/dcmitype/StillImage" /><dc:title></dc:title></cc:Work></rdf:RDF></metadata><defs
     id="defs6" /><path
     d="m 194.14471,0 v 56.968755 h 78.125 V 0 Z m 53.84375,7.03125 c 0.26375,-0.03 0.55625,0.085 0.78125,0.25 0.99625,1.45125 0.1525,3.455 0.25,5.125 0.3625,2.05625 -0.28125,4.0525 -0.53125,6.09375 -0.815,4.81 1.12875,9.47 0.9375,14.25 0.22,1.1675 -0.51,2.75625 -1.90625,2.46875 -5.04375,-3.18375 -8.59,-8.30375 -13.375,-11.84375 -2.67625,-1.3575 -4.6825,-3.6875 -7.125,-5.40625 -0.825,-0.91375 -1.9625,-0.005 -2.1875,0.9375 -2.43625,4.21875 -2.31375,9.54875 -4.90625,13.71875 -0.5275,1.17125 -2.2125,1.03 -2.59375,-0.15625 -0.4975,-3.28625 -0.9275,-6.665 -1.3125,-10 -0.7325,-3.8575 -1.2225,-7.77375 -1.34375,-11.71875 -0.42,-1.28 1.27875,-2.0225 2.09375,-1.125 1.32375,5.1275 1.32875,10.52125 2.59375,15.6875 0.78625,-1.9475 1.11875,-4.01875 1.96875,-5.9375 0.75625,-1.89375 1.84,-4.85875 4.375,-4.53125 3.93,0.99625 6.585,4.51375 9.71875,6.84375 3.52625,3.125 7.18125,6.165 10.90625,9.09375 -0.21,-2.13875 -0.52,-4.22375 -0.75,-6.34375 -0.835,-4.43375 0.64625,-8.785 0.5,-13.21875 -0.3525,-1.51375 -0.0662,-4.03125 1.90625,-4.1875 z m 8.5,7.34375 c 0.15625,0 0.35,0.0337 0.53125,0.0625 2.8075,0.38625 3.99375,2.21125 2.1875,3.34375 -1.07375,0.66875 -2.9825,0.74875 -3.96875,0.1875 -0.79625,-0.43875 -0.905,-0.6325 -0.71875,-1.53125 0.3075,-1.44125 0.875,-2.0675 1.96875,-2.0625 z m 0.125,0.5625 c -0.10186,-0.006 -0.19844,0.0128 -0.28125,0.0312 -0.3325,0.0725 -0.55875,0.36 -0.875,0.84375 -0.5375,0.815 -0.525,0.87125 0.0312,1.28125 0.7025,0.5175 1.89625,0.5525 2.75,0.0937 0.97625,-0.5225 0.79125,-1.50125 -0.375,-1.90625 -0.54938,-0.19406 -0.94444,-0.32687 -1.25,-0.34375 z m -44.21875,1.65625 c 0.29631,-0.0752 0.465,0.23125 0.28125,0.71875 -0.1075,0.26875 -0.82625,0.56625 -1.65625,0.6875 -0.81,0.1225 -1.46875,0.34125 -1.46875,0.46875 0,0.12125 0.50375,0.4575 1.125,0.75 1.5275,0.7275 1.43,1.3675 -0.25,1.71875 l -1.375,0.28125 1.625,0.8125 c 2.05,1.02125 2.28375,1.81375 0.59375,2.0625 -3.495,0.5275 -3.65625,0.5125 -3.65625,0.0625 0,-0.54125 0.685,-0.84375 1.96875,-0.84375 1.29,0 1.03875,-0.285 -1.28125,-1.4375 -2.715,-1.3375 -2.54125,-2.34 0.34375,-1.875 1.5975,0.25375 1.45375,-0.205 -0.40625,-1.25 -1.9925,-1.1175 -1.665,-1.5625 1.09375,-1.5625 1.38125,0 2.49375,-0.15 2.71875,-0.375 0.11719,-0.11718 0.24498,-0.19369 0.34375,-0.21875 z m 45.125,5.15625 c 0.26889,-0.0709 0.41062,0.27344 0.46875,1.09375 0.0825,1.16625 -0.65875,1.41 -0.9375,0.3125 -0.1225,-0.48875 -0.0487,-1.01875 0.15625,-1.21875 0.11719,-0.11718 0.22287,-0.16386 0.3125,-0.1875 z m -1.375,0.4375 c 0.44875,0 0.6025,1.7775 0.1875,2.1875 -0.22875,0.24 -0.39375,0.2 -0.53125,-0.15625 -0.2675,-0.71375 -0.0525,-2.03125 0.34375,-2.03125 z m -4.0625,2.90625 c 0.2932,-0.0469 0.34375,0.12344 0.34375,0.625 0,0.87875 -0.2325,1.0975 -1.0625,0.90625 -0.78125,-0.17125 -0.56,-1.07375 0.34375,-1.40625 0.1575,-0.0584 0.27726,-0.10937 0.375,-0.125 z m 5.78125,0.59375 c 0.84121,-0.0519 1.25844,0.34891 0.46875,0.65625 -1.065,0.405 -4.28125,0.62375 -4.28125,0.28125 0,-0.18 0.52375,-0.4125 1.1875,-0.5 0.66375,-0.0937 1.6575,-0.2625 2.21875,-0.375 0.13484,-0.0275 0.28608,-0.0551 0.40625,-0.0625 z m -26.78125,15.53125 c 0.32125,0 0.6675,0.0525 1,0.125 v 0.75 c -0.3175,-0.0975 -0.61,-0.15625 -0.84375,-0.15625 -0.69875,0 -1.09,0.29125 -1.1875,0.90625 -0.015,0.1125 -0.0312,0.27 -0.0312,0.40625 v 0.59375 h 1.65625 v 0.71875 h -1.65625 v 5.0625 h -0.8125 v -5.0625 h -0.96875 v -0.71875 h 0.96875 V 43.0625 c 0,-0.9325 0.375,-1.49875 1.15625,-1.71875 0.21375,-0.0725 0.45,-0.125 0.71875,-0.125 z m -20.375,0.0625 h 0.84375 l 1.28125,7.15625 1.96875,-7.15625 h 1 l 1.9375,7.15625 h 0.0312 l 1.28125,-7.15625 h 0.84375 l -1.46875,8.34375 h -1.15625 l -1.9375,-7.09375 h -0.0312 l -1.96875,7.09375 h -1.15625 z m 15.4375,0 h 0.8125 V 49.625 h -0.8125 z m 17.40625,0 h 0.84375 V 49.625 h -0.84375 z m 7.9375,0 h 0.8125 v 3.53125 h 0.0312 c 0.13625,-0.44 0.42875,-0.7475 0.84375,-0.9375 0.215,-0.0975 0.455,-0.15625 0.71875,-0.15625 0.99625,0 1.6275,0.60375 1.90625,1.78125 0.0975,0.39 0.15625,0.82 0.15625,1.3125 0,1.3625 -0.39625,2.27875 -1.1875,2.71875 -0.3175,0.16 -0.70125,0.21875 -1.125,0.21875 -1.43625,0 -2.15625,-0.80375 -2.15625,-2.46875 v -6 z m -28.71875,2.4375 c 0.91875,0 1.55125,0.40625 1.84375,1.1875 0.1225,0.3025 0.1875,0.65 0.1875,1.03125 v 0.28125 h -3.3125 v 0.34375 c 0,0.74125 0.1825,1.35 0.5625,1.84375 0.36625,0.45375 0.84875,0.6875 1.46875,0.6875 0.3125,0 0.68125,-0.075 1.125,-0.1875 v 0.6875 c -0.36625,0.1175 -0.795,0.15625 -1.3125,0.15625 -1.3875,0 -2.26375,-0.6025 -2.625,-1.84375 -0.1125,-0.385 -0.1875,-0.82625 -0.1875,-1.34375 0,-1.45125 0.46875,-2.37625 1.40625,-2.71875 0.25,-0.0825 0.52625,-0.125 0.84375,-0.125 z m 11.625,0 c 0.9175,0 1.4875,0.40625 1.78125,1.1875 0.12625,0.3025 0.21875,0.65 0.21875,1.03125 v 0.28125 h -3.3125 v 0.34375 c 0,0.74125 0.18125,1.35 0.5625,1.84375 0.36125,0.45375 0.84875,0.6875 1.46875,0.6875 0.3125,0 0.68,-0.075 1.125,-0.1875 v 0.6875 c -0.36625,0.1175 -0.795,0.15625 -1.3125,0.15625 -1.39125,0 -2.26375,-0.6025 -2.625,-1.84375 -0.11625,-0.385 -0.1875,-0.82625 -0.1875,-1.34375 0,-1.45125 0.47375,-2.37625 1.40625,-2.71875 0.25375,-0.0825 0.5575,-0.125 0.875,-0.125 z m 5.90625,0 c 0.63,0 1.09,0.30125 1.34375,0.90625 0.1025,0.26875 0.125,0.5625 0.125,0.875 v 4.125 h -0.8125 v -3.1875 c 0,-0.7625 -0.0662,-1.2875 -0.1875,-1.53125 -0.1425,-0.235 -0.3575,-0.34375 -0.65625,-0.34375 -0.56125,0 -0.98625,0.38875 -1.3125,1.15625 -0.2,0.5075 -0.3125,1.03 -0.3125,1.5625 V 49.625 h -0.84375 v -5.78125 h 0.84375 v 1.375 h 0.0312 c 0.24875,-0.75625 0.65125,-1.225 1.21875,-1.40625 0.175,-0.0487 0.3625,-0.0937 0.5625,-0.0937 z m 7.6875,0 c 1.21125,0 1.86375,0.53375 1.9375,1.59375 0.01,0.0875 0.0312,0.19875 0.0312,0.28125 V 49.625 h -0.8125 v -0.75 h -0.0312 c -0.1525,0.2925 -0.42625,0.5175 -0.8125,0.6875 -0.2925,0.1275 -0.595,0.1875 -0.9375,0.1875 -0.7175,0 -1.1825,-0.26375 -1.40625,-0.84375 -0.0937,-0.215 -0.15625,-0.4725 -0.15625,-0.75 0,-0.70875 0.44625,-1.23 1.34375,-1.5625 0.455,-0.16 0.92375,-0.25 1.40625,-0.25 0.25,0 0.435,-0.002 0.5625,-0.0312 0,-0.605 -0.0112,-0.9625 -0.0312,-1.09375 -0.1175,-0.5275 -0.455,-0.78125 -1.03125,-0.78125 -0.65875,0 -1.04375,0.22625 -1.15625,0.71875 -0.0137,0.0538 -0.0312,0.12375 -0.0312,0.1875 h -0.90625 c 0.009,-0.60625 0.25375,-1.05125 0.78125,-1.34375 0.34125,-0.17625 0.75625,-0.28125 1.25,-0.28125 z m -25.25,0.71875 c -0.59625,0 -0.965,0.28375 -1.15625,0.875 -0.0288,0.0637 -0.0625,0.125 -0.0625,0.1875 h 2.3125 c 0,-0.35125 -0.11125,-0.62375 -0.375,-0.84375 -0.19,-0.15125 -0.44,-0.21875 -0.71875,-0.21875 z m 11.59375,0 c -0.595,0 -0.96625,0.28375 -1.15625,0.875 -0.03,0.0637 -0.0312,0.125 -0.0312,0.1875 h 2.28125 c 0,-0.35125 -0.11125,-0.62375 -0.375,-0.84375 -0.18625,-0.15125 -0.445,-0.21875 -0.71875,-0.21875 z m 19.40625,0 c -0.58125,0 -1.00125,0.3975 -1.25,1.21875 -0.1275,0.405 -0.1875,0.83375 -0.1875,1.3125 0,1.3875 0.42875,2.115 1.3125,2.125 0.65375,0 1.09,-0.43875 1.28125,-1.3125 0.0725,-0.3025 0.125,-0.64875 0.125,-1 0,-1.03 -0.22625,-1.71375 -0.65625,-2.09375 -0.17625,-0.16125 -0.38625,-0.25 -0.625,-0.25 z m -5.53125,2.59375 c -0.41215,0.0527 -0.74531,0.19813 -1.03125,0.40625 -0.27875,0.215 -0.4375,0.46875 -0.4375,0.78125 0,0.41 0.19,0.69 0.53125,0.8125 0.0825,0.0388 0.19625,0.0625 0.3125,0.0625 0.44,0 0.79125,-0.19125 1.09375,-0.5625 0.0875,-0.11125 0.15125,-0.21625 0.21875,-0.34375 0.1225,-0.2875 0.20375,-0.5975 0.21875,-0.875 v -0.28125 h -0.46875 c -0.15156,0 -0.30012,-0.0176 -0.4375,0 z"
     id="path14-3"
     style="fill:#000000;fill-opacity:1;fill-rule:evenodd;stroke:none"
     inkscape:connector-curvature="0" /><text
     xml:space="preserve"
     style="font-style:normal;font-variant:normal;font-weight:500;font-stretch:normal;line-height:0%;font-family:Inconsolata;-inkscape-font-specification:'Inconsolata Medium';text-align:end;letter-spacing:0px;word-spacing:0px;writing-mode:lr-tb;text-anchor:end;fill:#000000;fill-opacity:1;stroke:none"
     x="184.31415"
     y="23.592957"
     id="text2983-6"><tspan
       sodipodi:role="line"
       id="tspan2985-7"
       x="184.31415"
       y="23.592957"
       style="font-style:normal;font-variant:normal;font-weight:bold;font-stretch:normal;font-size:14.84500027px;line-height:125%;font-family:Ubuntu;-inkscape-font-specification:'Ubuntu, Bold';text-align:end;writing-mode:lr-tb;text-anchor:end">Analog Signal Generator</tspan><tspan
       sodipodi:role="line"
       x="184.31415"
       y="42.149208"
       style="font-style:normal;font-variant:normal;font-weight:normal;font-stretch:normal;font-size:14.84500027px;line-height:125%;font-family:Ubuntu;-inkscape-font-specification:'Ubuntu, Normal';text-align:end;writing-mode:lr-tb;text-anchor:end"
       id="tspan2991-5">Dec 2015 <tspan
   style="font-style:normal;font-variant:normal;font-weight:bold;font-stretch:normal;font-size:14.84500027px;line-height:125%;font-family:Ubuntu;-inkscape-font-specification:'Ubuntu, Bold';text-align:end;writing-mode:lr-tb;text-anchor:end"
   id="tspan3339">•</tspan><tspan
   style="font-style:normal;font-variant:normal;font-weight:600;font-stretch:normal;font-size:14.84500027px;line-height:125%;font-family:Ubuntu;-inkscape-font-specification:'Ubuntu, Semi-Bold';text-align:end;writing-mode:lr-tb;text-anchor:end"
   id="tspan3337"> R2</tspan></tspan></text>
</svg>