; NON-PLATED HOLES START AT T1
; THROUGH (PLATED) HOLES START AT T100
M48
INCH
T100C0.042126
T101C0.030315
T102C0.039111
T103C0.038189
T104C0.015748
T105C0.038000
T106C0.046063
%
T100
X025833Y004604
X028958Y001604
X025833Y001604
X028958Y003604
X028958Y002604
X028958Y004604
X025833Y003604
X025833Y002604
T101
X012333Y003854
X033333Y029354
X033333Y030732
X012333Y001854
X012333Y002854
T102
X019950Y011849
X009950Y005849
X018950Y011849
X011950Y005849
X016950Y011849
X012950Y011849
X021950Y005849
X018950Y005849
X022950Y011849
X015950Y011849
X014950Y005849
X016950Y005849
X017950Y005849
X015950Y005849
X010950Y005849
X020950Y011849
X009950Y011849
X022950Y005849
X013950Y005849
X014950Y011849
X013950Y011849
X021950Y011849
X020950Y005849
X010950Y011849
X012950Y005849
X017950Y011849
X011950Y011849
X019950Y005849
T103
X002708Y004297
X004708Y001297
X002708Y001297
X007708Y004297
X009708Y001297
X008708Y001297
X004708Y004297
X005708Y001297
X005708Y004297
X008708Y004297
X009708Y004297
X006708Y001297
X007708Y001297
X003708Y004297
X003708Y001297
X006708Y004297
T104
X019834Y036991
X013833Y037479
X007458Y036729
X011083Y026479
X042718Y006492
X017199Y016736
X012208Y035979
X006700Y013346
X023450Y008849
X033458Y008479
X015958Y035229
X030450Y011599
X027204Y015839
X034333Y009729
X031833Y030604
X035083Y009979
X004833Y014104
X035958Y027354
X002833Y011104
X003825Y006610
X036583Y010104
X028186Y007352
X020208Y016729
X001208Y027104
X000458Y026104
X005208Y015104
X030458Y016854
X006708Y014104
X019702Y035213
X014450Y015365
X023450Y007349
X024958Y025854
X008833Y033229
X015072Y015120
X022583Y026354
X000583Y002354
X036708Y023479
X000833Y025104
X007208Y015104
X030958Y017229
X036958Y022229
X011583Y036479
X035333Y034354
X032583Y007354
X032708Y009729
X034958Y024229
X037458Y008479
X031700Y011599
X012199Y016736
X008083Y031104
X035333Y037104
X035333Y032604
X033083Y005729
X001583Y010104
X024204Y020089
X015958Y031979
X029950Y007849
X011699Y019861
X007833Y025854
X008208Y013854
X010958Y001229
X007208Y009104
X023450Y009599
X019583Y037854
X029950Y008849
X036708Y027354
X035333Y035354
X010208Y033479
X037458Y027354
X023458Y010354
X032214Y017349
X009333Y029604
X028700Y011099
X021208Y031479
X012699Y020111
X006960Y010111
X001958Y012979
X022083Y003979
X028704Y016714
X000458Y023979
X035333Y031854
X009708Y032979
X014458Y023604
X014583Y032479
X008458Y023479
X022966Y001355
X029950Y011099
X025955Y015343
X027950Y010349
X015458Y037479
X029200Y011599
X034958Y016354
X035333Y025229
X035333Y036104
X018976Y026366
X035083Y021229
X004086Y012997
X034958Y004854
X009708Y022729
X000833Y009974
X005708Y014104
X011333Y038479
X001958Y023979
X001583Y025104
X026577Y015098
X034833Y021729
X032200Y004849
X025833Y012104
X007341Y010611
X008574Y025861
X002083Y010604
X031583Y005854
X010699Y015861
X015699Y015861
X031200Y011099
X037958Y025729
X011833Y030979
X012324Y025861
X014458Y014354
X025958Y024604
X023704Y016714
X035333Y033604
X003833Y011604
X008694Y016618
X011833Y037979
X035333Y037854
X007704Y012342
X035833Y010104
X031833Y028354
X024208Y023354
X032833Y026854
X023204Y019839
X015083Y003979
X022205Y015839
X006208Y015104
X022083Y006604
X036208Y024854
X027333Y014604
X023450Y008099
X009958Y030104
X011833Y031729
X037972Y014219
X032833Y015604
X001958Y026104
X006333Y006854
X024445Y033105
X020080Y025839
T105
X002958Y022354
X003958Y028354
X039958Y023354
X038958Y016354
X003958Y023354
X038958Y008354
X038958Y026354
X039958Y022354
X038958Y018354
X003958Y031354
X003958Y024354
X002958Y035354
X003958Y018354
X038958Y009354
X038958Y014354
X002958Y030354
X038958Y015354
X003958Y032354
X003958Y034354
X002958Y027354
X039958Y008354
X038958Y022354
X039958Y014354
X038958Y011354
X002958Y026354
X039958Y010354
X002958Y023354
X039958Y013354
X002958Y018354
X039958Y015354
X003958Y025354
X002958Y021354
X003958Y019354
X038958Y017354
X002958Y036354
X039958Y020354
X003958Y027354
X003958Y033354
X038708Y029104
X039958Y016354
X002958Y033354
X038958Y012354
X002958Y019354
X003958Y036354
X003958Y020354
X039958Y024354
X040708Y029104
X041958Y030104
X002958Y031354
X002958Y032354
X003958Y030354
X039958Y026354
X039708Y030104
X041958Y029104
X002958Y024354
X038708Y030104
X038958Y019354
X002958Y028354
X038958Y020354
X003958Y021354
X002958Y017354
X039958Y021354
X038958Y021354
X003958Y035354
X038958Y007354
X038958Y025354
X038958Y010354
X003958Y029354
X038958Y013354
X038958Y024354
X039958Y025354
X039708Y029104
X003958Y017354
X039958Y018354
X002958Y034354
X002958Y020354
X039958Y019354
X040708Y030104
X039958Y012354
X038958Y023354
X003958Y026354
X002958Y025354
X039958Y009354
X002958Y029354
X039958Y011354
X003958Y022354
X039958Y017354
X039958Y007354
T106
X037208Y033950
X037208Y035604
X039373Y032297
X039373Y033950
X037208Y037257
X039373Y037257
X039373Y035604
X037208Y032297
T00
M30
