G04 MADE WITH FRITZING*
G04 WWW.FRITZING.ORG*
G04 DOUBLE SIDED*
G04 HOLES PLATED*
G04 CONTOUR ON CENTER OF CONTOUR VECTOR*
%ASAXBY*%
%FSLAX23Y23*%
%MOIN*%
%OFA0B0*%
%SFA1.0B1.0*%
%ADD10R,0.026000X0.080000*%
%ADD11R,0.021654X0.047244*%
%ADD12R,0.055118X0.059055*%
%ADD13R,0.075197X0.024016*%
%ADD14R,0.080000X0.026000*%
%ADD15R,0.059055X0.055118*%
%ADD16R,0.078736X0.049208*%
%ADD17R,0.078736X0.049222*%
%ADD18R,0.062992X0.074803*%
%ADD19R,0.088000X0.048000*%
%ADD20R,0.086614X0.141732*%
%ADD21R,0.048000X0.088000*%
%ADD22R,0.141732X0.086614*%
%ADD23R,0.074803X0.062992*%
%ADD24R,0.049208X0.078736*%
%ADD25R,0.049222X0.078736*%
%ADD26R,0.070866X0.125984*%
%LNPASTEMASK1*%
G90*
G70*
G54D10*
X3621Y2598D03*
X3571Y2598D03*
X3521Y2598D03*
X3471Y2598D03*
X3421Y2598D03*
X3371Y2598D03*
X3321Y2598D03*
X3321Y2337D03*
X3371Y2337D03*
X3421Y2337D03*
X3471Y2337D03*
X3521Y2337D03*
X3571Y2337D03*
X3621Y2337D03*
G54D11*
X246Y1196D03*
X283Y1196D03*
X321Y1196D03*
X321Y1298D03*
X246Y1298D03*
G54D12*
X533Y1198D03*
X453Y1198D03*
X2570Y585D03*
X2489Y585D03*
G54D13*
X446Y1110D03*
X812Y1110D03*
X446Y1060D03*
X812Y1060D03*
X446Y1010D03*
X812Y1010D03*
X446Y960D03*
X812Y960D03*
X446Y910D03*
X812Y910D03*
X446Y860D03*
X812Y860D03*
X446Y810D03*
X812Y810D03*
X446Y760D03*
X812Y760D03*
X446Y710D03*
X812Y710D03*
X446Y660D03*
X812Y660D03*
G54D10*
X2621Y1884D03*
X2671Y1884D03*
X2721Y1884D03*
X2771Y1884D03*
X2821Y1884D03*
X2871Y1884D03*
X2921Y1884D03*
X2921Y2145D03*
X2871Y2145D03*
X2821Y2145D03*
X2771Y2145D03*
X2721Y2145D03*
X2671Y2145D03*
X2621Y2145D03*
X3396Y848D03*
X3446Y848D03*
X3496Y848D03*
X3546Y848D03*
X3596Y848D03*
X3646Y848D03*
X3696Y848D03*
X3696Y1109D03*
X3646Y1109D03*
X3596Y1109D03*
X3546Y1109D03*
X3496Y1109D03*
X3446Y1109D03*
X3396Y1109D03*
X2121Y1884D03*
X2171Y1884D03*
X2221Y1884D03*
X2271Y1884D03*
X2321Y1884D03*
X2371Y1884D03*
X2421Y1884D03*
X2421Y2145D03*
X2371Y2145D03*
X2321Y2145D03*
X2271Y2145D03*
X2221Y2145D03*
X2171Y2145D03*
X2121Y2145D03*
G54D14*
X2920Y985D03*
X2920Y935D03*
X2920Y885D03*
X2920Y835D03*
X2920Y785D03*
X2920Y735D03*
X2920Y685D03*
X3181Y685D03*
X3181Y735D03*
X3181Y785D03*
X3181Y835D03*
X3181Y885D03*
X3181Y935D03*
X3181Y985D03*
X2470Y1035D03*
X2470Y985D03*
X2470Y935D03*
X2470Y885D03*
X2470Y835D03*
X2470Y785D03*
X2470Y735D03*
X2470Y685D03*
X2712Y685D03*
X2712Y735D03*
X2712Y785D03*
X2712Y835D03*
X2712Y885D03*
X2712Y935D03*
X2712Y985D03*
X2712Y1035D03*
G54D12*
X2745Y2284D03*
X2826Y2284D03*
G54D15*
X3408Y1198D03*
X3408Y1279D03*
X1921Y2360D03*
X1921Y2280D03*
X3408Y2135D03*
X3408Y2216D03*
X2845Y2472D03*
X2845Y2391D03*
G54D12*
X3571Y1248D03*
X3490Y1248D03*
G54D15*
X2008Y2509D03*
X2008Y2428D03*
G54D12*
X3321Y2135D03*
X3240Y2135D03*
G54D15*
X1896Y2773D03*
X1896Y2692D03*
X3771Y2148D03*
X3771Y2229D03*
X2845Y2759D03*
X2845Y2678D03*
G54D12*
X3746Y1248D03*
X3665Y1248D03*
G54D16*
X2520Y2071D03*
G54D17*
X2520Y1944D03*
G54D16*
X3271Y1185D03*
G54D17*
X3271Y1057D03*
G54D15*
X2008Y2772D03*
X2008Y2691D03*
G54D12*
X3671Y2148D03*
X3590Y2148D03*
G54D16*
X2020Y2146D03*
G54D17*
X2020Y2019D03*
G54D16*
X3746Y2345D03*
G54D17*
X3746Y2473D03*
G54D12*
X2795Y1671D03*
X2715Y1671D03*
X3583Y610D03*
X3503Y610D03*
X2295Y1671D03*
X2215Y1671D03*
X3508Y2823D03*
X3589Y2823D03*
G54D15*
X2457Y1672D03*
X2457Y1753D03*
X3271Y810D03*
X3271Y891D03*
X2021Y1773D03*
X2021Y1854D03*
G54D18*
X2733Y1759D03*
X2855Y1759D03*
X3508Y723D03*
X3630Y723D03*
X2233Y1759D03*
X2355Y1759D03*
X3496Y2723D03*
X3374Y2723D03*
G54D12*
X2608Y2248D03*
X2528Y2248D03*
X3321Y1273D03*
X3240Y1273D03*
G54D15*
X2021Y2235D03*
X2021Y2316D03*
G54D12*
X3577Y2248D03*
X3496Y2248D03*
G54D19*
X2745Y2634D03*
X2745Y2725D03*
X2745Y2816D03*
G54D20*
X2501Y2725D03*
G54D21*
X3539Y1423D03*
X3630Y1423D03*
X3721Y1423D03*
G54D22*
X3630Y1667D03*
G54D19*
X2745Y2359D03*
X2745Y2450D03*
X2745Y2541D03*
G54D20*
X2501Y2450D03*
G54D21*
X3246Y1423D03*
X3337Y1423D03*
X3428Y1423D03*
G54D22*
X3337Y1667D03*
G54D19*
X2108Y2816D03*
X2108Y2725D03*
X2108Y2634D03*
G54D20*
X2352Y2725D03*
G54D21*
X3721Y2035D03*
X3630Y2035D03*
X3539Y2035D03*
G54D22*
X3630Y1791D03*
G54D19*
X2108Y2541D03*
X2108Y2450D03*
X2108Y2359D03*
G54D20*
X2352Y2450D03*
G54D21*
X3428Y2035D03*
X3337Y2035D03*
X3246Y2035D03*
G54D22*
X3337Y1791D03*
G54D15*
X3133Y1398D03*
X3133Y1317D03*
G54D12*
X3371Y485D03*
X3290Y485D03*
G54D15*
X3046Y1398D03*
X3046Y1317D03*
X3371Y723D03*
X3371Y642D03*
G54D23*
X2121Y76D03*
X2121Y198D03*
X1946Y76D03*
X1946Y198D03*
X1771Y76D03*
X1771Y198D03*
X1596Y76D03*
X1596Y198D03*
X1421Y79D03*
X1421Y201D03*
G54D15*
X2121Y313D03*
X2121Y394D03*
X1946Y313D03*
X1946Y394D03*
X1771Y313D03*
X1771Y394D03*
X1596Y313D03*
X1596Y394D03*
X1421Y313D03*
X1421Y394D03*
G54D12*
X2996Y585D03*
X3077Y585D03*
X2695Y1135D03*
X2614Y1135D03*
X2533Y1410D03*
X2614Y1410D03*
G54D15*
X2896Y1398D03*
X2896Y1317D03*
G54D12*
X2533Y1323D03*
X2614Y1323D03*
G54D15*
X2808Y1398D03*
X2808Y1317D03*
G54D10*
X1470Y1886D03*
X1520Y1886D03*
X1570Y1886D03*
X1620Y1886D03*
X1670Y1886D03*
X1720Y1886D03*
X1770Y1886D03*
X1770Y2147D03*
X1720Y2147D03*
X1670Y2147D03*
X1620Y2147D03*
X1570Y2147D03*
X1520Y2147D03*
X1470Y2147D03*
G54D14*
X1096Y3348D03*
X1096Y3298D03*
X1096Y3248D03*
X1096Y3198D03*
X1096Y3148D03*
X1096Y3098D03*
X1096Y3048D03*
X1357Y3048D03*
X1357Y3098D03*
X1357Y3148D03*
X1357Y3198D03*
X1357Y3248D03*
X1357Y3298D03*
X1357Y3348D03*
X1046Y3848D03*
X1046Y3798D03*
X1046Y3748D03*
X1046Y3698D03*
X1046Y3648D03*
X1046Y3598D03*
X1046Y3548D03*
X1307Y3548D03*
X1307Y3598D03*
X1307Y3648D03*
X1307Y3698D03*
X1307Y3748D03*
X1307Y3798D03*
X1307Y3848D03*
G54D10*
X970Y1886D03*
X1020Y1886D03*
X1070Y1886D03*
X1120Y1886D03*
X1170Y1886D03*
X1220Y1886D03*
X1270Y1886D03*
X1270Y2147D03*
X1220Y2147D03*
X1170Y2147D03*
X1120Y2147D03*
X1070Y2147D03*
X1020Y2147D03*
X970Y2147D03*
G54D12*
X1595Y2286D03*
X1676Y2286D03*
G54D15*
X771Y2435D03*
X771Y2355D03*
X1695Y2474D03*
X1695Y2393D03*
X857Y2511D03*
X857Y2430D03*
G54D12*
X1783Y3198D03*
X1703Y3198D03*
X2208Y3085D03*
X2128Y3085D03*
G54D15*
X1608Y3848D03*
X1608Y3767D03*
G54D12*
X2021Y3860D03*
X1940Y3860D03*
G54D15*
X746Y2773D03*
X746Y2692D03*
X1695Y2761D03*
X1695Y2680D03*
G54D16*
X1370Y2074D03*
G54D17*
X1370Y1946D03*
G54D12*
X1833Y3823D03*
X1753Y3823D03*
X2383Y3085D03*
X2303Y3085D03*
X1989Y3085D03*
X1908Y3085D03*
X2196Y3823D03*
X2115Y3823D03*
G54D15*
X857Y2774D03*
X857Y2693D03*
G54D24*
X1496Y3448D03*
G54D25*
X1368Y3448D03*
G54D24*
X946Y3848D03*
G54D25*
X818Y3848D03*
G54D16*
X871Y2073D03*
G54D17*
X871Y1945D03*
G54D12*
X1645Y1674D03*
X1564Y1674D03*
G54D15*
X883Y3160D03*
X883Y3241D03*
X821Y3660D03*
X821Y3741D03*
G54D12*
X1145Y1674D03*
X1064Y1674D03*
G54D15*
X1307Y1674D03*
X1307Y1755D03*
G54D12*
X1158Y3448D03*
X1239Y3448D03*
G54D15*
X658Y3848D03*
X658Y3767D03*
X871Y1760D03*
X871Y1841D03*
G54D18*
X1582Y1761D03*
X1705Y1761D03*
G54D23*
X983Y3223D03*
X983Y3101D03*
X921Y3723D03*
X921Y3601D03*
G54D18*
X1082Y1761D03*
X1205Y1761D03*
G54D12*
X1507Y2261D03*
X1427Y2261D03*
G54D15*
X1471Y3835D03*
X1471Y3755D03*
X1596Y3373D03*
X1596Y3292D03*
X871Y2185D03*
X871Y2266D03*
G54D19*
X1595Y2636D03*
X1595Y2727D03*
X1595Y2818D03*
G54D20*
X1351Y2727D03*
G54D19*
X1596Y2360D03*
X1596Y2451D03*
X1596Y2542D03*
G54D20*
X1352Y2451D03*
G54D21*
X2253Y3710D03*
X2162Y3710D03*
X2071Y3710D03*
G54D22*
X2162Y3466D03*
G54D19*
X957Y2818D03*
X957Y2727D03*
X957Y2636D03*
G54D20*
X1201Y2727D03*
G54D21*
X1864Y3198D03*
X1955Y3198D03*
X2046Y3198D03*
G54D22*
X1955Y3442D03*
G54D21*
X2258Y3198D03*
X2349Y3198D03*
X2440Y3198D03*
G54D22*
X2349Y3442D03*
G54D21*
X1890Y3710D03*
X1799Y3710D03*
X1708Y3710D03*
G54D22*
X1799Y3466D03*
G54D19*
X957Y2543D03*
X957Y2452D03*
X957Y2361D03*
G54D20*
X1201Y2452D03*
G54D26*
X3133Y3185D03*
X2913Y3185D03*
X3458Y3273D03*
X3238Y3273D03*
X3133Y3360D03*
X2913Y3360D03*
X3458Y3448D03*
X3238Y3448D03*
X3133Y3535D03*
X2913Y3535D03*
X3458Y3623D03*
X3238Y3623D03*
X3133Y3710D03*
X2913Y3710D03*
X3458Y3798D03*
X3238Y3798D03*
G36*
X2911Y2585D02*
X2869Y2544D01*
X2830Y2583D01*
X2872Y2624D01*
X2911Y2585D01*
G37*
D02*
G36*
X2968Y2528D02*
X2926Y2487D01*
X2887Y2526D01*
X2929Y2567D01*
X2968Y2528D01*
G37*
D02*
G36*
X3813Y1083D02*
X3754Y1083D01*
X3754Y1138D01*
X3813Y1138D01*
X3813Y1083D01*
G37*
D02*
G36*
X3813Y1002D02*
X3754Y1002D01*
X3754Y1057D01*
X3813Y1057D01*
X3813Y1002D01*
G37*
D02*
G36*
X3738Y2626D02*
X3679Y2626D01*
X3679Y2681D01*
X3738Y2681D01*
X3738Y2626D01*
G37*
D02*
G36*
X3738Y2545D02*
X3679Y2545D01*
X3679Y2600D01*
X3738Y2600D01*
X3738Y2545D01*
G37*
D02*
G36*
X1760Y2588D02*
X1719Y2546D01*
X1680Y2585D01*
X1721Y2627D01*
X1760Y2588D01*
G37*
D02*
G36*
X1817Y2530D02*
X1776Y2489D01*
X1737Y2528D01*
X1778Y2569D01*
X1817Y2530D01*
G37*
D02*
G04 End of PasteMask1*
M02*