; NON-PLATED HOLES START AT T1
; THROUGH (PLATED) HOLES START AT T100
M48
INCH
T100C0.086614
T101C0.038189
T102C0.046063
%
T100
X034317Y009611
X001066Y009611
X001066Y001111
X034317Y001111
T101
X026067Y002861
X026067Y007861
X019098Y002861
X024098Y007861
X024098Y002861
X019098Y007861
X021067Y007861
X021067Y002861
X016067Y002861
X011067Y002861
X009098Y007861
X011067Y007861
X009098Y002861
X014098Y007861
X014098Y002861
X016067Y007861
T102
X031732Y008015
X029567Y004708
X029567Y006361
X003567Y008015
X005732Y004708
X031732Y003054
X005732Y003054
X029567Y003054
X003567Y004708
X029567Y008015
X003567Y006361
X005732Y006361
X003567Y003054
X031732Y004708
X031732Y006361
X005732Y008015
T00
M30
