G04 MADE WITH FRITZING*
G04 WWW.FRITZING.ORG*
G04 DOUBLE SIDED*
G04 HOLES PLATED*
G04 CONTOUR ON CENTER OF CONTOUR VECTOR*
%ASAXBY*%
%FSLAX23Y23*%
%MOIN*%
%OFA0B0*%
%SFA1.0B1.0*%
%ADD10R,3.555070X1.074970X3.539070X1.058970*%
%ADD11C,0.008000*%
%ADD12C,0.019685*%
%ADD13R,0.001000X0.001000*%
%LNSILK1*%
G90*
G70*
G54D11*
X4Y1071D02*
X3551Y1071D01*
X3551Y4D01*
X4Y4D01*
X4Y1071D01*
D02*
G54D12*
X213Y884D02*
X717Y884D01*
D02*
X717Y884D02*
X717Y719D01*
D02*
X717Y719D02*
X213Y719D01*
D02*
X213Y719D02*
X213Y884D01*
D02*
X213Y719D02*
X717Y719D01*
D02*
X717Y719D02*
X717Y553D01*
D02*
X717Y553D02*
X213Y553D01*
D02*
X213Y553D02*
X213Y719D01*
D02*
X213Y553D02*
X717Y553D01*
D02*
X717Y553D02*
X717Y388D01*
D02*
X717Y388D02*
X213Y388D01*
D02*
X213Y388D02*
X213Y553D01*
D02*
X213Y388D02*
X717Y388D01*
D02*
X717Y388D02*
X717Y223D01*
D02*
X717Y223D02*
X213Y223D01*
D02*
X213Y223D02*
X213Y388D01*
D02*
X2813Y884D02*
X3317Y884D01*
D02*
X3317Y884D02*
X3317Y719D01*
D02*
X3317Y719D02*
X2813Y719D01*
D02*
X2813Y719D02*
X2813Y884D01*
D02*
X2813Y719D02*
X3317Y719D01*
D02*
X3317Y719D02*
X3317Y553D01*
D02*
X3317Y553D02*
X2813Y553D01*
D02*
X2813Y553D02*
X2813Y719D01*
D02*
X2813Y553D02*
X3317Y553D01*
D02*
X3317Y553D02*
X3317Y388D01*
D02*
X3317Y388D02*
X2813Y388D01*
D02*
X2813Y388D02*
X2813Y553D01*
D02*
X2813Y388D02*
X3317Y388D01*
D02*
X3317Y388D02*
X3317Y223D01*
D02*
X3317Y223D02*
X2813Y223D01*
D02*
X2813Y223D02*
X2813Y388D01*
D02*
X2245Y550D02*
X1772Y550D01*
D02*
X1772Y550D02*
X1772Y1022D01*
D02*
X1772Y1022D02*
X2245Y1022D01*
D02*
X2245Y1022D02*
X2245Y550D01*
D02*
X1745Y50D02*
X1272Y50D01*
D02*
X1272Y50D02*
X1272Y522D01*
D02*
X1272Y522D02*
X1745Y522D01*
D02*
X1745Y522D02*
X1745Y50D01*
D02*
X2245Y50D02*
X1772Y50D01*
D02*
X1772Y50D02*
X1772Y522D01*
D02*
X1772Y522D02*
X2245Y522D01*
D02*
X2245Y522D02*
X2245Y50D01*
D02*
X1245Y550D02*
X772Y550D01*
D02*
X772Y550D02*
X772Y1022D01*
D02*
X772Y1022D02*
X1245Y1022D01*
D02*
X1245Y1022D02*
X1245Y550D01*
D02*
X1245Y50D02*
X772Y50D01*
D02*
X772Y50D02*
X772Y522D01*
D02*
X772Y522D02*
X1245Y522D01*
D02*
X1245Y522D02*
X1245Y50D01*
D02*
X1745Y550D02*
X1272Y550D01*
D02*
X1272Y550D02*
X1272Y1022D01*
D02*
X1272Y1022D02*
X1745Y1022D01*
D02*
X1745Y1022D02*
X1745Y550D01*
D02*
X2745Y550D02*
X2272Y550D01*
D02*
X2272Y550D02*
X2272Y1022D01*
D02*
X2272Y1022D02*
X2745Y1022D01*
D02*
X2745Y1022D02*
X2745Y550D01*
D02*
X2745Y50D02*
X2272Y50D01*
D02*
X2272Y50D02*
X2272Y522D01*
D02*
X2272Y522D02*
X2745Y522D01*
D02*
X2745Y522D02*
X2745Y50D01*
G54D13*
X279Y206D02*
X291Y206D01*
X278Y205D02*
X292Y205D01*
X278Y204D02*
X292Y204D01*
X278Y203D02*
X292Y203D01*
X278Y202D02*
X292Y202D01*
X277Y201D02*
X293Y201D01*
X277Y200D02*
X293Y200D01*
X277Y199D02*
X293Y199D01*
X277Y198D02*
X293Y198D01*
X277Y197D02*
X293Y197D01*
X277Y196D02*
X294Y196D01*
X276Y195D02*
X294Y195D01*
X276Y194D02*
X294Y194D01*
X276Y193D02*
X294Y193D01*
X276Y192D02*
X294Y192D01*
X276Y191D02*
X294Y191D01*
X275Y190D02*
X295Y190D01*
X238Y189D02*
X239Y189D01*
X275Y189D02*
X295Y189D01*
X331Y189D02*
X332Y189D01*
X237Y188D02*
X240Y188D01*
X275Y188D02*
X295Y188D01*
X330Y188D02*
X333Y188D01*
X236Y187D02*
X242Y187D01*
X275Y187D02*
X295Y187D01*
X329Y187D02*
X334Y187D01*
X235Y186D02*
X243Y186D01*
X275Y186D02*
X295Y186D01*
X327Y186D02*
X335Y186D01*
X234Y185D02*
X244Y185D01*
X273Y185D02*
X297Y185D01*
X326Y185D02*
X336Y185D01*
X233Y184D02*
X246Y184D01*
X269Y184D02*
X301Y184D01*
X324Y184D02*
X337Y184D01*
X232Y183D02*
X247Y183D01*
X266Y183D02*
X304Y183D01*
X323Y183D02*
X338Y183D01*
X231Y182D02*
X249Y182D01*
X264Y182D02*
X306Y182D01*
X321Y182D02*
X339Y182D01*
X230Y181D02*
X250Y181D01*
X262Y181D02*
X309Y181D01*
X320Y181D02*
X340Y181D01*
X229Y180D02*
X252Y180D01*
X260Y180D02*
X310Y180D01*
X318Y180D02*
X341Y180D01*
X229Y179D02*
X253Y179D01*
X258Y179D02*
X312Y179D01*
X317Y179D02*
X341Y179D01*
X230Y178D02*
X340Y178D01*
X230Y177D02*
X340Y177D01*
X231Y176D02*
X339Y176D01*
X232Y175D02*
X338Y175D01*
X232Y174D02*
X338Y174D01*
X233Y173D02*
X337Y173D01*
X234Y172D02*
X336Y172D01*
X235Y171D02*
X336Y171D01*
X235Y170D02*
X335Y170D01*
X236Y169D02*
X334Y169D01*
X237Y168D02*
X334Y168D01*
X237Y167D02*
X333Y167D01*
X238Y166D02*
X332Y166D01*
X239Y165D02*
X331Y165D01*
X239Y164D02*
X331Y164D01*
X240Y163D02*
X330Y163D01*
X240Y162D02*
X330Y162D01*
X239Y161D02*
X331Y161D01*
X239Y160D02*
X331Y160D01*
X238Y159D02*
X332Y159D01*
X237Y158D02*
X278Y158D01*
X292Y158D02*
X333Y158D01*
X237Y157D02*
X275Y157D01*
X295Y157D02*
X333Y157D01*
X236Y156D02*
X273Y156D01*
X297Y156D02*
X334Y156D01*
X236Y155D02*
X271Y155D01*
X299Y155D02*
X334Y155D01*
X236Y154D02*
X269Y154D01*
X301Y154D02*
X335Y154D01*
X235Y153D02*
X268Y153D01*
X302Y153D02*
X335Y153D01*
X235Y152D02*
X267Y152D01*
X303Y152D02*
X335Y152D01*
X234Y151D02*
X266Y151D01*
X304Y151D02*
X336Y151D01*
X234Y150D02*
X265Y150D01*
X305Y150D02*
X336Y150D01*
X234Y149D02*
X264Y149D01*
X306Y149D02*
X336Y149D01*
X233Y148D02*
X263Y148D01*
X307Y148D02*
X337Y148D01*
X233Y147D02*
X263Y147D01*
X307Y147D02*
X337Y147D01*
X233Y146D02*
X262Y146D01*
X308Y146D02*
X337Y146D01*
X232Y145D02*
X262Y145D01*
X308Y145D02*
X338Y145D01*
X232Y144D02*
X261Y144D01*
X309Y144D02*
X338Y144D01*
X229Y143D02*
X261Y143D01*
X310Y143D02*
X341Y143D01*
X223Y142D02*
X260Y142D01*
X310Y142D02*
X347Y142D01*
X218Y141D02*
X260Y141D01*
X310Y141D02*
X352Y141D01*
X213Y140D02*
X259Y140D01*
X311Y140D02*
X357Y140D01*
X212Y139D02*
X259Y139D01*
X311Y139D02*
X358Y139D01*
X212Y138D02*
X259Y138D01*
X311Y138D02*
X358Y138D01*
X212Y137D02*
X259Y137D01*
X311Y137D02*
X358Y137D01*
X212Y136D02*
X259Y136D01*
X311Y136D02*
X358Y136D01*
X212Y135D02*
X258Y135D01*
X312Y135D02*
X358Y135D01*
X212Y134D02*
X258Y134D01*
X312Y134D02*
X358Y134D01*
X212Y133D02*
X258Y133D01*
X312Y133D02*
X358Y133D01*
X212Y132D02*
X258Y132D01*
X312Y132D02*
X358Y132D01*
X212Y131D02*
X258Y131D01*
X312Y131D02*
X358Y131D01*
X212Y130D02*
X259Y130D01*
X312Y130D02*
X358Y130D01*
X212Y129D02*
X259Y129D01*
X311Y129D02*
X358Y129D01*
X212Y128D02*
X259Y128D01*
X311Y128D02*
X358Y128D01*
X212Y127D02*
X259Y127D01*
X311Y127D02*
X358Y127D01*
X212Y126D02*
X259Y126D01*
X311Y126D02*
X358Y126D01*
X216Y125D02*
X260Y125D01*
X311Y125D02*
X354Y125D01*
X221Y124D02*
X260Y124D01*
X310Y124D02*
X349Y124D01*
X227Y123D02*
X260Y123D01*
X310Y123D02*
X343Y123D01*
X231Y122D02*
X261Y122D01*
X309Y122D02*
X339Y122D01*
X232Y121D02*
X261Y121D01*
X309Y121D02*
X338Y121D01*
X232Y120D02*
X262Y120D01*
X308Y120D02*
X338Y120D01*
X232Y119D02*
X262Y119D01*
X308Y119D02*
X338Y119D01*
X233Y118D02*
X263Y118D01*
X307Y118D02*
X337Y118D01*
X233Y117D02*
X264Y117D01*
X306Y117D02*
X337Y117D01*
X233Y116D02*
X264Y116D01*
X306Y116D02*
X337Y116D01*
X234Y115D02*
X265Y115D01*
X305Y115D02*
X337Y115D01*
X234Y114D02*
X266Y114D01*
X304Y114D02*
X336Y114D01*
X234Y113D02*
X267Y113D01*
X303Y113D02*
X336Y113D01*
X235Y112D02*
X269Y112D01*
X302Y112D02*
X335Y112D01*
X235Y111D02*
X270Y111D01*
X300Y111D02*
X335Y111D01*
X235Y110D02*
X271Y110D01*
X299Y110D02*
X335Y110D01*
X236Y109D02*
X270Y109D01*
X300Y109D02*
X334Y109D01*
X236Y108D02*
X270Y108D01*
X300Y108D02*
X334Y108D01*
X237Y107D02*
X270Y107D01*
X301Y107D02*
X333Y107D01*
X237Y106D02*
X269Y106D01*
X301Y106D02*
X333Y106D01*
X238Y105D02*
X269Y105D01*
X301Y105D02*
X332Y105D01*
X239Y104D02*
X268Y104D01*
X302Y104D02*
X332Y104D01*
X239Y103D02*
X268Y103D01*
X302Y103D02*
X331Y103D01*
X240Y102D02*
X267Y102D01*
X303Y102D02*
X331Y102D01*
X239Y101D02*
X267Y101D01*
X303Y101D02*
X331Y101D01*
X238Y100D02*
X267Y100D01*
X303Y100D02*
X332Y100D01*
X238Y99D02*
X266Y99D01*
X304Y99D02*
X333Y99D01*
X237Y98D02*
X266Y98D01*
X304Y98D02*
X333Y98D01*
X236Y97D02*
X265Y97D01*
X305Y97D02*
X334Y97D01*
X235Y96D02*
X265Y96D01*
X305Y96D02*
X335Y96D01*
X2951Y96D02*
X2954Y96D01*
X235Y95D02*
X265Y95D01*
X306Y95D02*
X335Y95D01*
X2950Y95D02*
X2954Y95D01*
X234Y94D02*
X264Y94D01*
X306Y94D02*
X336Y94D01*
X2867Y94D02*
X2869Y94D01*
X2918Y94D02*
X2935Y94D01*
X2950Y94D02*
X2955Y94D01*
X2973Y94D02*
X2981Y94D01*
X3102Y94D02*
X3116Y94D01*
X3222Y94D02*
X3224Y94D01*
X3260Y94D02*
X3274Y94D01*
X3287Y94D02*
X3296Y94D01*
X233Y93D02*
X264Y93D01*
X306Y93D02*
X337Y93D01*
X2867Y93D02*
X2869Y93D01*
X2918Y93D02*
X2935Y93D01*
X2950Y93D02*
X2955Y93D01*
X2973Y93D02*
X2981Y93D01*
X3002Y93D02*
X3003Y93D01*
X3102Y93D02*
X3117Y93D01*
X3222Y93D02*
X3225Y93D01*
X3260Y93D02*
X3276Y93D01*
X3286Y93D02*
X3296Y93D01*
X233Y92D02*
X263Y92D01*
X307Y92D02*
X337Y92D01*
X2867Y92D02*
X2869Y92D01*
X2918Y92D02*
X2935Y92D01*
X2951Y92D02*
X2954Y92D01*
X2973Y92D02*
X2981Y92D01*
X3001Y92D02*
X3003Y92D01*
X3102Y92D02*
X3118Y92D01*
X3222Y92D02*
X3225Y92D01*
X3260Y92D02*
X3276Y92D01*
X3287Y92D02*
X3296Y92D01*
X232Y91D02*
X263Y91D01*
X307Y91D02*
X338Y91D01*
X2867Y91D02*
X2869Y91D01*
X2878Y91D02*
X2880Y91D01*
X2918Y91D02*
X2921Y91D01*
X2978Y91D02*
X2981Y91D01*
X3001Y91D02*
X3004Y91D01*
X3102Y91D02*
X3105Y91D01*
X3114Y91D02*
X3119Y91D01*
X3222Y91D02*
X3225Y91D01*
X3260Y91D02*
X3263Y91D01*
X3273Y91D02*
X3277Y91D01*
X3293Y91D02*
X3296Y91D01*
X231Y90D02*
X262Y90D01*
X308Y90D02*
X339Y90D01*
X2867Y90D02*
X2869Y90D01*
X2878Y90D02*
X2880Y90D01*
X2918Y90D02*
X2921Y90D01*
X2978Y90D02*
X2981Y90D01*
X3001Y90D02*
X3004Y90D01*
X3102Y90D02*
X3105Y90D01*
X3116Y90D02*
X3119Y90D01*
X3222Y90D02*
X3225Y90D01*
X3260Y90D02*
X3263Y90D01*
X3274Y90D02*
X3277Y90D01*
X3293Y90D02*
X3296Y90D01*
X231Y89D02*
X262Y89D01*
X308Y89D02*
X339Y89D01*
X2867Y89D02*
X2869Y89D01*
X2878Y89D02*
X2880Y89D01*
X2918Y89D02*
X2921Y89D01*
X2978Y89D02*
X2981Y89D01*
X3001Y89D02*
X3004Y89D01*
X3102Y89D02*
X3105Y89D01*
X3116Y89D02*
X3119Y89D01*
X3222Y89D02*
X3225Y89D01*
X3260Y89D02*
X3263Y89D01*
X3274Y89D02*
X3277Y89D01*
X3293Y89D02*
X3296Y89D01*
X230Y88D02*
X262Y88D01*
X308Y88D02*
X340Y88D01*
X2867Y88D02*
X2869Y88D01*
X2878Y88D02*
X2880Y88D01*
X2918Y88D02*
X2921Y88D01*
X2978Y88D02*
X2981Y88D01*
X3001Y88D02*
X3004Y88D01*
X3102Y88D02*
X3105Y88D01*
X3117Y88D02*
X3119Y88D01*
X3222Y88D02*
X3225Y88D01*
X3260Y88D02*
X3263Y88D01*
X3274Y88D02*
X3277Y88D01*
X3293Y88D02*
X3296Y88D01*
X229Y87D02*
X261Y87D01*
X309Y87D02*
X341Y87D01*
X2841Y87D02*
X2842Y87D01*
X2855Y87D02*
X2855Y87D01*
X2867Y87D02*
X2869Y87D01*
X2878Y87D02*
X2880Y87D01*
X2918Y87D02*
X2921Y87D01*
X2948Y87D02*
X2953Y87D01*
X2978Y87D02*
X2981Y87D01*
X2998Y87D02*
X3011Y87D01*
X3029Y87D02*
X3035Y87D01*
X3051Y87D02*
X3051Y87D01*
X3058Y87D02*
X3063Y87D01*
X3102Y87D02*
X3105Y87D01*
X3117Y87D02*
X3119Y87D01*
X3134Y87D02*
X3140Y87D01*
X3160Y87D02*
X3167Y87D01*
X3182Y87D02*
X3183Y87D01*
X3189Y87D02*
X3194Y87D01*
X3213Y87D02*
X3217Y87D01*
X3222Y87D02*
X3225Y87D01*
X3260Y87D02*
X3263Y87D01*
X3274Y87D02*
X3277Y87D01*
X3293Y87D02*
X3296Y87D01*
X229Y86D02*
X252Y86D01*
X256Y86D02*
X261Y86D01*
X309Y86D02*
X314Y86D01*
X318Y86D02*
X341Y86D01*
X2840Y86D02*
X2843Y86D01*
X2854Y86D02*
X2856Y86D01*
X2867Y86D02*
X2869Y86D01*
X2878Y86D02*
X2880Y86D01*
X2918Y86D02*
X2921Y86D01*
X2947Y86D02*
X2954Y86D01*
X2978Y86D02*
X2981Y86D01*
X2997Y86D02*
X3012Y86D01*
X3027Y86D02*
X3037Y86D01*
X3050Y86D02*
X3052Y86D01*
X3057Y86D02*
X3065Y86D01*
X3102Y86D02*
X3105Y86D01*
X3117Y86D02*
X3119Y86D01*
X3132Y86D02*
X3142Y86D01*
X3159Y86D02*
X3169Y86D01*
X3181Y86D02*
X3184Y86D01*
X3188Y86D02*
X3196Y86D01*
X3211Y86D02*
X3219Y86D01*
X3222Y86D02*
X3225Y86D01*
X3260Y86D02*
X3263Y86D01*
X3273Y86D02*
X3277Y86D01*
X3293Y86D02*
X3296Y86D01*
X230Y85D02*
X251Y85D01*
X258Y85D02*
X260Y85D01*
X310Y85D02*
X312Y85D01*
X319Y85D02*
X341Y85D01*
X2840Y85D02*
X2843Y85D01*
X2853Y85D02*
X2856Y85D01*
X2867Y85D02*
X2869Y85D01*
X2878Y85D02*
X2880Y85D01*
X2918Y85D02*
X2931Y85D01*
X2947Y85D02*
X2955Y85D01*
X2978Y85D02*
X2981Y85D01*
X2997Y85D02*
X3012Y85D01*
X3026Y85D02*
X3038Y85D01*
X3050Y85D02*
X3052Y85D01*
X3056Y85D02*
X3066Y85D01*
X3102Y85D02*
X3105Y85D01*
X3116Y85D02*
X3119Y85D01*
X3131Y85D02*
X3144Y85D01*
X3159Y85D02*
X3170Y85D01*
X3181Y85D02*
X3184Y85D01*
X3187Y85D02*
X3197Y85D01*
X3210Y85D02*
X3225Y85D01*
X3260Y85D02*
X3276Y85D01*
X3293Y85D02*
X3296Y85D01*
X231Y84D02*
X249Y84D01*
X259Y84D02*
X260Y84D01*
X310Y84D02*
X311Y84D01*
X321Y84D02*
X340Y84D01*
X2841Y84D02*
X2844Y84D01*
X2852Y84D02*
X2856Y84D01*
X2867Y84D02*
X2869Y84D01*
X2878Y84D02*
X2880Y84D01*
X2918Y84D02*
X2932Y84D01*
X2947Y84D02*
X2955Y84D01*
X2978Y84D02*
X2981Y84D01*
X2998Y84D02*
X3012Y84D01*
X3025Y84D02*
X3039Y84D01*
X3050Y84D02*
X3052Y84D01*
X3054Y84D02*
X3066Y84D01*
X3102Y84D02*
X3105Y84D01*
X3116Y84D02*
X3119Y84D01*
X3130Y84D02*
X3144Y84D01*
X3159Y84D02*
X3171Y84D01*
X3181Y84D02*
X3184Y84D01*
X3186Y84D02*
X3198Y84D01*
X3209Y84D02*
X3225Y84D01*
X3260Y84D02*
X3276Y84D01*
X3293Y84D02*
X3296Y84D01*
X232Y83D02*
X248Y83D01*
X322Y83D02*
X339Y83D01*
X2841Y83D02*
X2845Y83D01*
X2851Y83D02*
X2855Y83D01*
X2867Y83D02*
X2869Y83D01*
X2878Y83D02*
X2880Y83D01*
X2918Y83D02*
X2932Y83D01*
X2952Y83D02*
X2955Y83D01*
X2978Y83D02*
X2981Y83D01*
X3001Y83D02*
X3004Y83D01*
X3024Y83D02*
X3028Y83D01*
X3036Y83D02*
X3040Y83D01*
X3050Y83D02*
X3058Y83D01*
X3064Y83D02*
X3067Y83D01*
X3102Y83D02*
X3105Y83D01*
X3115Y83D02*
X3119Y83D01*
X3129Y83D02*
X3133Y83D01*
X3141Y83D02*
X3145Y83D01*
X3168Y83D02*
X3171Y83D01*
X3181Y83D02*
X3189Y83D01*
X3195Y83D02*
X3198Y83D01*
X3208Y83D02*
X3212Y83D01*
X3218Y83D02*
X3225Y83D01*
X3260Y83D02*
X3274Y83D01*
X3293Y83D02*
X3296Y83D01*
X233Y82D02*
X247Y82D01*
X324Y82D02*
X338Y82D01*
X2842Y82D02*
X2846Y82D01*
X2850Y82D02*
X2854Y82D01*
X2867Y82D02*
X2869Y82D01*
X2878Y82D02*
X2880Y82D01*
X2918Y82D02*
X2930Y82D01*
X2952Y82D02*
X2955Y82D01*
X2978Y82D02*
X2981Y82D01*
X3001Y82D02*
X3004Y82D01*
X3024Y82D02*
X3027Y82D01*
X3037Y82D02*
X3040Y82D01*
X3050Y82D02*
X3057Y82D01*
X3064Y82D02*
X3067Y82D01*
X3102Y82D02*
X3118Y82D01*
X3129Y82D02*
X3132Y82D01*
X3142Y82D02*
X3146Y82D01*
X3169Y82D02*
X3171Y82D01*
X3181Y82D02*
X3188Y82D01*
X3196Y82D02*
X3198Y82D01*
X3208Y82D02*
X3211Y82D01*
X3219Y82D02*
X3225Y82D01*
X3260Y82D02*
X3271Y82D01*
X3293Y82D02*
X3296Y82D01*
X234Y81D02*
X245Y81D01*
X325Y81D02*
X337Y81D01*
X2843Y81D02*
X2847Y81D01*
X2849Y81D02*
X2853Y81D01*
X2867Y81D02*
X2869Y81D01*
X2878Y81D02*
X2880Y81D01*
X2918Y81D02*
X2921Y81D01*
X2952Y81D02*
X2955Y81D01*
X2978Y81D02*
X2981Y81D01*
X3001Y81D02*
X3004Y81D01*
X3024Y81D02*
X3026Y81D01*
X3038Y81D02*
X3041Y81D01*
X3050Y81D02*
X3056Y81D01*
X3064Y81D02*
X3067Y81D01*
X3102Y81D02*
X3117Y81D01*
X3129Y81D02*
X3131Y81D01*
X3143Y81D02*
X3146Y81D01*
X3169Y81D02*
X3172Y81D01*
X3181Y81D02*
X3187Y81D01*
X3196Y81D02*
X3198Y81D01*
X3207Y81D02*
X3210Y81D01*
X3221Y81D02*
X3225Y81D01*
X3260Y81D02*
X3263Y81D01*
X3267Y81D02*
X3270Y81D01*
X3293Y81D02*
X3296Y81D01*
X235Y80D02*
X244Y80D01*
X326Y80D02*
X336Y80D01*
X2844Y80D02*
X2852Y80D01*
X2867Y80D02*
X2869Y80D01*
X2878Y80D02*
X2880Y80D01*
X2918Y80D02*
X2921Y80D01*
X2952Y80D02*
X2955Y80D01*
X2978Y80D02*
X2981Y80D01*
X3001Y80D02*
X3004Y80D01*
X3023Y80D02*
X3026Y80D01*
X3038Y80D02*
X3041Y80D01*
X3050Y80D02*
X3054Y80D01*
X3064Y80D02*
X3067Y80D01*
X3102Y80D02*
X3118Y80D01*
X3129Y80D02*
X3131Y80D01*
X3143Y80D02*
X3146Y80D01*
X3169Y80D02*
X3172Y80D01*
X3181Y80D02*
X3186Y80D01*
X3196Y80D02*
X3198Y80D01*
X3207Y80D02*
X3210Y80D01*
X3221Y80D02*
X3225Y80D01*
X3260Y80D02*
X3263Y80D01*
X3267Y80D02*
X3271Y80D01*
X3293Y80D02*
X3296Y80D01*
X236Y79D02*
X242Y79D01*
X328Y79D02*
X335Y79D01*
X2845Y79D02*
X2852Y79D01*
X2867Y79D02*
X2881Y79D01*
X2918Y79D02*
X2921Y79D01*
X2952Y79D02*
X2955Y79D01*
X2978Y79D02*
X2981Y79D01*
X3001Y79D02*
X3004Y79D01*
X3023Y79D02*
X3026Y79D01*
X3038Y79D02*
X3041Y79D01*
X3050Y79D02*
X3053Y79D01*
X3102Y79D02*
X3118Y79D01*
X3129Y79D02*
X3131Y79D01*
X3143Y79D02*
X3146Y79D01*
X3158Y79D02*
X3172Y79D01*
X3181Y79D02*
X3185Y79D01*
X3197Y79D02*
X3197Y79D01*
X3207Y79D02*
X3210Y79D01*
X3222Y79D02*
X3225Y79D01*
X3260Y79D02*
X3263Y79D01*
X3268Y79D02*
X3271Y79D01*
X3293Y79D02*
X3296Y79D01*
X3301Y79D02*
X3303Y79D01*
X237Y78D02*
X241Y78D01*
X329Y78D02*
X334Y78D01*
X2846Y78D02*
X2851Y78D01*
X2867Y78D02*
X2882Y78D01*
X2918Y78D02*
X2921Y78D01*
X2952Y78D02*
X2955Y78D01*
X2978Y78D02*
X2981Y78D01*
X3001Y78D02*
X3004Y78D01*
X3023Y78D02*
X3027Y78D01*
X3038Y78D02*
X3041Y78D01*
X3050Y78D02*
X3052Y78D01*
X3102Y78D02*
X3105Y78D01*
X3115Y78D02*
X3119Y78D01*
X3129Y78D02*
X3131Y78D01*
X3143Y78D02*
X3146Y78D01*
X3157Y78D02*
X3172Y78D01*
X3181Y78D02*
X3184Y78D01*
X3207Y78D02*
X3210Y78D01*
X3222Y78D02*
X3225Y78D01*
X3260Y78D02*
X3263Y78D01*
X3268Y78D02*
X3272Y78D01*
X3293Y78D02*
X3296Y78D01*
X3301Y78D02*
X3303Y78D01*
X238Y77D02*
X239Y77D01*
X331Y77D02*
X333Y77D01*
X2846Y77D02*
X2850Y77D01*
X2867Y77D02*
X2882Y77D01*
X2918Y77D02*
X2921Y77D01*
X2952Y77D02*
X2955Y77D01*
X2978Y77D02*
X2981Y77D01*
X3001Y77D02*
X3004Y77D01*
X3023Y77D02*
X3041Y77D01*
X3050Y77D02*
X3052Y77D01*
X3102Y77D02*
X3105Y77D01*
X3116Y77D02*
X3119Y77D01*
X3129Y77D02*
X3131Y77D01*
X3143Y77D02*
X3146Y77D01*
X3156Y77D02*
X3172Y77D01*
X3181Y77D02*
X3184Y77D01*
X3207Y77D02*
X3210Y77D01*
X3222Y77D02*
X3225Y77D01*
X3260Y77D02*
X3263Y77D01*
X3269Y77D02*
X3272Y77D01*
X3293Y77D02*
X3296Y77D01*
X3301Y77D02*
X3303Y77D01*
X2845Y76D02*
X2851Y76D01*
X2867Y76D02*
X2881Y76D01*
X2918Y76D02*
X2921Y76D01*
X2952Y76D02*
X2955Y76D01*
X2978Y76D02*
X2981Y76D01*
X3001Y76D02*
X3004Y76D01*
X3023Y76D02*
X3041Y76D01*
X3050Y76D02*
X3052Y76D01*
X3102Y76D02*
X3105Y76D01*
X3117Y76D02*
X3119Y76D01*
X3129Y76D02*
X3131Y76D01*
X3143Y76D02*
X3146Y76D01*
X3155Y76D02*
X3172Y76D01*
X3181Y76D02*
X3184Y76D01*
X3207Y76D02*
X3210Y76D01*
X3222Y76D02*
X3225Y76D01*
X3260Y76D02*
X3263Y76D01*
X3270Y76D02*
X3273Y76D01*
X3293Y76D02*
X3296Y76D01*
X3301Y76D02*
X3303Y76D01*
X2844Y75D02*
X2852Y75D01*
X2878Y75D02*
X2880Y75D01*
X2918Y75D02*
X2921Y75D01*
X2952Y75D02*
X2955Y75D01*
X2978Y75D02*
X2981Y75D01*
X3001Y75D02*
X3004Y75D01*
X3023Y75D02*
X3040Y75D01*
X3050Y75D02*
X3052Y75D01*
X3102Y75D02*
X3105Y75D01*
X3117Y75D02*
X3119Y75D01*
X3129Y75D02*
X3131Y75D01*
X3143Y75D02*
X3146Y75D01*
X3155Y75D02*
X3158Y75D01*
X3169Y75D02*
X3172Y75D01*
X3181Y75D02*
X3184Y75D01*
X3207Y75D02*
X3210Y75D01*
X3222Y75D02*
X3225Y75D01*
X3260Y75D02*
X3263Y75D01*
X3270Y75D02*
X3274Y75D01*
X3293Y75D02*
X3296Y75D01*
X3301Y75D02*
X3303Y75D01*
X2844Y74D02*
X2853Y74D01*
X2878Y74D02*
X2880Y74D01*
X2918Y74D02*
X2921Y74D01*
X2952Y74D02*
X2955Y74D01*
X2978Y74D02*
X2981Y74D01*
X3001Y74D02*
X3004Y74D01*
X3023Y74D02*
X3026Y74D01*
X3050Y74D02*
X3052Y74D01*
X3102Y74D02*
X3105Y74D01*
X3117Y74D02*
X3119Y74D01*
X3129Y74D02*
X3131Y74D01*
X3143Y74D02*
X3146Y74D01*
X3155Y74D02*
X3158Y74D01*
X3169Y74D02*
X3172Y74D01*
X3181Y74D02*
X3184Y74D01*
X3207Y74D02*
X3210Y74D01*
X3222Y74D02*
X3225Y74D01*
X3260Y74D02*
X3263Y74D01*
X3271Y74D02*
X3274Y74D01*
X3293Y74D02*
X3296Y74D01*
X3301Y74D02*
X3303Y74D01*
X2843Y73D02*
X2847Y73D01*
X2850Y73D02*
X2853Y73D01*
X2878Y73D02*
X2880Y73D01*
X2918Y73D02*
X2921Y73D01*
X2952Y73D02*
X2955Y73D01*
X2978Y73D02*
X2981Y73D01*
X3001Y73D02*
X3004Y73D01*
X3013Y73D02*
X3013Y73D01*
X3024Y73D02*
X3026Y73D01*
X3050Y73D02*
X3052Y73D01*
X3102Y73D02*
X3105Y73D01*
X3117Y73D02*
X3119Y73D01*
X3129Y73D02*
X3131Y73D01*
X3143Y73D02*
X3146Y73D01*
X3155Y73D02*
X3158Y73D01*
X3169Y73D02*
X3172Y73D01*
X3181Y73D02*
X3184Y73D01*
X3207Y73D02*
X3210Y73D01*
X3221Y73D02*
X3225Y73D01*
X3260Y73D02*
X3263Y73D01*
X3271Y73D02*
X3275Y73D01*
X3293Y73D02*
X3296Y73D01*
X3301Y73D02*
X3303Y73D01*
X2842Y72D02*
X2846Y72D01*
X2850Y72D02*
X2854Y72D01*
X2878Y72D02*
X2880Y72D01*
X2918Y72D02*
X2921Y72D01*
X2952Y72D02*
X2955Y72D01*
X2978Y72D02*
X2981Y72D01*
X3001Y72D02*
X3004Y72D01*
X3012Y72D02*
X3014Y72D01*
X3024Y72D02*
X3027Y72D01*
X3050Y72D02*
X3052Y72D01*
X3102Y72D02*
X3105Y72D01*
X3116Y72D02*
X3119Y72D01*
X3129Y72D02*
X3132Y72D01*
X3143Y72D02*
X3146Y72D01*
X3155Y72D02*
X3158Y72D01*
X3168Y72D02*
X3172Y72D01*
X3181Y72D02*
X3184Y72D01*
X3208Y72D02*
X3211Y72D01*
X3220Y72D02*
X3225Y72D01*
X3260Y72D02*
X3263Y72D01*
X3272Y72D02*
X3275Y72D01*
X3293Y72D02*
X3296Y72D01*
X3301Y72D02*
X3303Y72D01*
X2841Y71D02*
X2845Y71D01*
X2851Y71D02*
X2855Y71D01*
X2878Y71D02*
X2880Y71D01*
X2918Y71D02*
X2921Y71D01*
X2952Y71D02*
X2955Y71D01*
X2978Y71D02*
X2981Y71D01*
X3001Y71D02*
X3004Y71D01*
X3011Y71D02*
X3014Y71D01*
X3024Y71D02*
X3028Y71D01*
X3050Y71D02*
X3052Y71D01*
X3102Y71D02*
X3105Y71D01*
X3115Y71D02*
X3119Y71D01*
X3129Y71D02*
X3133Y71D01*
X3141Y71D02*
X3145Y71D01*
X3155Y71D02*
X3158Y71D01*
X3166Y71D02*
X3172Y71D01*
X3181Y71D02*
X3184Y71D01*
X3208Y71D02*
X3212Y71D01*
X3218Y71D02*
X3225Y71D01*
X3260Y71D02*
X3263Y71D01*
X3273Y71D02*
X3276Y71D01*
X3293Y71D02*
X3296Y71D01*
X3301Y71D02*
X3303Y71D01*
X2840Y70D02*
X2844Y70D01*
X2852Y70D02*
X2856Y70D01*
X2878Y70D02*
X2880Y70D01*
X2918Y70D02*
X2921Y70D01*
X2947Y70D02*
X2959Y70D01*
X2974Y70D02*
X2985Y70D01*
X3001Y70D02*
X3014Y70D01*
X3024Y70D02*
X3040Y70D01*
X3050Y70D02*
X3052Y70D01*
X3102Y70D02*
X3118Y70D01*
X3130Y70D02*
X3145Y70D01*
X3155Y70D02*
X3172Y70D01*
X3181Y70D02*
X3184Y70D01*
X3208Y70D02*
X3225Y70D01*
X3260Y70D02*
X3263Y70D01*
X3273Y70D02*
X3276Y70D01*
X3287Y70D02*
X3303Y70D01*
X2840Y69D02*
X2843Y69D01*
X2853Y69D02*
X2856Y69D01*
X2878Y69D02*
X2880Y69D01*
X2918Y69D02*
X2921Y69D01*
X2947Y69D02*
X2960Y69D01*
X2973Y69D02*
X2986Y69D01*
X3002Y69D02*
X3013Y69D01*
X3025Y69D02*
X3040Y69D01*
X3050Y69D02*
X3052Y69D01*
X3102Y69D02*
X3117Y69D01*
X3131Y69D02*
X3144Y69D01*
X3156Y69D02*
X3172Y69D01*
X3181Y69D02*
X3184Y69D01*
X3209Y69D02*
X3225Y69D01*
X3260Y69D02*
X3263Y69D01*
X3274Y69D02*
X3277Y69D01*
X3286Y69D02*
X3303Y69D01*
X2840Y68D02*
X2842Y68D01*
X2854Y68D02*
X2857Y68D01*
X2878Y68D02*
X2880Y68D01*
X2919Y68D02*
X2921Y68D01*
X2947Y68D02*
X2960Y68D01*
X2973Y68D02*
X2986Y68D01*
X3003Y68D02*
X3012Y68D01*
X3027Y68D02*
X3041Y68D01*
X3050Y68D02*
X3052Y68D01*
X3102Y68D02*
X3116Y68D01*
X3132Y68D02*
X3143Y68D01*
X3157Y68D02*
X3172Y68D01*
X3181Y68D02*
X3184Y68D01*
X3210Y68D02*
X3220Y68D01*
X3222Y68D02*
X3224Y68D01*
X3260Y68D02*
X3263Y68D01*
X3274Y68D02*
X3277Y68D01*
X3286Y68D02*
X3303Y68D01*
X2840Y67D02*
X2841Y67D01*
X2855Y67D02*
X2856Y67D01*
X2878Y67D02*
X2879Y67D01*
X2919Y67D02*
X2920Y67D01*
X2947Y67D02*
X2959Y67D01*
X2974Y67D02*
X2985Y67D01*
X3004Y67D02*
X3011Y67D01*
X3028Y67D02*
X3040Y67D01*
X3051Y67D02*
X3052Y67D01*
X3102Y67D02*
X3114Y67D01*
X3133Y67D02*
X3141Y67D01*
X3158Y67D02*
X3166Y67D01*
X3170Y67D02*
X3171Y67D01*
X3182Y67D02*
X3183Y67D01*
X3212Y67D02*
X3218Y67D01*
X3223Y67D02*
X3224Y67D01*
X3261Y67D02*
X3262Y67D01*
X3275Y67D02*
X3276Y67D01*
X3287Y67D02*
X3303Y67D01*
X265Y65D02*
X265Y65D01*
X264Y64D02*
X265Y64D01*
X316Y64D02*
X318Y64D01*
X264Y63D02*
X265Y63D01*
X316Y63D02*
X318Y63D01*
X264Y62D02*
X265Y62D01*
X316Y62D02*
X318Y62D01*
X264Y61D02*
X265Y61D01*
X316Y61D02*
X318Y61D01*
X196Y60D02*
X199Y60D01*
X211Y60D02*
X215Y60D01*
X226Y60D02*
X230Y60D01*
X242Y60D02*
X246Y60D01*
X264Y60D02*
X265Y60D01*
X316Y60D02*
X318Y60D01*
X194Y59D02*
X201Y59D01*
X209Y59D02*
X216Y59D01*
X225Y59D02*
X232Y59D01*
X240Y59D02*
X247Y59D01*
X264Y59D02*
X265Y59D01*
X267Y59D02*
X271Y59D01*
X281Y59D02*
X285Y59D01*
X296Y59D02*
X300Y59D01*
X311Y59D02*
X318Y59D01*
X322Y59D02*
X322Y59D01*
X327Y59D02*
X328Y59D01*
X333Y59D02*
X333Y59D01*
X340Y59D02*
X344Y59D01*
X354Y59D02*
X358Y59D01*
X369Y59D02*
X373Y59D01*
X193Y58D02*
X202Y58D01*
X209Y58D02*
X217Y58D01*
X224Y58D02*
X233Y58D01*
X239Y58D02*
X248Y58D01*
X264Y58D02*
X272Y58D01*
X280Y58D02*
X287Y58D01*
X295Y58D02*
X301Y58D01*
X309Y58D02*
X318Y58D01*
X321Y58D02*
X322Y58D01*
X326Y58D02*
X328Y58D01*
X332Y58D02*
X333Y58D01*
X339Y58D02*
X345Y58D01*
X353Y58D02*
X360Y58D01*
X368Y58D02*
X374Y58D01*
X193Y57D02*
X196Y57D01*
X199Y57D02*
X202Y57D01*
X208Y57D02*
X211Y57D01*
X214Y57D02*
X218Y57D01*
X223Y57D02*
X227Y57D01*
X230Y57D02*
X233Y57D01*
X239Y57D02*
X242Y57D01*
X245Y57D02*
X249Y57D01*
X264Y57D02*
X267Y57D01*
X270Y57D02*
X273Y57D01*
X279Y57D02*
X282Y57D01*
X285Y57D02*
X287Y57D01*
X294Y57D02*
X296Y57D01*
X300Y57D02*
X302Y57D01*
X308Y57D02*
X311Y57D01*
X314Y57D02*
X318Y57D01*
X321Y57D02*
X322Y57D01*
X326Y57D02*
X328Y57D01*
X332Y57D02*
X333Y57D01*
X338Y57D02*
X340Y57D01*
X343Y57D02*
X346Y57D01*
X352Y57D02*
X355Y57D01*
X358Y57D02*
X360Y57D01*
X367Y57D02*
X369Y57D01*
X373Y57D02*
X375Y57D01*
X192Y56D02*
X195Y56D01*
X200Y56D02*
X203Y56D01*
X208Y56D02*
X210Y56D01*
X216Y56D02*
X218Y56D01*
X223Y56D02*
X226Y56D01*
X231Y56D02*
X234Y56D01*
X238Y56D02*
X241Y56D01*
X246Y56D02*
X249Y56D01*
X264Y56D02*
X266Y56D01*
X272Y56D02*
X273Y56D01*
X279Y56D02*
X280Y56D01*
X286Y56D02*
X288Y56D01*
X293Y56D02*
X295Y56D01*
X301Y56D02*
X303Y56D01*
X308Y56D02*
X310Y56D01*
X316Y56D02*
X318Y56D01*
X321Y56D02*
X322Y56D01*
X326Y56D02*
X328Y56D01*
X332Y56D02*
X333Y56D01*
X337Y56D02*
X339Y56D01*
X345Y56D02*
X346Y56D01*
X352Y56D02*
X353Y56D01*
X359Y56D02*
X361Y56D01*
X366Y56D02*
X368Y56D01*
X374Y56D02*
X376Y56D01*
X192Y55D02*
X194Y55D01*
X201Y55D02*
X203Y55D01*
X207Y55D02*
X210Y55D01*
X216Y55D02*
X218Y55D01*
X223Y55D02*
X225Y55D01*
X231Y55D02*
X234Y55D01*
X238Y55D02*
X241Y55D01*
X247Y55D02*
X249Y55D01*
X264Y55D02*
X265Y55D01*
X272Y55D02*
X274Y55D01*
X279Y55D02*
X280Y55D01*
X287Y55D02*
X288Y55D01*
X293Y55D02*
X294Y55D01*
X301Y55D02*
X303Y55D01*
X308Y55D02*
X309Y55D01*
X316Y55D02*
X318Y55D01*
X321Y55D02*
X322Y55D01*
X326Y55D02*
X328Y55D01*
X332Y55D02*
X333Y55D01*
X337Y55D02*
X338Y55D01*
X345Y55D02*
X347Y55D01*
X352Y55D02*
X353Y55D01*
X360Y55D02*
X361Y55D01*
X366Y55D02*
X368Y55D01*
X374Y55D02*
X376Y55D01*
X192Y54D02*
X194Y54D01*
X201Y54D02*
X203Y54D01*
X207Y54D02*
X210Y54D01*
X216Y54D02*
X218Y54D01*
X223Y54D02*
X225Y54D01*
X229Y54D02*
X234Y54D01*
X238Y54D02*
X240Y54D01*
X247Y54D02*
X249Y54D01*
X264Y54D02*
X265Y54D01*
X272Y54D02*
X274Y54D01*
X278Y54D02*
X280Y54D01*
X287Y54D02*
X288Y54D01*
X293Y54D02*
X294Y54D01*
X302Y54D02*
X303Y54D01*
X308Y54D02*
X309Y54D01*
X316Y54D02*
X318Y54D01*
X321Y54D02*
X322Y54D01*
X326Y54D02*
X328Y54D01*
X332Y54D02*
X333Y54D01*
X337Y54D02*
X338Y54D01*
X345Y54D02*
X347Y54D01*
X351Y54D02*
X353Y54D01*
X360Y54D02*
X361Y54D01*
X366Y54D02*
X367Y54D01*
X374Y54D02*
X376Y54D01*
X192Y53D02*
X194Y53D01*
X201Y53D02*
X203Y53D01*
X207Y53D02*
X210Y53D01*
X216Y53D02*
X218Y53D01*
X223Y53D02*
X225Y53D01*
X227Y53D02*
X234Y53D01*
X238Y53D02*
X240Y53D01*
X247Y53D02*
X249Y53D01*
X264Y53D02*
X265Y53D01*
X272Y53D02*
X274Y53D01*
X285Y53D02*
X288Y53D01*
X293Y53D02*
X294Y53D01*
X308Y53D02*
X309Y53D01*
X316Y53D02*
X318Y53D01*
X321Y53D02*
X322Y53D01*
X326Y53D02*
X328Y53D01*
X332Y53D02*
X333Y53D01*
X343Y53D02*
X347Y53D01*
X351Y53D02*
X353Y53D01*
X366Y53D02*
X367Y53D01*
X372Y53D02*
X376Y53D01*
X192Y52D02*
X194Y52D01*
X201Y52D02*
X203Y52D01*
X207Y52D02*
X210Y52D01*
X216Y52D02*
X218Y52D01*
X223Y52D02*
X232Y52D01*
X238Y52D02*
X240Y52D01*
X247Y52D02*
X249Y52D01*
X264Y52D02*
X265Y52D01*
X272Y52D02*
X274Y52D01*
X282Y52D02*
X288Y52D01*
X293Y52D02*
X294Y52D01*
X308Y52D02*
X309Y52D01*
X316Y52D02*
X318Y52D01*
X321Y52D02*
X322Y52D01*
X326Y52D02*
X328Y52D01*
X332Y52D02*
X333Y52D01*
X341Y52D02*
X347Y52D01*
X351Y52D02*
X353Y52D01*
X366Y52D02*
X367Y52D01*
X370Y52D02*
X374Y52D01*
X192Y51D02*
X194Y51D01*
X201Y51D02*
X203Y51D01*
X207Y51D02*
X210Y51D01*
X216Y51D02*
X218Y51D01*
X223Y51D02*
X230Y51D01*
X238Y51D02*
X240Y51D01*
X247Y51D02*
X249Y51D01*
X264Y51D02*
X265Y51D01*
X272Y51D02*
X274Y51D01*
X280Y51D02*
X285Y51D01*
X287Y51D02*
X288Y51D01*
X293Y51D02*
X294Y51D01*
X308Y51D02*
X309Y51D01*
X316Y51D02*
X318Y51D01*
X321Y51D02*
X322Y51D01*
X326Y51D02*
X328Y51D01*
X332Y51D02*
X333Y51D01*
X339Y51D02*
X343Y51D01*
X345Y51D02*
X347Y51D01*
X351Y51D02*
X353Y51D01*
X366Y51D02*
X372Y51D01*
X192Y50D02*
X194Y50D01*
X201Y50D02*
X203Y50D01*
X207Y50D02*
X210Y50D01*
X216Y50D02*
X218Y50D01*
X223Y50D02*
X227Y50D01*
X232Y50D02*
X234Y50D01*
X238Y50D02*
X240Y50D01*
X247Y50D02*
X249Y50D01*
X264Y50D02*
X265Y50D01*
X272Y50D02*
X274Y50D01*
X279Y50D02*
X283Y50D01*
X287Y50D02*
X288Y50D01*
X293Y50D02*
X294Y50D01*
X308Y50D02*
X309Y50D01*
X316Y50D02*
X318Y50D01*
X321Y50D02*
X322Y50D01*
X326Y50D02*
X328Y50D01*
X332Y50D02*
X333Y50D01*
X337Y50D02*
X341Y50D01*
X345Y50D02*
X347Y50D01*
X351Y50D02*
X353Y50D01*
X366Y50D02*
X370Y50D01*
X192Y49D02*
X194Y49D01*
X201Y49D02*
X203Y49D01*
X207Y49D02*
X210Y49D01*
X216Y49D02*
X218Y49D01*
X223Y49D02*
X225Y49D01*
X231Y49D02*
X234Y49D01*
X238Y49D02*
X240Y49D01*
X247Y49D02*
X249Y49D01*
X264Y49D02*
X265Y49D01*
X272Y49D02*
X274Y49D01*
X278Y49D02*
X281Y49D01*
X287Y49D02*
X288Y49D01*
X293Y49D02*
X294Y49D01*
X308Y49D02*
X309Y49D01*
X316Y49D02*
X318Y49D01*
X321Y49D02*
X322Y49D01*
X326Y49D02*
X328Y49D01*
X332Y49D02*
X333Y49D01*
X337Y49D02*
X339Y49D01*
X345Y49D02*
X347Y49D01*
X351Y49D02*
X353Y49D01*
X366Y49D02*
X368Y49D01*
X375Y49D02*
X376Y49D01*
X192Y48D02*
X195Y48D01*
X200Y48D02*
X203Y48D01*
X207Y48D02*
X210Y48D01*
X216Y48D02*
X218Y48D01*
X223Y48D02*
X225Y48D01*
X231Y48D02*
X234Y48D01*
X238Y48D02*
X240Y48D01*
X247Y48D02*
X249Y48D01*
X264Y48D02*
X265Y48D01*
X272Y48D02*
X274Y48D01*
X278Y48D02*
X280Y48D01*
X287Y48D02*
X288Y48D01*
X293Y48D02*
X294Y48D01*
X308Y48D02*
X309Y48D01*
X316Y48D02*
X317Y48D01*
X321Y48D02*
X322Y48D01*
X326Y48D02*
X328Y48D01*
X332Y48D02*
X333Y48D01*
X337Y48D02*
X338Y48D01*
X345Y48D02*
X347Y48D01*
X351Y48D02*
X353Y48D01*
X366Y48D02*
X367Y48D01*
X375Y48D02*
X376Y48D01*
X192Y47D02*
X196Y47D01*
X200Y47D02*
X203Y47D01*
X207Y47D02*
X211Y47D01*
X215Y47D02*
X218Y47D01*
X223Y47D02*
X226Y47D01*
X230Y47D02*
X233Y47D01*
X238Y47D02*
X240Y47D01*
X247Y47D02*
X249Y47D01*
X264Y47D02*
X265Y47D01*
X272Y47D02*
X274Y47D01*
X278Y47D02*
X280Y47D01*
X287Y47D02*
X288Y47D01*
X293Y47D02*
X294Y47D01*
X308Y47D02*
X309Y47D01*
X316Y47D02*
X317Y47D01*
X321Y47D02*
X322Y47D01*
X326Y47D02*
X328Y47D01*
X332Y47D02*
X333Y47D01*
X337Y47D02*
X338Y47D01*
X345Y47D02*
X347Y47D01*
X351Y47D02*
X353Y47D01*
X366Y47D02*
X368Y47D01*
X374Y47D02*
X376Y47D01*
X193Y46D02*
X202Y46D01*
X207Y46D02*
X217Y46D01*
X224Y46D02*
X233Y46D01*
X238Y46D02*
X240Y46D01*
X247Y46D02*
X249Y46D01*
X264Y46D02*
X265Y46D01*
X272Y46D02*
X274Y46D01*
X279Y46D02*
X281Y46D01*
X287Y46D02*
X288Y46D01*
X293Y46D02*
X294Y46D01*
X308Y46D02*
X311Y46D01*
X315Y46D02*
X317Y46D01*
X321Y46D02*
X323Y46D01*
X326Y46D02*
X328Y46D01*
X332Y46D02*
X333Y46D01*
X337Y46D02*
X339Y46D01*
X345Y46D02*
X347Y46D01*
X351Y46D02*
X353Y46D01*
X367Y46D02*
X369Y46D01*
X373Y46D02*
X375Y46D01*
X194Y45D02*
X201Y45D01*
X207Y45D02*
X217Y45D01*
X225Y45D02*
X232Y45D01*
X238Y45D02*
X240Y45D01*
X247Y45D02*
X249Y45D01*
X264Y45D02*
X265Y45D01*
X272Y45D02*
X274Y45D01*
X279Y45D02*
X284Y45D01*
X287Y45D02*
X288Y45D01*
X293Y45D02*
X294Y45D01*
X309Y45D02*
X316Y45D01*
X322Y45D02*
X333Y45D01*
X338Y45D02*
X343Y45D01*
X345Y45D02*
X347Y45D01*
X351Y45D02*
X353Y45D01*
X367Y45D02*
X374Y45D01*
X195Y44D02*
X200Y44D01*
X207Y44D02*
X215Y44D01*
X226Y44D02*
X231Y44D01*
X238Y44D02*
X240Y44D01*
X247Y44D02*
X248Y44D01*
X264Y44D02*
X265Y44D01*
X272Y44D02*
X273Y44D01*
X281Y44D02*
X285Y44D01*
X287Y44D02*
X288Y44D01*
X293Y44D02*
X294Y44D01*
X310Y44D02*
X315Y44D01*
X322Y44D02*
X326Y44D01*
X328Y44D02*
X332Y44D01*
X339Y44D02*
X343Y44D01*
X345Y44D02*
X346Y44D01*
X351Y44D02*
X352Y44D01*
X369Y44D02*
X373Y44D01*
X207Y43D02*
X210Y43D01*
X207Y42D02*
X210Y42D01*
X207Y41D02*
X210Y41D01*
X207Y40D02*
X210Y40D01*
X207Y39D02*
X210Y39D01*
X207Y38D02*
X208Y38D01*
D02*
G04 End of Silk1*
M02*