G04 MADE WITH FRITZING*
G04 WWW.FRITZING.ORG*
G04 DOUBLE SIDED*
G04 HOLES PLATED*
G04 CONTOUR ON CENTER OF CONTOUR VECTOR*
%ASAXBY*%
%FSLAX23Y23*%
%MOIN*%
%OFA0B0*%
%SFA1.0B1.0*%
%ADD10C,0.075000*%
%ADD11C,0.077559*%
%ADD12C,0.110236*%
%ADD13C,0.024000*%
%LNCOPPER0*%
G90*
G70*
G54D10*
X2763Y802D03*
X3105Y963D03*
G54D11*
X357Y802D03*
X573Y802D03*
X357Y636D03*
X573Y636D03*
X357Y471D03*
X573Y471D03*
X357Y305D03*
X573Y305D03*
X2957Y802D03*
X3173Y802D03*
X2957Y636D03*
X3173Y636D03*
X2957Y471D03*
X3173Y471D03*
X2957Y305D03*
X3173Y305D03*
X2607Y286D03*
X2410Y286D03*
X2607Y786D03*
X2410Y786D03*
X2107Y286D03*
X1910Y286D03*
X2107Y786D03*
X1910Y786D03*
X1607Y286D03*
X1410Y286D03*
X1607Y786D03*
X1410Y786D03*
X1107Y286D03*
X910Y286D03*
X1107Y786D03*
X910Y786D03*
G54D12*
X3432Y111D03*
X107Y111D03*
X3432Y961D03*
X107Y961D03*
G54D13*
X1280Y888D02*
X708Y888D01*
D02*
X708Y888D02*
X602Y820D01*
D02*
X1386Y805D02*
X1280Y888D01*
D02*
X1730Y888D02*
X1630Y805D01*
D02*
X3057Y888D02*
X1730Y888D01*
D02*
X3146Y822D02*
X3057Y888D01*
D02*
X2390Y763D02*
X2283Y637D01*
D02*
X2283Y637D02*
X607Y636D01*
D02*
X3057Y711D02*
X2755Y711D01*
D02*
X2755Y711D02*
X2634Y773D01*
D02*
X3145Y655D02*
X3057Y711D01*
D02*
X1280Y460D02*
X607Y470D01*
D02*
X1392Y310D02*
X1280Y460D01*
D02*
X1730Y386D02*
X1630Y305D01*
D02*
X3057Y386D02*
X1730Y386D01*
D02*
X3146Y451D02*
X3057Y386D01*
D02*
X731Y161D02*
X598Y282D01*
D02*
X2283Y161D02*
X731Y161D01*
D02*
X2388Y265D02*
X2283Y161D01*
D02*
X3057Y161D02*
X2733Y161D01*
D02*
X2733Y161D02*
X2628Y265D01*
D02*
X3152Y279D02*
X3057Y161D01*
G36*
X2638Y855D02*
X2638Y835D01*
X2640Y835D01*
X2640Y833D01*
X2644Y833D01*
X2644Y831D01*
X2646Y831D01*
X2646Y829D01*
X2648Y829D01*
X2648Y827D01*
X2650Y827D01*
X2650Y825D01*
X2652Y825D01*
X2652Y821D01*
X2654Y821D01*
X2654Y819D01*
X2656Y819D01*
X2656Y817D01*
X2658Y817D01*
X2658Y813D01*
X2660Y813D01*
X2660Y809D01*
X2662Y809D01*
X2662Y803D01*
X2664Y803D01*
X2664Y793D01*
X2666Y793D01*
X2666Y791D01*
X2670Y791D01*
X2670Y789D01*
X2674Y789D01*
X2674Y787D01*
X2678Y787D01*
X2678Y785D01*
X2682Y785D01*
X2682Y783D01*
X2686Y783D01*
X2686Y781D01*
X2690Y781D01*
X2690Y779D01*
X2694Y779D01*
X2694Y777D01*
X2698Y777D01*
X2698Y775D01*
X2702Y775D01*
X2702Y773D01*
X2706Y773D01*
X2706Y771D01*
X2710Y771D01*
X2710Y769D01*
X2714Y769D01*
X2714Y767D01*
X2718Y767D01*
X2718Y765D01*
X2722Y765D01*
X2722Y763D01*
X2726Y763D01*
X2726Y761D01*
X2730Y761D01*
X2730Y759D01*
X2734Y759D01*
X2734Y757D01*
X2738Y757D01*
X2738Y755D01*
X2742Y755D01*
X2742Y753D01*
X2746Y753D01*
X2746Y751D01*
X2750Y751D01*
X2750Y749D01*
X2754Y749D01*
X2754Y747D01*
X2756Y747D01*
X2756Y745D01*
X2760Y745D01*
X2760Y743D01*
X2914Y743D01*
X2914Y763D01*
X2912Y763D01*
X2912Y765D01*
X2910Y765D01*
X2910Y767D01*
X2908Y767D01*
X2908Y771D01*
X2906Y771D01*
X2906Y773D01*
X2904Y773D01*
X2904Y777D01*
X2902Y777D01*
X2902Y783D01*
X2900Y783D01*
X2900Y791D01*
X2898Y791D01*
X2898Y811D01*
X2900Y811D01*
X2900Y821D01*
X2902Y821D01*
X2902Y825D01*
X2904Y825D01*
X2904Y829D01*
X2906Y829D01*
X2906Y833D01*
X2908Y833D01*
X2908Y835D01*
X2910Y835D01*
X2910Y855D01*
X2638Y855D01*
G37*
D02*
G36*
X40Y1035D02*
X40Y919D01*
X3068Y919D01*
X3068Y917D01*
X3072Y917D01*
X3072Y915D01*
X3076Y915D01*
X3076Y913D01*
X3078Y913D01*
X3078Y911D01*
X3082Y911D01*
X3082Y909D01*
X3084Y909D01*
X3084Y907D01*
X3086Y907D01*
X3086Y905D01*
X3090Y905D01*
X3090Y903D01*
X3092Y903D01*
X3092Y901D01*
X3094Y901D01*
X3094Y899D01*
X3098Y899D01*
X3098Y897D01*
X3100Y897D01*
X3100Y895D01*
X3102Y895D01*
X3102Y893D01*
X3106Y893D01*
X3106Y891D01*
X3108Y891D01*
X3108Y889D01*
X3110Y889D01*
X3110Y887D01*
X3114Y887D01*
X3114Y885D01*
X3116Y885D01*
X3116Y883D01*
X3118Y883D01*
X3118Y881D01*
X3122Y881D01*
X3122Y879D01*
X3124Y879D01*
X3124Y877D01*
X3126Y877D01*
X3126Y875D01*
X3130Y875D01*
X3130Y873D01*
X3132Y873D01*
X3132Y871D01*
X3134Y871D01*
X3134Y869D01*
X3138Y869D01*
X3138Y867D01*
X3140Y867D01*
X3140Y865D01*
X3142Y865D01*
X3142Y863D01*
X3146Y863D01*
X3146Y861D01*
X3178Y861D01*
X3178Y859D01*
X3188Y859D01*
X3188Y857D01*
X3196Y857D01*
X3196Y855D01*
X3200Y855D01*
X3200Y853D01*
X3204Y853D01*
X3204Y851D01*
X3206Y851D01*
X3206Y849D01*
X3208Y849D01*
X3208Y847D01*
X3212Y847D01*
X3212Y845D01*
X3214Y845D01*
X3214Y843D01*
X3216Y843D01*
X3216Y841D01*
X3218Y841D01*
X3218Y837D01*
X3220Y837D01*
X3220Y835D01*
X3222Y835D01*
X3222Y833D01*
X3224Y833D01*
X3224Y829D01*
X3226Y829D01*
X3226Y825D01*
X3228Y825D01*
X3228Y819D01*
X3230Y819D01*
X3230Y811D01*
X3232Y811D01*
X3232Y791D01*
X3230Y791D01*
X3230Y783D01*
X3228Y783D01*
X3228Y777D01*
X3226Y777D01*
X3226Y773D01*
X3224Y773D01*
X3224Y771D01*
X3222Y771D01*
X3222Y767D01*
X3220Y767D01*
X3220Y765D01*
X3218Y765D01*
X3218Y763D01*
X3216Y763D01*
X3216Y761D01*
X3214Y761D01*
X3214Y759D01*
X3212Y759D01*
X3212Y757D01*
X3210Y757D01*
X3210Y755D01*
X3208Y755D01*
X3208Y753D01*
X3204Y753D01*
X3204Y751D01*
X3202Y751D01*
X3202Y749D01*
X3198Y749D01*
X3198Y747D01*
X3192Y747D01*
X3192Y745D01*
X3184Y745D01*
X3184Y743D01*
X3514Y743D01*
X3514Y1035D01*
X40Y1035D01*
G37*
D02*
G36*
X40Y919D02*
X40Y861D01*
X578Y861D01*
X578Y859D01*
X606Y859D01*
X606Y861D01*
X608Y861D01*
X608Y863D01*
X612Y863D01*
X612Y865D01*
X614Y865D01*
X614Y867D01*
X618Y867D01*
X618Y869D01*
X622Y869D01*
X622Y871D01*
X624Y871D01*
X624Y873D01*
X628Y873D01*
X628Y875D01*
X630Y875D01*
X630Y877D01*
X634Y877D01*
X634Y879D01*
X636Y879D01*
X636Y881D01*
X640Y881D01*
X640Y883D01*
X642Y883D01*
X642Y885D01*
X646Y885D01*
X646Y887D01*
X650Y887D01*
X650Y889D01*
X652Y889D01*
X652Y891D01*
X656Y891D01*
X656Y893D01*
X658Y893D01*
X658Y895D01*
X662Y895D01*
X662Y897D01*
X664Y897D01*
X664Y899D01*
X668Y899D01*
X668Y901D01*
X672Y901D01*
X672Y903D01*
X674Y903D01*
X674Y905D01*
X678Y905D01*
X678Y907D01*
X680Y907D01*
X680Y909D01*
X684Y909D01*
X684Y911D01*
X686Y911D01*
X686Y913D01*
X690Y913D01*
X690Y915D01*
X694Y915D01*
X694Y917D01*
X698Y917D01*
X698Y919D01*
X40Y919D01*
G37*
D02*
G36*
X1290Y919D02*
X1290Y917D01*
X1296Y917D01*
X1296Y915D01*
X1298Y915D01*
X1298Y913D01*
X1302Y913D01*
X1302Y911D01*
X1304Y911D01*
X1304Y909D01*
X1306Y909D01*
X1306Y907D01*
X1308Y907D01*
X1308Y905D01*
X1312Y905D01*
X1312Y903D01*
X1314Y903D01*
X1314Y901D01*
X1316Y901D01*
X1316Y899D01*
X1320Y899D01*
X1320Y897D01*
X1322Y897D01*
X1322Y895D01*
X1324Y895D01*
X1324Y893D01*
X1326Y893D01*
X1326Y891D01*
X1330Y891D01*
X1330Y889D01*
X1332Y889D01*
X1332Y887D01*
X1334Y887D01*
X1334Y885D01*
X1336Y885D01*
X1336Y883D01*
X1340Y883D01*
X1340Y881D01*
X1342Y881D01*
X1342Y879D01*
X1344Y879D01*
X1344Y877D01*
X1348Y877D01*
X1348Y875D01*
X1350Y875D01*
X1350Y873D01*
X1352Y873D01*
X1352Y871D01*
X1354Y871D01*
X1354Y869D01*
X1358Y869D01*
X1358Y867D01*
X1360Y867D01*
X1360Y865D01*
X1362Y865D01*
X1362Y863D01*
X1364Y863D01*
X1364Y861D01*
X1368Y861D01*
X1368Y859D01*
X1370Y859D01*
X1370Y857D01*
X1372Y857D01*
X1372Y855D01*
X1376Y855D01*
X1376Y853D01*
X1378Y853D01*
X1378Y851D01*
X1380Y851D01*
X1380Y849D01*
X1382Y849D01*
X1382Y847D01*
X1386Y847D01*
X1386Y845D01*
X1420Y845D01*
X1420Y843D01*
X1428Y843D01*
X1428Y841D01*
X1434Y841D01*
X1434Y839D01*
X1438Y839D01*
X1438Y837D01*
X1440Y837D01*
X1440Y835D01*
X1444Y835D01*
X1444Y833D01*
X1446Y833D01*
X1446Y831D01*
X1448Y831D01*
X1448Y829D01*
X1452Y829D01*
X1452Y825D01*
X1454Y825D01*
X1454Y823D01*
X1456Y823D01*
X1456Y821D01*
X1458Y821D01*
X1458Y819D01*
X1460Y819D01*
X1460Y815D01*
X1462Y815D01*
X1462Y811D01*
X1464Y811D01*
X1464Y807D01*
X1466Y807D01*
X1466Y799D01*
X1468Y799D01*
X1468Y773D01*
X1466Y773D01*
X1466Y767D01*
X1464Y767D01*
X1464Y761D01*
X1462Y761D01*
X1462Y757D01*
X1460Y757D01*
X1460Y755D01*
X1458Y755D01*
X1458Y751D01*
X1456Y751D01*
X1456Y749D01*
X1454Y749D01*
X1454Y747D01*
X1452Y747D01*
X1452Y745D01*
X1450Y745D01*
X1450Y743D01*
X1448Y743D01*
X1448Y741D01*
X1446Y741D01*
X1446Y739D01*
X1444Y739D01*
X1444Y737D01*
X1440Y737D01*
X1440Y735D01*
X1436Y735D01*
X1436Y733D01*
X1432Y733D01*
X1432Y731D01*
X1426Y731D01*
X1426Y729D01*
X1416Y729D01*
X1416Y727D01*
X1600Y727D01*
X1600Y729D01*
X1590Y729D01*
X1590Y731D01*
X1584Y731D01*
X1584Y733D01*
X1580Y733D01*
X1580Y735D01*
X1576Y735D01*
X1576Y737D01*
X1574Y737D01*
X1574Y739D01*
X1570Y739D01*
X1570Y741D01*
X1568Y741D01*
X1568Y743D01*
X1566Y743D01*
X1566Y745D01*
X1564Y745D01*
X1564Y747D01*
X1562Y747D01*
X1562Y749D01*
X1560Y749D01*
X1560Y753D01*
X1558Y753D01*
X1558Y755D01*
X1556Y755D01*
X1556Y759D01*
X1554Y759D01*
X1554Y763D01*
X1552Y763D01*
X1552Y767D01*
X1550Y767D01*
X1550Y777D01*
X1548Y777D01*
X1548Y797D01*
X1550Y797D01*
X1550Y805D01*
X1552Y805D01*
X1552Y809D01*
X1554Y809D01*
X1554Y813D01*
X1556Y813D01*
X1556Y817D01*
X1558Y817D01*
X1558Y821D01*
X1560Y821D01*
X1560Y823D01*
X1562Y823D01*
X1562Y825D01*
X1564Y825D01*
X1564Y827D01*
X1566Y827D01*
X1566Y829D01*
X1568Y829D01*
X1568Y831D01*
X1570Y831D01*
X1570Y833D01*
X1572Y833D01*
X1572Y835D01*
X1576Y835D01*
X1576Y837D01*
X1580Y837D01*
X1580Y839D01*
X1584Y839D01*
X1584Y841D01*
X1588Y841D01*
X1588Y843D01*
X1598Y843D01*
X1598Y845D01*
X1630Y845D01*
X1630Y847D01*
X1632Y847D01*
X1632Y849D01*
X1634Y849D01*
X1634Y851D01*
X1636Y851D01*
X1636Y853D01*
X1638Y853D01*
X1638Y855D01*
X1642Y855D01*
X1642Y857D01*
X1644Y857D01*
X1644Y859D01*
X1646Y859D01*
X1646Y861D01*
X1648Y861D01*
X1648Y863D01*
X1650Y863D01*
X1650Y865D01*
X1654Y865D01*
X1654Y867D01*
X1656Y867D01*
X1656Y869D01*
X1658Y869D01*
X1658Y871D01*
X1660Y871D01*
X1660Y873D01*
X1664Y873D01*
X1664Y875D01*
X1666Y875D01*
X1666Y877D01*
X1668Y877D01*
X1668Y879D01*
X1670Y879D01*
X1670Y881D01*
X1672Y881D01*
X1672Y883D01*
X1676Y883D01*
X1676Y885D01*
X1678Y885D01*
X1678Y887D01*
X1680Y887D01*
X1680Y889D01*
X1682Y889D01*
X1682Y891D01*
X1686Y891D01*
X1686Y893D01*
X1688Y893D01*
X1688Y895D01*
X1690Y895D01*
X1690Y897D01*
X1692Y897D01*
X1692Y899D01*
X1694Y899D01*
X1694Y901D01*
X1698Y901D01*
X1698Y903D01*
X1700Y903D01*
X1700Y905D01*
X1702Y905D01*
X1702Y907D01*
X1704Y907D01*
X1704Y909D01*
X1706Y909D01*
X1706Y911D01*
X1710Y911D01*
X1710Y913D01*
X1712Y913D01*
X1712Y915D01*
X1716Y915D01*
X1716Y917D01*
X1720Y917D01*
X1720Y919D01*
X1290Y919D01*
G37*
D02*
G36*
X40Y861D02*
X40Y743D01*
X346Y743D01*
X346Y745D01*
X338Y745D01*
X338Y747D01*
X332Y747D01*
X332Y749D01*
X328Y749D01*
X328Y751D01*
X326Y751D01*
X326Y753D01*
X322Y753D01*
X322Y755D01*
X320Y755D01*
X320Y757D01*
X318Y757D01*
X318Y759D01*
X316Y759D01*
X316Y761D01*
X314Y761D01*
X314Y763D01*
X312Y763D01*
X312Y765D01*
X310Y765D01*
X310Y767D01*
X308Y767D01*
X308Y771D01*
X306Y771D01*
X306Y773D01*
X304Y773D01*
X304Y777D01*
X302Y777D01*
X302Y783D01*
X300Y783D01*
X300Y791D01*
X298Y791D01*
X298Y811D01*
X300Y811D01*
X300Y821D01*
X302Y821D01*
X302Y825D01*
X304Y825D01*
X304Y829D01*
X306Y829D01*
X306Y833D01*
X308Y833D01*
X308Y835D01*
X310Y835D01*
X310Y837D01*
X312Y837D01*
X312Y841D01*
X314Y841D01*
X314Y843D01*
X316Y843D01*
X316Y845D01*
X318Y845D01*
X318Y847D01*
X322Y847D01*
X322Y849D01*
X324Y849D01*
X324Y851D01*
X326Y851D01*
X326Y853D01*
X330Y853D01*
X330Y855D01*
X334Y855D01*
X334Y857D01*
X340Y857D01*
X340Y859D01*
X352Y859D01*
X352Y861D01*
X40Y861D01*
G37*
D02*
G36*
X362Y861D02*
X362Y859D01*
X372Y859D01*
X372Y857D01*
X378Y857D01*
X378Y855D01*
X382Y855D01*
X382Y853D01*
X386Y853D01*
X386Y851D01*
X390Y851D01*
X390Y849D01*
X392Y849D01*
X392Y847D01*
X394Y847D01*
X394Y845D01*
X398Y845D01*
X398Y843D01*
X400Y843D01*
X400Y839D01*
X402Y839D01*
X402Y837D01*
X404Y837D01*
X404Y835D01*
X406Y835D01*
X406Y831D01*
X408Y831D01*
X408Y829D01*
X410Y829D01*
X410Y823D01*
X412Y823D01*
X412Y819D01*
X414Y819D01*
X414Y809D01*
X416Y809D01*
X416Y795D01*
X414Y795D01*
X414Y785D01*
X412Y785D01*
X412Y779D01*
X410Y779D01*
X410Y775D01*
X408Y775D01*
X408Y771D01*
X406Y771D01*
X406Y769D01*
X404Y769D01*
X404Y765D01*
X402Y765D01*
X402Y763D01*
X400Y763D01*
X400Y761D01*
X398Y761D01*
X398Y759D01*
X396Y759D01*
X396Y757D01*
X394Y757D01*
X394Y755D01*
X390Y755D01*
X390Y753D01*
X388Y753D01*
X388Y751D01*
X384Y751D01*
X384Y749D01*
X380Y749D01*
X380Y747D01*
X376Y747D01*
X376Y745D01*
X368Y745D01*
X368Y743D01*
X562Y743D01*
X562Y745D01*
X554Y745D01*
X554Y747D01*
X550Y747D01*
X550Y749D01*
X546Y749D01*
X546Y751D01*
X542Y751D01*
X542Y753D01*
X540Y753D01*
X540Y755D01*
X536Y755D01*
X536Y757D01*
X534Y757D01*
X534Y759D01*
X532Y759D01*
X532Y761D01*
X530Y761D01*
X530Y763D01*
X528Y763D01*
X528Y765D01*
X526Y765D01*
X526Y769D01*
X524Y769D01*
X524Y771D01*
X522Y771D01*
X522Y775D01*
X520Y775D01*
X520Y779D01*
X518Y779D01*
X518Y785D01*
X516Y785D01*
X516Y795D01*
X514Y795D01*
X514Y809D01*
X516Y809D01*
X516Y819D01*
X518Y819D01*
X518Y825D01*
X520Y825D01*
X520Y829D01*
X522Y829D01*
X522Y831D01*
X524Y831D01*
X524Y835D01*
X526Y835D01*
X526Y837D01*
X528Y837D01*
X528Y839D01*
X530Y839D01*
X530Y843D01*
X532Y843D01*
X532Y845D01*
X536Y845D01*
X536Y847D01*
X538Y847D01*
X538Y849D01*
X540Y849D01*
X540Y851D01*
X544Y851D01*
X544Y853D01*
X546Y853D01*
X546Y855D01*
X552Y855D01*
X552Y857D01*
X558Y857D01*
X558Y859D01*
X568Y859D01*
X568Y861D01*
X362Y861D01*
G37*
D02*
G36*
X3148Y861D02*
X3148Y859D01*
X3168Y859D01*
X3168Y861D01*
X3148Y861D01*
G37*
D02*
G36*
X714Y855D02*
X714Y853D01*
X712Y853D01*
X712Y851D01*
X708Y851D01*
X708Y849D01*
X706Y849D01*
X706Y847D01*
X702Y847D01*
X702Y845D01*
X700Y845D01*
X700Y843D01*
X696Y843D01*
X696Y841D01*
X694Y841D01*
X694Y839D01*
X690Y839D01*
X690Y837D01*
X686Y837D01*
X686Y835D01*
X684Y835D01*
X684Y833D01*
X680Y833D01*
X680Y831D01*
X678Y831D01*
X678Y829D01*
X674Y829D01*
X674Y827D01*
X672Y827D01*
X672Y825D01*
X668Y825D01*
X668Y823D01*
X664Y823D01*
X664Y821D01*
X662Y821D01*
X662Y819D01*
X658Y819D01*
X658Y817D01*
X656Y817D01*
X656Y815D01*
X652Y815D01*
X652Y813D01*
X650Y813D01*
X650Y811D01*
X646Y811D01*
X646Y809D01*
X642Y809D01*
X642Y807D01*
X640Y807D01*
X640Y805D01*
X636Y805D01*
X636Y803D01*
X634Y803D01*
X634Y801D01*
X632Y801D01*
X632Y791D01*
X630Y791D01*
X630Y783D01*
X628Y783D01*
X628Y777D01*
X626Y777D01*
X626Y773D01*
X624Y773D01*
X624Y771D01*
X622Y771D01*
X622Y767D01*
X620Y767D01*
X620Y765D01*
X618Y765D01*
X618Y763D01*
X616Y763D01*
X616Y761D01*
X614Y761D01*
X614Y759D01*
X612Y759D01*
X612Y757D01*
X610Y757D01*
X610Y755D01*
X608Y755D01*
X608Y753D01*
X604Y753D01*
X604Y751D01*
X602Y751D01*
X602Y749D01*
X598Y749D01*
X598Y747D01*
X592Y747D01*
X592Y745D01*
X584Y745D01*
X584Y743D01*
X870Y743D01*
X870Y745D01*
X868Y745D01*
X868Y747D01*
X866Y747D01*
X866Y749D01*
X864Y749D01*
X864Y751D01*
X862Y751D01*
X862Y753D01*
X860Y753D01*
X860Y757D01*
X858Y757D01*
X858Y761D01*
X856Y761D01*
X856Y765D01*
X854Y765D01*
X854Y773D01*
X852Y773D01*
X852Y801D01*
X854Y801D01*
X854Y807D01*
X856Y807D01*
X856Y811D01*
X858Y811D01*
X858Y815D01*
X860Y815D01*
X860Y819D01*
X862Y819D01*
X862Y821D01*
X864Y821D01*
X864Y823D01*
X866Y823D01*
X866Y827D01*
X868Y827D01*
X868Y829D01*
X872Y829D01*
X872Y831D01*
X874Y831D01*
X874Y833D01*
X876Y833D01*
X876Y835D01*
X878Y835D01*
X878Y855D01*
X714Y855D01*
G37*
D02*
G36*
X940Y855D02*
X940Y835D01*
X944Y835D01*
X944Y833D01*
X946Y833D01*
X946Y831D01*
X948Y831D01*
X948Y829D01*
X952Y829D01*
X952Y825D01*
X954Y825D01*
X954Y823D01*
X956Y823D01*
X956Y821D01*
X958Y821D01*
X958Y819D01*
X960Y819D01*
X960Y815D01*
X962Y815D01*
X962Y811D01*
X964Y811D01*
X964Y807D01*
X966Y807D01*
X966Y799D01*
X968Y799D01*
X968Y773D01*
X966Y773D01*
X966Y767D01*
X964Y767D01*
X964Y761D01*
X962Y761D01*
X962Y757D01*
X960Y757D01*
X960Y755D01*
X958Y755D01*
X958Y751D01*
X956Y751D01*
X956Y749D01*
X954Y749D01*
X954Y747D01*
X952Y747D01*
X952Y745D01*
X950Y745D01*
X950Y743D01*
X948Y743D01*
X948Y741D01*
X946Y741D01*
X946Y739D01*
X944Y739D01*
X944Y737D01*
X940Y737D01*
X940Y735D01*
X936Y735D01*
X936Y733D01*
X932Y733D01*
X932Y731D01*
X926Y731D01*
X926Y729D01*
X916Y729D01*
X916Y727D01*
X1100Y727D01*
X1100Y729D01*
X1090Y729D01*
X1090Y731D01*
X1084Y731D01*
X1084Y733D01*
X1080Y733D01*
X1080Y735D01*
X1076Y735D01*
X1076Y737D01*
X1074Y737D01*
X1074Y739D01*
X1070Y739D01*
X1070Y741D01*
X1068Y741D01*
X1068Y743D01*
X1066Y743D01*
X1066Y745D01*
X1064Y745D01*
X1064Y747D01*
X1062Y747D01*
X1062Y749D01*
X1060Y749D01*
X1060Y753D01*
X1058Y753D01*
X1058Y755D01*
X1056Y755D01*
X1056Y759D01*
X1054Y759D01*
X1054Y763D01*
X1052Y763D01*
X1052Y767D01*
X1050Y767D01*
X1050Y777D01*
X1048Y777D01*
X1048Y797D01*
X1050Y797D01*
X1050Y805D01*
X1052Y805D01*
X1052Y809D01*
X1054Y809D01*
X1054Y813D01*
X1056Y813D01*
X1056Y817D01*
X1058Y817D01*
X1058Y821D01*
X1060Y821D01*
X1060Y823D01*
X1062Y823D01*
X1062Y825D01*
X1064Y825D01*
X1064Y827D01*
X1066Y827D01*
X1066Y829D01*
X1068Y829D01*
X1068Y831D01*
X1070Y831D01*
X1070Y833D01*
X1072Y833D01*
X1072Y835D01*
X1076Y835D01*
X1076Y855D01*
X940Y855D01*
G37*
D02*
G36*
X1138Y855D02*
X1138Y835D01*
X1140Y835D01*
X1140Y833D01*
X1144Y833D01*
X1144Y831D01*
X1146Y831D01*
X1146Y829D01*
X1148Y829D01*
X1148Y827D01*
X1150Y827D01*
X1150Y825D01*
X1152Y825D01*
X1152Y821D01*
X1154Y821D01*
X1154Y819D01*
X1156Y819D01*
X1156Y817D01*
X1158Y817D01*
X1158Y813D01*
X1160Y813D01*
X1160Y809D01*
X1162Y809D01*
X1162Y803D01*
X1164Y803D01*
X1164Y793D01*
X1166Y793D01*
X1166Y779D01*
X1164Y779D01*
X1164Y769D01*
X1162Y769D01*
X1162Y763D01*
X1160Y763D01*
X1160Y759D01*
X1158Y759D01*
X1158Y757D01*
X1156Y757D01*
X1156Y753D01*
X1154Y753D01*
X1154Y751D01*
X1152Y751D01*
X1152Y749D01*
X1150Y749D01*
X1150Y745D01*
X1148Y745D01*
X1148Y743D01*
X1146Y743D01*
X1146Y741D01*
X1142Y741D01*
X1142Y739D01*
X1140Y739D01*
X1140Y737D01*
X1136Y737D01*
X1136Y735D01*
X1134Y735D01*
X1134Y733D01*
X1130Y733D01*
X1130Y731D01*
X1124Y731D01*
X1124Y729D01*
X1114Y729D01*
X1114Y727D01*
X1402Y727D01*
X1402Y729D01*
X1392Y729D01*
X1392Y731D01*
X1388Y731D01*
X1388Y733D01*
X1384Y733D01*
X1384Y735D01*
X1380Y735D01*
X1380Y737D01*
X1376Y737D01*
X1376Y739D01*
X1374Y739D01*
X1374Y741D01*
X1372Y741D01*
X1372Y743D01*
X1370Y743D01*
X1370Y745D01*
X1368Y745D01*
X1368Y747D01*
X1366Y747D01*
X1366Y749D01*
X1364Y749D01*
X1364Y751D01*
X1362Y751D01*
X1362Y753D01*
X1360Y753D01*
X1360Y757D01*
X1358Y757D01*
X1358Y761D01*
X1356Y761D01*
X1356Y765D01*
X1354Y765D01*
X1354Y773D01*
X1352Y773D01*
X1352Y791D01*
X1350Y791D01*
X1350Y793D01*
X1348Y793D01*
X1348Y795D01*
X1346Y795D01*
X1346Y797D01*
X1342Y797D01*
X1342Y799D01*
X1340Y799D01*
X1340Y801D01*
X1338Y801D01*
X1338Y803D01*
X1336Y803D01*
X1336Y805D01*
X1332Y805D01*
X1332Y807D01*
X1330Y807D01*
X1330Y809D01*
X1328Y809D01*
X1328Y811D01*
X1326Y811D01*
X1326Y813D01*
X1322Y813D01*
X1322Y815D01*
X1320Y815D01*
X1320Y817D01*
X1318Y817D01*
X1318Y819D01*
X1314Y819D01*
X1314Y821D01*
X1312Y821D01*
X1312Y823D01*
X1310Y823D01*
X1310Y825D01*
X1308Y825D01*
X1308Y827D01*
X1304Y827D01*
X1304Y829D01*
X1302Y829D01*
X1302Y831D01*
X1300Y831D01*
X1300Y833D01*
X1296Y833D01*
X1296Y835D01*
X1294Y835D01*
X1294Y837D01*
X1292Y837D01*
X1292Y839D01*
X1290Y839D01*
X1290Y841D01*
X1286Y841D01*
X1286Y843D01*
X1284Y843D01*
X1284Y845D01*
X1282Y845D01*
X1282Y847D01*
X1280Y847D01*
X1280Y849D01*
X1276Y849D01*
X1276Y851D01*
X1274Y851D01*
X1274Y853D01*
X1272Y853D01*
X1272Y855D01*
X1138Y855D01*
G37*
D02*
G36*
X1740Y855D02*
X1740Y853D01*
X1738Y853D01*
X1738Y851D01*
X1734Y851D01*
X1734Y849D01*
X1732Y849D01*
X1732Y847D01*
X1730Y847D01*
X1730Y845D01*
X1728Y845D01*
X1728Y843D01*
X1726Y843D01*
X1726Y841D01*
X1722Y841D01*
X1722Y839D01*
X1720Y839D01*
X1720Y837D01*
X1718Y837D01*
X1718Y835D01*
X1716Y835D01*
X1716Y833D01*
X1712Y833D01*
X1712Y831D01*
X1710Y831D01*
X1710Y829D01*
X1708Y829D01*
X1708Y827D01*
X1706Y827D01*
X1706Y825D01*
X1704Y825D01*
X1704Y823D01*
X1700Y823D01*
X1700Y821D01*
X1698Y821D01*
X1698Y819D01*
X1696Y819D01*
X1696Y817D01*
X1694Y817D01*
X1694Y815D01*
X1690Y815D01*
X1690Y813D01*
X1688Y813D01*
X1688Y811D01*
X1686Y811D01*
X1686Y809D01*
X1684Y809D01*
X1684Y807D01*
X1682Y807D01*
X1682Y805D01*
X1678Y805D01*
X1678Y803D01*
X1676Y803D01*
X1676Y801D01*
X1674Y801D01*
X1674Y799D01*
X1672Y799D01*
X1672Y797D01*
X1670Y797D01*
X1670Y795D01*
X1666Y795D01*
X1666Y779D01*
X1664Y779D01*
X1664Y769D01*
X1662Y769D01*
X1662Y763D01*
X1660Y763D01*
X1660Y759D01*
X1658Y759D01*
X1658Y757D01*
X1656Y757D01*
X1656Y753D01*
X1654Y753D01*
X1654Y751D01*
X1652Y751D01*
X1652Y749D01*
X1650Y749D01*
X1650Y745D01*
X1648Y745D01*
X1648Y743D01*
X1646Y743D01*
X1646Y741D01*
X1642Y741D01*
X1642Y739D01*
X1640Y739D01*
X1640Y737D01*
X1636Y737D01*
X1636Y735D01*
X1634Y735D01*
X1634Y733D01*
X1630Y733D01*
X1630Y731D01*
X1624Y731D01*
X1624Y729D01*
X1614Y729D01*
X1614Y727D01*
X1902Y727D01*
X1902Y729D01*
X1892Y729D01*
X1892Y731D01*
X1888Y731D01*
X1888Y733D01*
X1884Y733D01*
X1884Y735D01*
X1880Y735D01*
X1880Y737D01*
X1876Y737D01*
X1876Y739D01*
X1874Y739D01*
X1874Y741D01*
X1872Y741D01*
X1872Y743D01*
X1870Y743D01*
X1870Y745D01*
X1868Y745D01*
X1868Y747D01*
X1866Y747D01*
X1866Y749D01*
X1864Y749D01*
X1864Y751D01*
X1862Y751D01*
X1862Y753D01*
X1860Y753D01*
X1860Y757D01*
X1858Y757D01*
X1858Y761D01*
X1856Y761D01*
X1856Y765D01*
X1854Y765D01*
X1854Y773D01*
X1852Y773D01*
X1852Y801D01*
X1854Y801D01*
X1854Y807D01*
X1856Y807D01*
X1856Y811D01*
X1858Y811D01*
X1858Y815D01*
X1860Y815D01*
X1860Y819D01*
X1862Y819D01*
X1862Y821D01*
X1864Y821D01*
X1864Y823D01*
X1866Y823D01*
X1866Y827D01*
X1868Y827D01*
X1868Y829D01*
X1872Y829D01*
X1872Y831D01*
X1874Y831D01*
X1874Y833D01*
X1876Y833D01*
X1876Y835D01*
X1878Y835D01*
X1878Y855D01*
X1740Y855D01*
G37*
D02*
G36*
X1940Y855D02*
X1940Y835D01*
X1944Y835D01*
X1944Y833D01*
X1946Y833D01*
X1946Y831D01*
X1948Y831D01*
X1948Y829D01*
X1952Y829D01*
X1952Y825D01*
X1954Y825D01*
X1954Y823D01*
X1956Y823D01*
X1956Y821D01*
X1958Y821D01*
X1958Y819D01*
X1960Y819D01*
X1960Y815D01*
X1962Y815D01*
X1962Y811D01*
X1964Y811D01*
X1964Y807D01*
X1966Y807D01*
X1966Y799D01*
X1968Y799D01*
X1968Y773D01*
X1966Y773D01*
X1966Y767D01*
X1964Y767D01*
X1964Y761D01*
X1962Y761D01*
X1962Y757D01*
X1960Y757D01*
X1960Y755D01*
X1958Y755D01*
X1958Y751D01*
X1956Y751D01*
X1956Y749D01*
X1954Y749D01*
X1954Y747D01*
X1952Y747D01*
X1952Y745D01*
X1950Y745D01*
X1950Y743D01*
X1948Y743D01*
X1948Y741D01*
X1946Y741D01*
X1946Y739D01*
X1944Y739D01*
X1944Y737D01*
X1940Y737D01*
X1940Y735D01*
X1936Y735D01*
X1936Y733D01*
X1932Y733D01*
X1932Y731D01*
X1926Y731D01*
X1926Y729D01*
X1916Y729D01*
X1916Y727D01*
X2100Y727D01*
X2100Y729D01*
X2090Y729D01*
X2090Y731D01*
X2084Y731D01*
X2084Y733D01*
X2080Y733D01*
X2080Y735D01*
X2076Y735D01*
X2076Y737D01*
X2074Y737D01*
X2074Y739D01*
X2070Y739D01*
X2070Y741D01*
X2068Y741D01*
X2068Y743D01*
X2066Y743D01*
X2066Y745D01*
X2064Y745D01*
X2064Y747D01*
X2062Y747D01*
X2062Y749D01*
X2060Y749D01*
X2060Y753D01*
X2058Y753D01*
X2058Y755D01*
X2056Y755D01*
X2056Y759D01*
X2054Y759D01*
X2054Y763D01*
X2052Y763D01*
X2052Y767D01*
X2050Y767D01*
X2050Y777D01*
X2048Y777D01*
X2048Y797D01*
X2050Y797D01*
X2050Y805D01*
X2052Y805D01*
X2052Y809D01*
X2054Y809D01*
X2054Y813D01*
X2056Y813D01*
X2056Y817D01*
X2058Y817D01*
X2058Y821D01*
X2060Y821D01*
X2060Y823D01*
X2062Y823D01*
X2062Y825D01*
X2064Y825D01*
X2064Y827D01*
X2066Y827D01*
X2066Y829D01*
X2068Y829D01*
X2068Y831D01*
X2070Y831D01*
X2070Y833D01*
X2072Y833D01*
X2072Y835D01*
X2076Y835D01*
X2076Y855D01*
X1940Y855D01*
G37*
D02*
G36*
X2138Y855D02*
X2138Y835D01*
X2140Y835D01*
X2140Y833D01*
X2144Y833D01*
X2144Y831D01*
X2146Y831D01*
X2146Y829D01*
X2148Y829D01*
X2148Y827D01*
X2150Y827D01*
X2150Y825D01*
X2152Y825D01*
X2152Y821D01*
X2154Y821D01*
X2154Y819D01*
X2156Y819D01*
X2156Y817D01*
X2158Y817D01*
X2158Y813D01*
X2160Y813D01*
X2160Y809D01*
X2162Y809D01*
X2162Y803D01*
X2164Y803D01*
X2164Y793D01*
X2166Y793D01*
X2166Y779D01*
X2164Y779D01*
X2164Y769D01*
X2162Y769D01*
X2162Y763D01*
X2160Y763D01*
X2160Y759D01*
X2158Y759D01*
X2158Y757D01*
X2156Y757D01*
X2156Y753D01*
X2154Y753D01*
X2154Y751D01*
X2152Y751D01*
X2152Y749D01*
X2150Y749D01*
X2150Y745D01*
X2148Y745D01*
X2148Y743D01*
X2146Y743D01*
X2146Y741D01*
X2142Y741D01*
X2142Y739D01*
X2140Y739D01*
X2140Y737D01*
X2136Y737D01*
X2136Y735D01*
X2134Y735D01*
X2134Y733D01*
X2130Y733D01*
X2130Y731D01*
X2124Y731D01*
X2124Y729D01*
X2114Y729D01*
X2114Y727D01*
X2318Y727D01*
X2318Y729D01*
X2320Y729D01*
X2320Y731D01*
X2322Y731D01*
X2322Y733D01*
X2324Y733D01*
X2324Y735D01*
X2326Y735D01*
X2326Y739D01*
X2328Y739D01*
X2328Y741D01*
X2330Y741D01*
X2330Y743D01*
X2332Y743D01*
X2332Y745D01*
X2334Y745D01*
X2334Y747D01*
X2336Y747D01*
X2336Y749D01*
X2338Y749D01*
X2338Y753D01*
X2340Y753D01*
X2340Y755D01*
X2342Y755D01*
X2342Y757D01*
X2344Y757D01*
X2344Y759D01*
X2346Y759D01*
X2346Y761D01*
X2348Y761D01*
X2348Y765D01*
X2350Y765D01*
X2350Y767D01*
X2352Y767D01*
X2352Y801D01*
X2354Y801D01*
X2354Y807D01*
X2356Y807D01*
X2356Y811D01*
X2358Y811D01*
X2358Y815D01*
X2360Y815D01*
X2360Y819D01*
X2362Y819D01*
X2362Y821D01*
X2364Y821D01*
X2364Y823D01*
X2366Y823D01*
X2366Y827D01*
X2368Y827D01*
X2368Y829D01*
X2372Y829D01*
X2372Y831D01*
X2374Y831D01*
X2374Y833D01*
X2376Y833D01*
X2376Y835D01*
X2378Y835D01*
X2378Y855D01*
X2138Y855D01*
G37*
D02*
G36*
X2440Y855D02*
X2440Y835D01*
X2444Y835D01*
X2444Y833D01*
X2446Y833D01*
X2446Y831D01*
X2448Y831D01*
X2448Y829D01*
X2452Y829D01*
X2452Y825D01*
X2454Y825D01*
X2454Y823D01*
X2456Y823D01*
X2456Y821D01*
X2458Y821D01*
X2458Y819D01*
X2460Y819D01*
X2460Y815D01*
X2462Y815D01*
X2462Y811D01*
X2464Y811D01*
X2464Y807D01*
X2466Y807D01*
X2466Y799D01*
X2468Y799D01*
X2468Y773D01*
X2466Y773D01*
X2466Y767D01*
X2464Y767D01*
X2464Y761D01*
X2462Y761D01*
X2462Y757D01*
X2460Y757D01*
X2460Y755D01*
X2458Y755D01*
X2458Y751D01*
X2456Y751D01*
X2456Y749D01*
X2454Y749D01*
X2454Y747D01*
X2452Y747D01*
X2452Y745D01*
X2450Y745D01*
X2450Y743D01*
X2448Y743D01*
X2448Y741D01*
X2446Y741D01*
X2446Y739D01*
X2444Y739D01*
X2444Y737D01*
X2440Y737D01*
X2440Y735D01*
X2436Y735D01*
X2436Y733D01*
X2432Y733D01*
X2432Y731D01*
X2426Y731D01*
X2426Y729D01*
X2416Y729D01*
X2416Y727D01*
X2600Y727D01*
X2600Y729D01*
X2590Y729D01*
X2590Y731D01*
X2584Y731D01*
X2584Y733D01*
X2580Y733D01*
X2580Y735D01*
X2576Y735D01*
X2576Y737D01*
X2574Y737D01*
X2574Y739D01*
X2570Y739D01*
X2570Y741D01*
X2568Y741D01*
X2568Y743D01*
X2566Y743D01*
X2566Y745D01*
X2564Y745D01*
X2564Y747D01*
X2562Y747D01*
X2562Y749D01*
X2560Y749D01*
X2560Y753D01*
X2558Y753D01*
X2558Y755D01*
X2556Y755D01*
X2556Y759D01*
X2554Y759D01*
X2554Y763D01*
X2552Y763D01*
X2552Y767D01*
X2550Y767D01*
X2550Y777D01*
X2548Y777D01*
X2548Y797D01*
X2550Y797D01*
X2550Y805D01*
X2552Y805D01*
X2552Y809D01*
X2554Y809D01*
X2554Y813D01*
X2556Y813D01*
X2556Y817D01*
X2558Y817D01*
X2558Y821D01*
X2560Y821D01*
X2560Y823D01*
X2562Y823D01*
X2562Y825D01*
X2564Y825D01*
X2564Y827D01*
X2566Y827D01*
X2566Y829D01*
X2568Y829D01*
X2568Y831D01*
X2570Y831D01*
X2570Y833D01*
X2572Y833D01*
X2572Y835D01*
X2576Y835D01*
X2576Y855D01*
X2440Y855D01*
G37*
D02*
G36*
X3004Y855D02*
X3004Y835D01*
X3006Y835D01*
X3006Y831D01*
X3008Y831D01*
X3008Y829D01*
X3010Y829D01*
X3010Y823D01*
X3012Y823D01*
X3012Y817D01*
X3014Y817D01*
X3014Y809D01*
X3016Y809D01*
X3016Y795D01*
X3014Y795D01*
X3014Y785D01*
X3012Y785D01*
X3012Y779D01*
X3010Y779D01*
X3010Y775D01*
X3008Y775D01*
X3008Y771D01*
X3006Y771D01*
X3006Y769D01*
X3004Y769D01*
X3004Y765D01*
X3002Y765D01*
X3002Y763D01*
X3000Y763D01*
X3000Y743D01*
X3162Y743D01*
X3162Y745D01*
X3154Y745D01*
X3154Y747D01*
X3150Y747D01*
X3150Y749D01*
X3146Y749D01*
X3146Y751D01*
X3142Y751D01*
X3142Y753D01*
X3140Y753D01*
X3140Y755D01*
X3136Y755D01*
X3136Y757D01*
X3134Y757D01*
X3134Y759D01*
X3132Y759D01*
X3132Y761D01*
X3130Y761D01*
X3130Y763D01*
X3128Y763D01*
X3128Y765D01*
X3126Y765D01*
X3126Y769D01*
X3124Y769D01*
X3124Y771D01*
X3122Y771D01*
X3122Y775D01*
X3120Y775D01*
X3120Y779D01*
X3118Y779D01*
X3118Y785D01*
X3116Y785D01*
X3116Y795D01*
X3114Y795D01*
X3114Y807D01*
X3110Y807D01*
X3110Y809D01*
X3108Y809D01*
X3108Y811D01*
X3106Y811D01*
X3106Y813D01*
X3102Y813D01*
X3102Y815D01*
X3100Y815D01*
X3100Y817D01*
X3098Y817D01*
X3098Y819D01*
X3094Y819D01*
X3094Y821D01*
X3092Y821D01*
X3092Y823D01*
X3090Y823D01*
X3090Y825D01*
X3086Y825D01*
X3086Y827D01*
X3084Y827D01*
X3084Y829D01*
X3082Y829D01*
X3082Y831D01*
X3078Y831D01*
X3078Y833D01*
X3076Y833D01*
X3076Y835D01*
X3074Y835D01*
X3074Y837D01*
X3070Y837D01*
X3070Y839D01*
X3068Y839D01*
X3068Y841D01*
X3066Y841D01*
X3066Y843D01*
X3062Y843D01*
X3062Y845D01*
X3060Y845D01*
X3060Y847D01*
X3058Y847D01*
X3058Y849D01*
X3054Y849D01*
X3054Y851D01*
X3052Y851D01*
X3052Y853D01*
X3050Y853D01*
X3050Y855D01*
X3004Y855D01*
G37*
D02*
G36*
X40Y743D02*
X40Y741D01*
X872Y741D01*
X872Y743D01*
X40Y743D01*
G37*
D02*
G36*
X40Y743D02*
X40Y741D01*
X872Y741D01*
X872Y743D01*
X40Y743D01*
G37*
D02*
G36*
X40Y743D02*
X40Y741D01*
X872Y741D01*
X872Y743D01*
X40Y743D01*
G37*
D02*
G36*
X3064Y743D02*
X3064Y741D01*
X3514Y741D01*
X3514Y743D01*
X3064Y743D01*
G37*
D02*
G36*
X3064Y743D02*
X3064Y741D01*
X3514Y741D01*
X3514Y743D01*
X3064Y743D01*
G37*
D02*
G36*
X40Y741D02*
X40Y727D01*
X902Y727D01*
X902Y729D01*
X892Y729D01*
X892Y731D01*
X888Y731D01*
X888Y733D01*
X884Y733D01*
X884Y735D01*
X880Y735D01*
X880Y737D01*
X876Y737D01*
X876Y739D01*
X874Y739D01*
X874Y741D01*
X40Y741D01*
G37*
D02*
G36*
X3070Y741D02*
X3070Y739D01*
X3074Y739D01*
X3074Y737D01*
X3078Y737D01*
X3078Y735D01*
X3080Y735D01*
X3080Y733D01*
X3084Y733D01*
X3084Y731D01*
X3086Y731D01*
X3086Y729D01*
X3090Y729D01*
X3090Y727D01*
X3094Y727D01*
X3094Y725D01*
X3096Y725D01*
X3096Y723D01*
X3100Y723D01*
X3100Y721D01*
X3102Y721D01*
X3102Y719D01*
X3106Y719D01*
X3106Y717D01*
X3108Y717D01*
X3108Y715D01*
X3112Y715D01*
X3112Y713D01*
X3114Y713D01*
X3114Y711D01*
X3118Y711D01*
X3118Y709D01*
X3122Y709D01*
X3122Y707D01*
X3124Y707D01*
X3124Y705D01*
X3128Y705D01*
X3128Y703D01*
X3130Y703D01*
X3130Y701D01*
X3134Y701D01*
X3134Y699D01*
X3136Y699D01*
X3136Y697D01*
X3140Y697D01*
X3140Y695D01*
X3182Y695D01*
X3182Y693D01*
X3192Y693D01*
X3192Y691D01*
X3196Y691D01*
X3196Y689D01*
X3200Y689D01*
X3200Y687D01*
X3204Y687D01*
X3204Y685D01*
X3208Y685D01*
X3208Y683D01*
X3210Y683D01*
X3210Y681D01*
X3212Y681D01*
X3212Y679D01*
X3214Y679D01*
X3214Y677D01*
X3216Y677D01*
X3216Y675D01*
X3218Y675D01*
X3218Y673D01*
X3220Y673D01*
X3220Y671D01*
X3222Y671D01*
X3222Y667D01*
X3224Y667D01*
X3224Y663D01*
X3226Y663D01*
X3226Y659D01*
X3228Y659D01*
X3228Y655D01*
X3230Y655D01*
X3230Y647D01*
X3232Y647D01*
X3232Y627D01*
X3230Y627D01*
X3230Y617D01*
X3228Y617D01*
X3228Y613D01*
X3226Y613D01*
X3226Y609D01*
X3224Y609D01*
X3224Y605D01*
X3222Y605D01*
X3222Y603D01*
X3220Y603D01*
X3220Y599D01*
X3218Y599D01*
X3218Y597D01*
X3216Y597D01*
X3216Y595D01*
X3214Y595D01*
X3214Y593D01*
X3212Y593D01*
X3212Y591D01*
X3210Y591D01*
X3210Y589D01*
X3206Y589D01*
X3206Y587D01*
X3204Y587D01*
X3204Y585D01*
X3200Y585D01*
X3200Y583D01*
X3196Y583D01*
X3196Y581D01*
X3190Y581D01*
X3190Y579D01*
X3180Y579D01*
X3180Y577D01*
X3514Y577D01*
X3514Y741D01*
X3070Y741D01*
G37*
D02*
G36*
X2624Y731D02*
X2624Y729D01*
X2614Y729D01*
X2614Y727D01*
X2650Y727D01*
X2650Y729D01*
X2646Y729D01*
X2646Y731D01*
X2624Y731D01*
G37*
D02*
G36*
X40Y727D02*
X40Y725D01*
X2316Y725D01*
X2316Y727D01*
X40Y727D01*
G37*
D02*
G36*
X40Y727D02*
X40Y725D01*
X2316Y725D01*
X2316Y727D01*
X40Y727D01*
G37*
D02*
G36*
X40Y727D02*
X40Y725D01*
X2316Y725D01*
X2316Y727D01*
X40Y727D01*
G37*
D02*
G36*
X40Y727D02*
X40Y725D01*
X2316Y725D01*
X2316Y727D01*
X40Y727D01*
G37*
D02*
G36*
X40Y727D02*
X40Y725D01*
X2316Y725D01*
X2316Y727D01*
X40Y727D01*
G37*
D02*
G36*
X40Y727D02*
X40Y725D01*
X2316Y725D01*
X2316Y727D01*
X40Y727D01*
G37*
D02*
G36*
X40Y727D02*
X40Y725D01*
X2316Y725D01*
X2316Y727D01*
X40Y727D01*
G37*
D02*
G36*
X2400Y727D02*
X2400Y725D01*
X2654Y725D01*
X2654Y727D01*
X2400Y727D01*
G37*
D02*
G36*
X2400Y727D02*
X2400Y725D01*
X2654Y725D01*
X2654Y727D01*
X2400Y727D01*
G37*
D02*
G36*
X40Y725D02*
X40Y695D01*
X582Y695D01*
X582Y693D01*
X592Y693D01*
X592Y691D01*
X596Y691D01*
X596Y689D01*
X600Y689D01*
X600Y687D01*
X604Y687D01*
X604Y685D01*
X608Y685D01*
X608Y683D01*
X610Y683D01*
X610Y681D01*
X612Y681D01*
X612Y679D01*
X614Y679D01*
X614Y677D01*
X616Y677D01*
X616Y675D01*
X618Y675D01*
X618Y673D01*
X620Y673D01*
X620Y671D01*
X622Y671D01*
X622Y669D01*
X2268Y669D01*
X2268Y671D01*
X2270Y671D01*
X2270Y673D01*
X2272Y673D01*
X2272Y675D01*
X2274Y675D01*
X2274Y677D01*
X2276Y677D01*
X2276Y679D01*
X2278Y679D01*
X2278Y681D01*
X2280Y681D01*
X2280Y685D01*
X2282Y685D01*
X2282Y687D01*
X2284Y687D01*
X2284Y689D01*
X2286Y689D01*
X2286Y691D01*
X2288Y691D01*
X2288Y693D01*
X2290Y693D01*
X2290Y695D01*
X2292Y695D01*
X2292Y699D01*
X2294Y699D01*
X2294Y701D01*
X2296Y701D01*
X2296Y703D01*
X2298Y703D01*
X2298Y705D01*
X2300Y705D01*
X2300Y707D01*
X2302Y707D01*
X2302Y711D01*
X2304Y711D01*
X2304Y713D01*
X2306Y713D01*
X2306Y715D01*
X2308Y715D01*
X2308Y717D01*
X2310Y717D01*
X2310Y719D01*
X2312Y719D01*
X2312Y721D01*
X2314Y721D01*
X2314Y725D01*
X40Y725D01*
G37*
D02*
G36*
X2398Y725D02*
X2398Y721D01*
X2396Y721D01*
X2396Y719D01*
X2394Y719D01*
X2394Y717D01*
X2392Y717D01*
X2392Y715D01*
X2390Y715D01*
X2390Y713D01*
X2388Y713D01*
X2388Y709D01*
X2386Y709D01*
X2386Y707D01*
X2384Y707D01*
X2384Y705D01*
X2382Y705D01*
X2382Y703D01*
X2380Y703D01*
X2380Y701D01*
X2378Y701D01*
X2378Y699D01*
X2376Y699D01*
X2376Y695D01*
X2374Y695D01*
X2374Y693D01*
X2372Y693D01*
X2372Y691D01*
X2370Y691D01*
X2370Y689D01*
X2368Y689D01*
X2368Y687D01*
X2366Y687D01*
X2366Y685D01*
X2364Y685D01*
X2364Y681D01*
X2362Y681D01*
X2362Y679D01*
X2360Y679D01*
X2360Y677D01*
X2358Y677D01*
X2358Y675D01*
X2356Y675D01*
X2356Y673D01*
X2354Y673D01*
X2354Y669D01*
X2352Y669D01*
X2352Y667D01*
X2350Y667D01*
X2350Y665D01*
X2348Y665D01*
X2348Y663D01*
X2346Y663D01*
X2346Y661D01*
X2344Y661D01*
X2344Y659D01*
X2342Y659D01*
X2342Y655D01*
X2340Y655D01*
X2340Y653D01*
X2338Y653D01*
X2338Y651D01*
X2336Y651D01*
X2336Y649D01*
X2334Y649D01*
X2334Y647D01*
X2332Y647D01*
X2332Y645D01*
X2330Y645D01*
X2330Y641D01*
X2328Y641D01*
X2328Y639D01*
X2326Y639D01*
X2326Y637D01*
X2324Y637D01*
X2324Y635D01*
X2322Y635D01*
X2322Y633D01*
X2320Y633D01*
X2320Y631D01*
X2318Y631D01*
X2318Y627D01*
X2316Y627D01*
X2316Y625D01*
X2314Y625D01*
X2314Y623D01*
X2312Y623D01*
X2312Y621D01*
X2310Y621D01*
X2310Y619D01*
X2308Y619D01*
X2308Y617D01*
X2306Y617D01*
X2306Y613D01*
X2302Y613D01*
X2302Y611D01*
X2300Y611D01*
X2300Y609D01*
X2296Y609D01*
X2296Y607D01*
X2290Y607D01*
X2290Y605D01*
X622Y605D01*
X622Y603D01*
X620Y603D01*
X620Y599D01*
X618Y599D01*
X618Y597D01*
X616Y597D01*
X616Y595D01*
X614Y595D01*
X614Y593D01*
X612Y593D01*
X612Y591D01*
X610Y591D01*
X610Y589D01*
X606Y589D01*
X606Y587D01*
X604Y587D01*
X604Y585D01*
X600Y585D01*
X600Y583D01*
X596Y583D01*
X596Y581D01*
X590Y581D01*
X590Y579D01*
X580Y579D01*
X580Y577D01*
X2950Y577D01*
X2950Y579D01*
X2940Y579D01*
X2940Y581D01*
X2934Y581D01*
X2934Y583D01*
X2930Y583D01*
X2930Y585D01*
X2926Y585D01*
X2926Y587D01*
X2924Y587D01*
X2924Y589D01*
X2920Y589D01*
X2920Y591D01*
X2918Y591D01*
X2918Y593D01*
X2916Y593D01*
X2916Y595D01*
X2914Y595D01*
X2914Y597D01*
X2912Y597D01*
X2912Y599D01*
X2910Y599D01*
X2910Y603D01*
X2908Y603D01*
X2908Y605D01*
X2906Y605D01*
X2906Y609D01*
X2904Y609D01*
X2904Y613D01*
X2902Y613D01*
X2902Y617D01*
X2900Y617D01*
X2900Y625D01*
X2898Y625D01*
X2898Y647D01*
X2900Y647D01*
X2900Y655D01*
X2902Y655D01*
X2902Y659D01*
X2904Y659D01*
X2904Y679D01*
X2748Y679D01*
X2748Y681D01*
X2742Y681D01*
X2742Y683D01*
X2738Y683D01*
X2738Y685D01*
X2734Y685D01*
X2734Y687D01*
X2730Y687D01*
X2730Y689D01*
X2726Y689D01*
X2726Y691D01*
X2722Y691D01*
X2722Y693D01*
X2718Y693D01*
X2718Y695D01*
X2714Y695D01*
X2714Y697D01*
X2710Y697D01*
X2710Y699D01*
X2706Y699D01*
X2706Y701D01*
X2702Y701D01*
X2702Y703D01*
X2698Y703D01*
X2698Y705D01*
X2694Y705D01*
X2694Y707D01*
X2690Y707D01*
X2690Y709D01*
X2686Y709D01*
X2686Y711D01*
X2682Y711D01*
X2682Y713D01*
X2678Y713D01*
X2678Y715D01*
X2674Y715D01*
X2674Y717D01*
X2670Y717D01*
X2670Y719D01*
X2666Y719D01*
X2666Y721D01*
X2662Y721D01*
X2662Y723D01*
X2658Y723D01*
X2658Y725D01*
X2398Y725D01*
G37*
D02*
G36*
X40Y695D02*
X40Y577D01*
X350Y577D01*
X350Y579D01*
X340Y579D01*
X340Y581D01*
X334Y581D01*
X334Y583D01*
X330Y583D01*
X330Y585D01*
X326Y585D01*
X326Y587D01*
X324Y587D01*
X324Y589D01*
X320Y589D01*
X320Y591D01*
X318Y591D01*
X318Y593D01*
X316Y593D01*
X316Y595D01*
X314Y595D01*
X314Y597D01*
X312Y597D01*
X312Y599D01*
X310Y599D01*
X310Y603D01*
X308Y603D01*
X308Y605D01*
X306Y605D01*
X306Y609D01*
X304Y609D01*
X304Y613D01*
X302Y613D01*
X302Y617D01*
X300Y617D01*
X300Y625D01*
X298Y625D01*
X298Y647D01*
X300Y647D01*
X300Y655D01*
X302Y655D01*
X302Y659D01*
X304Y659D01*
X304Y663D01*
X306Y663D01*
X306Y667D01*
X308Y667D01*
X308Y671D01*
X310Y671D01*
X310Y673D01*
X312Y673D01*
X312Y675D01*
X314Y675D01*
X314Y677D01*
X316Y677D01*
X316Y679D01*
X318Y679D01*
X318Y681D01*
X320Y681D01*
X320Y683D01*
X322Y683D01*
X322Y685D01*
X326Y685D01*
X326Y687D01*
X330Y687D01*
X330Y689D01*
X334Y689D01*
X334Y691D01*
X338Y691D01*
X338Y693D01*
X348Y693D01*
X348Y695D01*
X40Y695D01*
G37*
D02*
G36*
X366Y695D02*
X366Y693D01*
X374Y693D01*
X374Y691D01*
X380Y691D01*
X380Y689D01*
X384Y689D01*
X384Y687D01*
X388Y687D01*
X388Y685D01*
X390Y685D01*
X390Y683D01*
X394Y683D01*
X394Y681D01*
X396Y681D01*
X396Y679D01*
X398Y679D01*
X398Y677D01*
X400Y677D01*
X400Y675D01*
X402Y675D01*
X402Y671D01*
X404Y671D01*
X404Y669D01*
X406Y669D01*
X406Y667D01*
X408Y667D01*
X408Y663D01*
X410Y663D01*
X410Y659D01*
X412Y659D01*
X412Y653D01*
X414Y653D01*
X414Y643D01*
X416Y643D01*
X416Y629D01*
X414Y629D01*
X414Y619D01*
X412Y619D01*
X412Y613D01*
X410Y613D01*
X410Y609D01*
X408Y609D01*
X408Y607D01*
X406Y607D01*
X406Y603D01*
X404Y603D01*
X404Y601D01*
X402Y601D01*
X402Y599D01*
X400Y599D01*
X400Y595D01*
X398Y595D01*
X398Y593D01*
X396Y593D01*
X396Y591D01*
X392Y591D01*
X392Y589D01*
X390Y589D01*
X390Y587D01*
X386Y587D01*
X386Y585D01*
X384Y585D01*
X384Y583D01*
X380Y583D01*
X380Y581D01*
X374Y581D01*
X374Y579D01*
X364Y579D01*
X364Y577D01*
X566Y577D01*
X566Y579D01*
X556Y579D01*
X556Y581D01*
X550Y581D01*
X550Y583D01*
X546Y583D01*
X546Y585D01*
X542Y585D01*
X542Y587D01*
X540Y587D01*
X540Y589D01*
X538Y589D01*
X538Y591D01*
X534Y591D01*
X534Y593D01*
X532Y593D01*
X532Y595D01*
X530Y595D01*
X530Y597D01*
X528Y597D01*
X528Y601D01*
X526Y601D01*
X526Y603D01*
X524Y603D01*
X524Y605D01*
X522Y605D01*
X522Y609D01*
X520Y609D01*
X520Y613D01*
X518Y613D01*
X518Y619D01*
X516Y619D01*
X516Y629D01*
X514Y629D01*
X514Y643D01*
X516Y643D01*
X516Y653D01*
X518Y653D01*
X518Y659D01*
X520Y659D01*
X520Y663D01*
X522Y663D01*
X522Y667D01*
X524Y667D01*
X524Y669D01*
X526Y669D01*
X526Y671D01*
X528Y671D01*
X528Y675D01*
X530Y675D01*
X530Y677D01*
X532Y677D01*
X532Y679D01*
X534Y679D01*
X534Y681D01*
X536Y681D01*
X536Y683D01*
X540Y683D01*
X540Y685D01*
X542Y685D01*
X542Y687D01*
X546Y687D01*
X546Y689D01*
X550Y689D01*
X550Y691D01*
X556Y691D01*
X556Y693D01*
X564Y693D01*
X564Y695D01*
X366Y695D01*
G37*
D02*
G36*
X3142Y695D02*
X3142Y693D01*
X3164Y693D01*
X3164Y695D01*
X3142Y695D01*
G37*
D02*
G36*
X3010Y679D02*
X3010Y659D01*
X3012Y659D01*
X3012Y653D01*
X3014Y653D01*
X3014Y643D01*
X3016Y643D01*
X3016Y629D01*
X3014Y629D01*
X3014Y619D01*
X3012Y619D01*
X3012Y613D01*
X3010Y613D01*
X3010Y609D01*
X3008Y609D01*
X3008Y607D01*
X3006Y607D01*
X3006Y603D01*
X3004Y603D01*
X3004Y601D01*
X3002Y601D01*
X3002Y599D01*
X3000Y599D01*
X3000Y595D01*
X2998Y595D01*
X2998Y593D01*
X2996Y593D01*
X2996Y591D01*
X2992Y591D01*
X2992Y589D01*
X2990Y589D01*
X2990Y587D01*
X2986Y587D01*
X2986Y585D01*
X2984Y585D01*
X2984Y583D01*
X2980Y583D01*
X2980Y581D01*
X2974Y581D01*
X2974Y579D01*
X2964Y579D01*
X2964Y577D01*
X3166Y577D01*
X3166Y579D01*
X3156Y579D01*
X3156Y581D01*
X3150Y581D01*
X3150Y583D01*
X3146Y583D01*
X3146Y585D01*
X3142Y585D01*
X3142Y587D01*
X3140Y587D01*
X3140Y589D01*
X3138Y589D01*
X3138Y591D01*
X3134Y591D01*
X3134Y593D01*
X3132Y593D01*
X3132Y595D01*
X3130Y595D01*
X3130Y597D01*
X3128Y597D01*
X3128Y601D01*
X3126Y601D01*
X3126Y603D01*
X3124Y603D01*
X3124Y605D01*
X3122Y605D01*
X3122Y609D01*
X3120Y609D01*
X3120Y613D01*
X3118Y613D01*
X3118Y619D01*
X3116Y619D01*
X3116Y629D01*
X3114Y629D01*
X3114Y637D01*
X3112Y637D01*
X3112Y639D01*
X3108Y639D01*
X3108Y641D01*
X3106Y641D01*
X3106Y643D01*
X3102Y643D01*
X3102Y645D01*
X3100Y645D01*
X3100Y647D01*
X3096Y647D01*
X3096Y649D01*
X3092Y649D01*
X3092Y651D01*
X3090Y651D01*
X3090Y653D01*
X3086Y653D01*
X3086Y655D01*
X3084Y655D01*
X3084Y657D01*
X3080Y657D01*
X3080Y659D01*
X3078Y659D01*
X3078Y661D01*
X3074Y661D01*
X3074Y663D01*
X3072Y663D01*
X3072Y665D01*
X3068Y665D01*
X3068Y667D01*
X3064Y667D01*
X3064Y669D01*
X3062Y669D01*
X3062Y671D01*
X3058Y671D01*
X3058Y673D01*
X3056Y673D01*
X3056Y675D01*
X3052Y675D01*
X3052Y677D01*
X3050Y677D01*
X3050Y679D01*
X3010Y679D01*
G37*
D02*
G36*
X40Y577D02*
X40Y575D01*
X3514Y575D01*
X3514Y577D01*
X40Y577D01*
G37*
D02*
G36*
X40Y577D02*
X40Y575D01*
X3514Y575D01*
X3514Y577D01*
X40Y577D01*
G37*
D02*
G36*
X40Y577D02*
X40Y575D01*
X3514Y575D01*
X3514Y577D01*
X40Y577D01*
G37*
D02*
G36*
X40Y577D02*
X40Y575D01*
X3514Y575D01*
X3514Y577D01*
X40Y577D01*
G37*
D02*
G36*
X40Y577D02*
X40Y575D01*
X3514Y575D01*
X3514Y577D01*
X40Y577D01*
G37*
D02*
G36*
X40Y575D02*
X40Y529D01*
X3186Y529D01*
X3186Y527D01*
X3194Y527D01*
X3194Y525D01*
X3198Y525D01*
X3198Y523D01*
X3202Y523D01*
X3202Y521D01*
X3206Y521D01*
X3206Y519D01*
X3208Y519D01*
X3208Y517D01*
X3210Y517D01*
X3210Y515D01*
X3212Y515D01*
X3212Y513D01*
X3216Y513D01*
X3216Y509D01*
X3218Y509D01*
X3218Y507D01*
X3220Y507D01*
X3220Y505D01*
X3222Y505D01*
X3222Y501D01*
X3224Y501D01*
X3224Y499D01*
X3226Y499D01*
X3226Y495D01*
X3228Y495D01*
X3228Y489D01*
X3230Y489D01*
X3230Y481D01*
X3232Y481D01*
X3232Y461D01*
X3230Y461D01*
X3230Y453D01*
X3228Y453D01*
X3228Y447D01*
X3226Y447D01*
X3226Y443D01*
X3224Y443D01*
X3224Y439D01*
X3222Y439D01*
X3222Y437D01*
X3220Y437D01*
X3220Y435D01*
X3218Y435D01*
X3218Y431D01*
X3216Y431D01*
X3216Y429D01*
X3214Y429D01*
X3214Y427D01*
X3210Y427D01*
X3210Y425D01*
X3208Y425D01*
X3208Y423D01*
X3206Y423D01*
X3206Y421D01*
X3202Y421D01*
X3202Y419D01*
X3198Y419D01*
X3198Y417D01*
X3194Y417D01*
X3194Y415D01*
X3188Y415D01*
X3188Y413D01*
X3146Y413D01*
X3146Y411D01*
X3144Y411D01*
X3144Y409D01*
X3142Y409D01*
X3142Y407D01*
X3138Y407D01*
X3138Y405D01*
X3136Y405D01*
X3136Y403D01*
X3134Y403D01*
X3134Y401D01*
X3130Y401D01*
X3130Y399D01*
X3128Y399D01*
X3128Y397D01*
X3124Y397D01*
X3124Y395D01*
X3122Y395D01*
X3122Y393D01*
X3120Y393D01*
X3120Y391D01*
X3116Y391D01*
X3116Y389D01*
X3114Y389D01*
X3114Y387D01*
X3112Y387D01*
X3112Y385D01*
X3108Y385D01*
X3108Y383D01*
X3106Y383D01*
X3106Y381D01*
X3102Y381D01*
X3102Y379D01*
X3100Y379D01*
X3100Y377D01*
X3098Y377D01*
X3098Y375D01*
X3094Y375D01*
X3094Y373D01*
X3092Y373D01*
X3092Y371D01*
X3090Y371D01*
X3090Y369D01*
X3086Y369D01*
X3086Y367D01*
X3084Y367D01*
X3084Y365D01*
X3178Y365D01*
X3178Y363D01*
X3188Y363D01*
X3188Y361D01*
X3196Y361D01*
X3196Y359D01*
X3200Y359D01*
X3200Y357D01*
X3202Y357D01*
X3202Y355D01*
X3206Y355D01*
X3206Y353D01*
X3208Y353D01*
X3208Y351D01*
X3212Y351D01*
X3212Y349D01*
X3214Y349D01*
X3214Y347D01*
X3216Y347D01*
X3216Y345D01*
X3218Y345D01*
X3218Y341D01*
X3220Y341D01*
X3220Y339D01*
X3222Y339D01*
X3222Y337D01*
X3224Y337D01*
X3224Y333D01*
X3226Y333D01*
X3226Y329D01*
X3228Y329D01*
X3228Y323D01*
X3230Y323D01*
X3230Y315D01*
X3232Y315D01*
X3232Y295D01*
X3230Y295D01*
X3230Y287D01*
X3228Y287D01*
X3228Y281D01*
X3226Y281D01*
X3226Y277D01*
X3224Y277D01*
X3224Y275D01*
X3222Y275D01*
X3222Y271D01*
X3220Y271D01*
X3220Y269D01*
X3218Y269D01*
X3218Y267D01*
X3216Y267D01*
X3216Y265D01*
X3214Y265D01*
X3214Y263D01*
X3212Y263D01*
X3212Y261D01*
X3210Y261D01*
X3210Y259D01*
X3208Y259D01*
X3208Y257D01*
X3204Y257D01*
X3204Y255D01*
X3202Y255D01*
X3202Y253D01*
X3198Y253D01*
X3198Y251D01*
X3192Y251D01*
X3192Y249D01*
X3184Y249D01*
X3184Y247D01*
X3166Y247D01*
X3166Y245D01*
X3164Y245D01*
X3164Y241D01*
X3162Y241D01*
X3162Y239D01*
X3160Y239D01*
X3160Y237D01*
X3158Y237D01*
X3158Y235D01*
X3156Y235D01*
X3156Y231D01*
X3154Y231D01*
X3154Y229D01*
X3152Y229D01*
X3152Y227D01*
X3150Y227D01*
X3150Y225D01*
X3148Y225D01*
X3148Y221D01*
X3146Y221D01*
X3146Y219D01*
X3144Y219D01*
X3144Y217D01*
X3142Y217D01*
X3142Y215D01*
X3140Y215D01*
X3140Y211D01*
X3138Y211D01*
X3138Y209D01*
X3136Y209D01*
X3136Y207D01*
X3134Y207D01*
X3134Y205D01*
X3132Y205D01*
X3132Y201D01*
X3130Y201D01*
X3130Y199D01*
X3128Y199D01*
X3128Y197D01*
X3126Y197D01*
X3126Y195D01*
X3124Y195D01*
X3124Y191D01*
X3122Y191D01*
X3122Y189D01*
X3120Y189D01*
X3120Y187D01*
X3118Y187D01*
X3118Y185D01*
X3116Y185D01*
X3116Y181D01*
X3114Y181D01*
X3114Y179D01*
X3112Y179D01*
X3112Y177D01*
X3110Y177D01*
X3110Y175D01*
X3108Y175D01*
X3108Y173D01*
X3106Y173D01*
X3106Y169D01*
X3104Y169D01*
X3104Y167D01*
X3102Y167D01*
X3102Y165D01*
X3100Y165D01*
X3100Y163D01*
X3098Y163D01*
X3098Y159D01*
X3096Y159D01*
X3096Y157D01*
X3094Y157D01*
X3094Y155D01*
X3092Y155D01*
X3092Y153D01*
X3090Y153D01*
X3090Y149D01*
X3088Y149D01*
X3088Y147D01*
X3086Y147D01*
X3086Y145D01*
X3084Y145D01*
X3084Y143D01*
X3082Y143D01*
X3082Y139D01*
X3080Y139D01*
X3080Y137D01*
X3076Y137D01*
X3076Y135D01*
X3074Y135D01*
X3074Y133D01*
X3070Y133D01*
X3070Y131D01*
X3064Y131D01*
X3064Y129D01*
X3514Y129D01*
X3514Y575D01*
X40Y575D01*
G37*
D02*
G36*
X40Y529D02*
X40Y413D01*
X342Y413D01*
X342Y415D01*
X336Y415D01*
X336Y417D01*
X332Y417D01*
X332Y419D01*
X328Y419D01*
X328Y421D01*
X324Y421D01*
X324Y423D01*
X322Y423D01*
X322Y425D01*
X320Y425D01*
X320Y427D01*
X316Y427D01*
X316Y429D01*
X314Y429D01*
X314Y431D01*
X312Y431D01*
X312Y435D01*
X310Y435D01*
X310Y437D01*
X308Y437D01*
X308Y439D01*
X306Y439D01*
X306Y443D01*
X304Y443D01*
X304Y447D01*
X302Y447D01*
X302Y453D01*
X300Y453D01*
X300Y461D01*
X298Y461D01*
X298Y481D01*
X300Y481D01*
X300Y489D01*
X302Y489D01*
X302Y495D01*
X304Y495D01*
X304Y499D01*
X306Y499D01*
X306Y501D01*
X308Y501D01*
X308Y505D01*
X310Y505D01*
X310Y507D01*
X312Y507D01*
X312Y509D01*
X314Y509D01*
X314Y513D01*
X318Y513D01*
X318Y515D01*
X320Y515D01*
X320Y517D01*
X322Y517D01*
X322Y519D01*
X324Y519D01*
X324Y521D01*
X328Y521D01*
X328Y523D01*
X332Y523D01*
X332Y525D01*
X336Y525D01*
X336Y527D01*
X344Y527D01*
X344Y529D01*
X40Y529D01*
G37*
D02*
G36*
X370Y529D02*
X370Y527D01*
X376Y527D01*
X376Y525D01*
X382Y525D01*
X382Y523D01*
X386Y523D01*
X386Y521D01*
X388Y521D01*
X388Y519D01*
X392Y519D01*
X392Y517D01*
X394Y517D01*
X394Y515D01*
X396Y515D01*
X396Y513D01*
X398Y513D01*
X398Y511D01*
X400Y511D01*
X400Y509D01*
X402Y509D01*
X402Y507D01*
X404Y507D01*
X404Y505D01*
X406Y505D01*
X406Y501D01*
X408Y501D01*
X408Y497D01*
X410Y497D01*
X410Y493D01*
X412Y493D01*
X412Y487D01*
X414Y487D01*
X414Y477D01*
X416Y477D01*
X416Y465D01*
X414Y465D01*
X414Y455D01*
X412Y455D01*
X412Y449D01*
X410Y449D01*
X410Y445D01*
X408Y445D01*
X408Y441D01*
X406Y441D01*
X406Y437D01*
X404Y437D01*
X404Y435D01*
X402Y435D01*
X402Y433D01*
X400Y433D01*
X400Y431D01*
X398Y431D01*
X398Y429D01*
X396Y429D01*
X396Y427D01*
X394Y427D01*
X394Y425D01*
X392Y425D01*
X392Y423D01*
X390Y423D01*
X390Y421D01*
X386Y421D01*
X386Y419D01*
X382Y419D01*
X382Y417D01*
X378Y417D01*
X378Y415D01*
X372Y415D01*
X372Y413D01*
X558Y413D01*
X558Y415D01*
X552Y415D01*
X552Y417D01*
X548Y417D01*
X548Y419D01*
X544Y419D01*
X544Y421D01*
X540Y421D01*
X540Y423D01*
X538Y423D01*
X538Y425D01*
X536Y425D01*
X536Y427D01*
X534Y427D01*
X534Y429D01*
X532Y429D01*
X532Y431D01*
X530Y431D01*
X530Y433D01*
X528Y433D01*
X528Y435D01*
X526Y435D01*
X526Y437D01*
X524Y437D01*
X524Y441D01*
X522Y441D01*
X522Y445D01*
X520Y445D01*
X520Y449D01*
X518Y449D01*
X518Y455D01*
X516Y455D01*
X516Y463D01*
X514Y463D01*
X514Y477D01*
X516Y477D01*
X516Y487D01*
X518Y487D01*
X518Y493D01*
X520Y493D01*
X520Y497D01*
X522Y497D01*
X522Y501D01*
X524Y501D01*
X524Y505D01*
X526Y505D01*
X526Y507D01*
X528Y507D01*
X528Y509D01*
X530Y509D01*
X530Y511D01*
X532Y511D01*
X532Y513D01*
X534Y513D01*
X534Y515D01*
X536Y515D01*
X536Y517D01*
X538Y517D01*
X538Y519D01*
X542Y519D01*
X542Y521D01*
X544Y521D01*
X544Y523D01*
X548Y523D01*
X548Y525D01*
X554Y525D01*
X554Y527D01*
X560Y527D01*
X560Y529D01*
X370Y529D01*
G37*
D02*
G36*
X586Y529D02*
X586Y527D01*
X594Y527D01*
X594Y525D01*
X598Y525D01*
X598Y523D01*
X602Y523D01*
X602Y521D01*
X606Y521D01*
X606Y519D01*
X608Y519D01*
X608Y517D01*
X610Y517D01*
X610Y515D01*
X612Y515D01*
X612Y513D01*
X616Y513D01*
X616Y509D01*
X618Y509D01*
X618Y507D01*
X620Y507D01*
X620Y505D01*
X622Y505D01*
X622Y503D01*
X630Y503D01*
X630Y501D01*
X764Y501D01*
X764Y499D01*
X898Y499D01*
X898Y497D01*
X1032Y497D01*
X1032Y495D01*
X1166Y495D01*
X1166Y493D01*
X1284Y493D01*
X1284Y491D01*
X1292Y491D01*
X1292Y489D01*
X1296Y489D01*
X1296Y487D01*
X1300Y487D01*
X1300Y485D01*
X1302Y485D01*
X1302Y483D01*
X1304Y483D01*
X1304Y481D01*
X1306Y481D01*
X1306Y479D01*
X1308Y479D01*
X1308Y475D01*
X1310Y475D01*
X1310Y473D01*
X1312Y473D01*
X1312Y469D01*
X1314Y469D01*
X1314Y467D01*
X1316Y467D01*
X1316Y465D01*
X1318Y465D01*
X1318Y461D01*
X1320Y461D01*
X1320Y459D01*
X1322Y459D01*
X1322Y457D01*
X1324Y457D01*
X1324Y453D01*
X1326Y453D01*
X1326Y451D01*
X1328Y451D01*
X1328Y449D01*
X1330Y449D01*
X1330Y445D01*
X1332Y445D01*
X1332Y443D01*
X1334Y443D01*
X1334Y441D01*
X1336Y441D01*
X1336Y437D01*
X1338Y437D01*
X1338Y435D01*
X1340Y435D01*
X1340Y433D01*
X1342Y433D01*
X1342Y429D01*
X1344Y429D01*
X1344Y427D01*
X1346Y427D01*
X1346Y425D01*
X1348Y425D01*
X1348Y421D01*
X1350Y421D01*
X1350Y419D01*
X1352Y419D01*
X1352Y417D01*
X1354Y417D01*
X1354Y413D01*
X1356Y413D01*
X1356Y411D01*
X1358Y411D01*
X1358Y409D01*
X1360Y409D01*
X1360Y405D01*
X1362Y405D01*
X1362Y403D01*
X1364Y403D01*
X1364Y401D01*
X1366Y401D01*
X1366Y397D01*
X1368Y397D01*
X1368Y395D01*
X1370Y395D01*
X1370Y393D01*
X1372Y393D01*
X1372Y389D01*
X1374Y389D01*
X1374Y387D01*
X1376Y387D01*
X1376Y383D01*
X1378Y383D01*
X1378Y381D01*
X1380Y381D01*
X1380Y379D01*
X1382Y379D01*
X1382Y375D01*
X1384Y375D01*
X1384Y373D01*
X1386Y373D01*
X1386Y371D01*
X1388Y371D01*
X1388Y367D01*
X1390Y367D01*
X1390Y365D01*
X1392Y365D01*
X1392Y363D01*
X1394Y363D01*
X1394Y359D01*
X1396Y359D01*
X1396Y357D01*
X1398Y357D01*
X1398Y355D01*
X1400Y355D01*
X1400Y351D01*
X1402Y351D01*
X1402Y349D01*
X1404Y349D01*
X1404Y347D01*
X1406Y347D01*
X1406Y345D01*
X1420Y345D01*
X1420Y343D01*
X1428Y343D01*
X1428Y341D01*
X1434Y341D01*
X1434Y339D01*
X1438Y339D01*
X1438Y337D01*
X1440Y337D01*
X1440Y335D01*
X1444Y335D01*
X1444Y333D01*
X1446Y333D01*
X1446Y331D01*
X1448Y331D01*
X1448Y329D01*
X1452Y329D01*
X1452Y325D01*
X1454Y325D01*
X1454Y323D01*
X1456Y323D01*
X1456Y321D01*
X1458Y321D01*
X1458Y319D01*
X1460Y319D01*
X1460Y315D01*
X1462Y315D01*
X1462Y311D01*
X1464Y311D01*
X1464Y307D01*
X1466Y307D01*
X1466Y299D01*
X1468Y299D01*
X1468Y273D01*
X1466Y273D01*
X1466Y267D01*
X1464Y267D01*
X1464Y261D01*
X1462Y261D01*
X1462Y257D01*
X1460Y257D01*
X1460Y255D01*
X1458Y255D01*
X1458Y251D01*
X1456Y251D01*
X1456Y249D01*
X1454Y249D01*
X1454Y247D01*
X1452Y247D01*
X1452Y245D01*
X1450Y245D01*
X1450Y243D01*
X1448Y243D01*
X1448Y241D01*
X1446Y241D01*
X1446Y239D01*
X1444Y239D01*
X1444Y237D01*
X1440Y237D01*
X1440Y235D01*
X1436Y235D01*
X1436Y233D01*
X1432Y233D01*
X1432Y231D01*
X1426Y231D01*
X1426Y229D01*
X1418Y229D01*
X1418Y227D01*
X1600Y227D01*
X1600Y229D01*
X1590Y229D01*
X1590Y231D01*
X1584Y231D01*
X1584Y233D01*
X1580Y233D01*
X1580Y235D01*
X1576Y235D01*
X1576Y237D01*
X1574Y237D01*
X1574Y239D01*
X1570Y239D01*
X1570Y241D01*
X1568Y241D01*
X1568Y243D01*
X1566Y243D01*
X1566Y245D01*
X1564Y245D01*
X1564Y247D01*
X1562Y247D01*
X1562Y249D01*
X1560Y249D01*
X1560Y253D01*
X1558Y253D01*
X1558Y255D01*
X1556Y255D01*
X1556Y259D01*
X1554Y259D01*
X1554Y263D01*
X1552Y263D01*
X1552Y267D01*
X1550Y267D01*
X1550Y277D01*
X1548Y277D01*
X1548Y297D01*
X1550Y297D01*
X1550Y305D01*
X1552Y305D01*
X1552Y309D01*
X1554Y309D01*
X1554Y313D01*
X1556Y313D01*
X1556Y317D01*
X1558Y317D01*
X1558Y321D01*
X1560Y321D01*
X1560Y323D01*
X1562Y323D01*
X1562Y325D01*
X1564Y325D01*
X1564Y327D01*
X1566Y327D01*
X1566Y329D01*
X1568Y329D01*
X1568Y331D01*
X1570Y331D01*
X1570Y333D01*
X1572Y333D01*
X1572Y335D01*
X1576Y335D01*
X1576Y337D01*
X1580Y337D01*
X1580Y339D01*
X1584Y339D01*
X1584Y341D01*
X1588Y341D01*
X1588Y343D01*
X1598Y343D01*
X1598Y345D01*
X1630Y345D01*
X1630Y347D01*
X1632Y347D01*
X1632Y349D01*
X1634Y349D01*
X1634Y351D01*
X1638Y351D01*
X1638Y353D01*
X1640Y353D01*
X1640Y355D01*
X1642Y355D01*
X1642Y357D01*
X1644Y357D01*
X1644Y359D01*
X1646Y359D01*
X1646Y361D01*
X1650Y361D01*
X1650Y363D01*
X1652Y363D01*
X1652Y365D01*
X1654Y365D01*
X1654Y367D01*
X1656Y367D01*
X1656Y369D01*
X1660Y369D01*
X1660Y371D01*
X1662Y371D01*
X1662Y373D01*
X1664Y373D01*
X1664Y375D01*
X1666Y375D01*
X1666Y377D01*
X1670Y377D01*
X1670Y379D01*
X1672Y379D01*
X1672Y381D01*
X1674Y381D01*
X1674Y383D01*
X1676Y383D01*
X1676Y385D01*
X1678Y385D01*
X1678Y387D01*
X1682Y387D01*
X1682Y389D01*
X1684Y389D01*
X1684Y391D01*
X1686Y391D01*
X1686Y393D01*
X1688Y393D01*
X1688Y395D01*
X1692Y395D01*
X1692Y397D01*
X1694Y397D01*
X1694Y399D01*
X1696Y399D01*
X1696Y401D01*
X1698Y401D01*
X1698Y403D01*
X1702Y403D01*
X1702Y405D01*
X1704Y405D01*
X1704Y407D01*
X1706Y407D01*
X1706Y409D01*
X1708Y409D01*
X1708Y411D01*
X1712Y411D01*
X1712Y413D01*
X1714Y413D01*
X1714Y415D01*
X1718Y415D01*
X1718Y417D01*
X1726Y417D01*
X1726Y419D01*
X2908Y419D01*
X2908Y439D01*
X2906Y439D01*
X2906Y443D01*
X2904Y443D01*
X2904Y447D01*
X2902Y447D01*
X2902Y453D01*
X2900Y453D01*
X2900Y461D01*
X2898Y461D01*
X2898Y481D01*
X2900Y481D01*
X2900Y489D01*
X2902Y489D01*
X2902Y495D01*
X2904Y495D01*
X2904Y499D01*
X2906Y499D01*
X2906Y501D01*
X2908Y501D01*
X2908Y505D01*
X2910Y505D01*
X2910Y507D01*
X2912Y507D01*
X2912Y509D01*
X2914Y509D01*
X2914Y513D01*
X2918Y513D01*
X2918Y515D01*
X2920Y515D01*
X2920Y517D01*
X2922Y517D01*
X2922Y519D01*
X2924Y519D01*
X2924Y521D01*
X2928Y521D01*
X2928Y523D01*
X2932Y523D01*
X2932Y525D01*
X2936Y525D01*
X2936Y527D01*
X2944Y527D01*
X2944Y529D01*
X586Y529D01*
G37*
D02*
G36*
X2970Y529D02*
X2970Y527D01*
X2976Y527D01*
X2976Y525D01*
X2982Y525D01*
X2982Y523D01*
X2986Y523D01*
X2986Y521D01*
X2988Y521D01*
X2988Y519D01*
X2992Y519D01*
X2992Y517D01*
X2994Y517D01*
X2994Y515D01*
X2996Y515D01*
X2996Y513D01*
X2998Y513D01*
X2998Y511D01*
X3000Y511D01*
X3000Y509D01*
X3002Y509D01*
X3002Y507D01*
X3004Y507D01*
X3004Y505D01*
X3006Y505D01*
X3006Y501D01*
X3008Y501D01*
X3008Y497D01*
X3010Y497D01*
X3010Y493D01*
X3012Y493D01*
X3012Y487D01*
X3014Y487D01*
X3014Y477D01*
X3016Y477D01*
X3016Y465D01*
X3014Y465D01*
X3014Y455D01*
X3012Y455D01*
X3012Y449D01*
X3010Y449D01*
X3010Y445D01*
X3008Y445D01*
X3008Y441D01*
X3006Y441D01*
X3006Y419D01*
X3050Y419D01*
X3050Y421D01*
X3052Y421D01*
X3052Y423D01*
X3054Y423D01*
X3054Y425D01*
X3058Y425D01*
X3058Y427D01*
X3060Y427D01*
X3060Y429D01*
X3062Y429D01*
X3062Y431D01*
X3066Y431D01*
X3066Y433D01*
X3068Y433D01*
X3068Y435D01*
X3072Y435D01*
X3072Y437D01*
X3074Y437D01*
X3074Y439D01*
X3076Y439D01*
X3076Y441D01*
X3080Y441D01*
X3080Y443D01*
X3082Y443D01*
X3082Y445D01*
X3084Y445D01*
X3084Y447D01*
X3088Y447D01*
X3088Y449D01*
X3090Y449D01*
X3090Y451D01*
X3094Y451D01*
X3094Y453D01*
X3096Y453D01*
X3096Y455D01*
X3098Y455D01*
X3098Y457D01*
X3102Y457D01*
X3102Y459D01*
X3104Y459D01*
X3104Y461D01*
X3106Y461D01*
X3106Y463D01*
X3110Y463D01*
X3110Y465D01*
X3112Y465D01*
X3112Y467D01*
X3114Y467D01*
X3114Y477D01*
X3116Y477D01*
X3116Y487D01*
X3118Y487D01*
X3118Y493D01*
X3120Y493D01*
X3120Y497D01*
X3122Y497D01*
X3122Y501D01*
X3124Y501D01*
X3124Y505D01*
X3126Y505D01*
X3126Y507D01*
X3128Y507D01*
X3128Y509D01*
X3130Y509D01*
X3130Y511D01*
X3132Y511D01*
X3132Y513D01*
X3134Y513D01*
X3134Y515D01*
X3136Y515D01*
X3136Y517D01*
X3138Y517D01*
X3138Y519D01*
X3142Y519D01*
X3142Y521D01*
X3144Y521D01*
X3144Y523D01*
X3148Y523D01*
X3148Y525D01*
X3154Y525D01*
X3154Y527D01*
X3160Y527D01*
X3160Y529D01*
X2970Y529D01*
G37*
D02*
G36*
X620Y437D02*
X620Y435D01*
X618Y435D01*
X618Y431D01*
X616Y431D01*
X616Y429D01*
X614Y429D01*
X614Y427D01*
X610Y427D01*
X610Y425D01*
X608Y425D01*
X608Y423D01*
X606Y423D01*
X606Y421D01*
X602Y421D01*
X602Y419D01*
X598Y419D01*
X598Y417D01*
X594Y417D01*
X594Y415D01*
X588Y415D01*
X588Y413D01*
X1274Y413D01*
X1274Y417D01*
X1272Y417D01*
X1272Y419D01*
X1270Y419D01*
X1270Y421D01*
X1268Y421D01*
X1268Y425D01*
X1266Y425D01*
X1266Y427D01*
X1264Y427D01*
X1264Y429D01*
X1166Y429D01*
X1166Y431D01*
X1032Y431D01*
X1032Y433D01*
X898Y433D01*
X898Y435D01*
X762Y435D01*
X762Y437D01*
X620Y437D01*
G37*
D02*
G36*
X40Y413D02*
X40Y411D01*
X1276Y411D01*
X1276Y413D01*
X40Y413D01*
G37*
D02*
G36*
X40Y413D02*
X40Y411D01*
X1276Y411D01*
X1276Y413D01*
X40Y413D01*
G37*
D02*
G36*
X40Y413D02*
X40Y411D01*
X1276Y411D01*
X1276Y413D01*
X40Y413D01*
G37*
D02*
G36*
X40Y411D02*
X40Y365D01*
X578Y365D01*
X578Y363D01*
X588Y363D01*
X588Y361D01*
X596Y361D01*
X596Y359D01*
X600Y359D01*
X600Y357D01*
X602Y357D01*
X602Y355D01*
X606Y355D01*
X606Y353D01*
X608Y353D01*
X608Y351D01*
X612Y351D01*
X612Y349D01*
X614Y349D01*
X614Y347D01*
X616Y347D01*
X616Y345D01*
X1116Y345D01*
X1116Y343D01*
X1124Y343D01*
X1124Y341D01*
X1130Y341D01*
X1130Y339D01*
X1134Y339D01*
X1134Y337D01*
X1138Y337D01*
X1138Y335D01*
X1140Y335D01*
X1140Y333D01*
X1144Y333D01*
X1144Y331D01*
X1146Y331D01*
X1146Y329D01*
X1148Y329D01*
X1148Y327D01*
X1150Y327D01*
X1150Y325D01*
X1152Y325D01*
X1152Y321D01*
X1154Y321D01*
X1154Y319D01*
X1156Y319D01*
X1156Y317D01*
X1158Y317D01*
X1158Y313D01*
X1160Y313D01*
X1160Y309D01*
X1162Y309D01*
X1162Y303D01*
X1164Y303D01*
X1164Y293D01*
X1166Y293D01*
X1166Y279D01*
X1164Y279D01*
X1164Y269D01*
X1162Y269D01*
X1162Y263D01*
X1160Y263D01*
X1160Y259D01*
X1158Y259D01*
X1158Y257D01*
X1156Y257D01*
X1156Y253D01*
X1154Y253D01*
X1154Y251D01*
X1152Y251D01*
X1152Y249D01*
X1150Y249D01*
X1150Y245D01*
X1148Y245D01*
X1148Y243D01*
X1146Y243D01*
X1146Y241D01*
X1142Y241D01*
X1142Y239D01*
X1140Y239D01*
X1140Y237D01*
X1136Y237D01*
X1136Y235D01*
X1134Y235D01*
X1134Y233D01*
X1130Y233D01*
X1130Y231D01*
X1124Y231D01*
X1124Y229D01*
X1114Y229D01*
X1114Y227D01*
X1402Y227D01*
X1402Y229D01*
X1392Y229D01*
X1392Y231D01*
X1388Y231D01*
X1388Y233D01*
X1382Y233D01*
X1382Y235D01*
X1380Y235D01*
X1380Y237D01*
X1376Y237D01*
X1376Y239D01*
X1374Y239D01*
X1374Y241D01*
X1372Y241D01*
X1372Y243D01*
X1370Y243D01*
X1370Y245D01*
X1368Y245D01*
X1368Y247D01*
X1366Y247D01*
X1366Y249D01*
X1364Y249D01*
X1364Y251D01*
X1362Y251D01*
X1362Y253D01*
X1360Y253D01*
X1360Y257D01*
X1358Y257D01*
X1358Y261D01*
X1356Y261D01*
X1356Y265D01*
X1354Y265D01*
X1354Y273D01*
X1352Y273D01*
X1352Y311D01*
X1350Y311D01*
X1350Y315D01*
X1348Y315D01*
X1348Y317D01*
X1346Y317D01*
X1346Y319D01*
X1344Y319D01*
X1344Y323D01*
X1342Y323D01*
X1342Y325D01*
X1340Y325D01*
X1340Y327D01*
X1338Y327D01*
X1338Y331D01*
X1336Y331D01*
X1336Y333D01*
X1334Y333D01*
X1334Y335D01*
X1332Y335D01*
X1332Y339D01*
X1330Y339D01*
X1330Y341D01*
X1328Y341D01*
X1328Y343D01*
X1326Y343D01*
X1326Y347D01*
X1324Y347D01*
X1324Y349D01*
X1322Y349D01*
X1322Y351D01*
X1320Y351D01*
X1320Y355D01*
X1318Y355D01*
X1318Y357D01*
X1316Y357D01*
X1316Y361D01*
X1314Y361D01*
X1314Y363D01*
X1312Y363D01*
X1312Y365D01*
X1310Y365D01*
X1310Y369D01*
X1308Y369D01*
X1308Y371D01*
X1306Y371D01*
X1306Y373D01*
X1304Y373D01*
X1304Y377D01*
X1302Y377D01*
X1302Y379D01*
X1300Y379D01*
X1300Y381D01*
X1298Y381D01*
X1298Y385D01*
X1296Y385D01*
X1296Y387D01*
X1294Y387D01*
X1294Y389D01*
X1292Y389D01*
X1292Y393D01*
X1290Y393D01*
X1290Y395D01*
X1288Y395D01*
X1288Y397D01*
X1286Y397D01*
X1286Y401D01*
X1284Y401D01*
X1284Y403D01*
X1282Y403D01*
X1282Y405D01*
X1280Y405D01*
X1280Y409D01*
X1278Y409D01*
X1278Y411D01*
X40Y411D01*
G37*
D02*
G36*
X40Y365D02*
X40Y247D01*
X346Y247D01*
X346Y249D01*
X338Y249D01*
X338Y251D01*
X332Y251D01*
X332Y253D01*
X328Y253D01*
X328Y255D01*
X326Y255D01*
X326Y257D01*
X322Y257D01*
X322Y259D01*
X320Y259D01*
X320Y261D01*
X318Y261D01*
X318Y263D01*
X316Y263D01*
X316Y265D01*
X314Y265D01*
X314Y267D01*
X312Y267D01*
X312Y269D01*
X310Y269D01*
X310Y271D01*
X308Y271D01*
X308Y275D01*
X306Y275D01*
X306Y277D01*
X304Y277D01*
X304Y281D01*
X302Y281D01*
X302Y287D01*
X300Y287D01*
X300Y295D01*
X298Y295D01*
X298Y315D01*
X300Y315D01*
X300Y325D01*
X302Y325D01*
X302Y329D01*
X304Y329D01*
X304Y333D01*
X306Y333D01*
X306Y337D01*
X308Y337D01*
X308Y339D01*
X310Y339D01*
X310Y341D01*
X312Y341D01*
X312Y345D01*
X314Y345D01*
X314Y347D01*
X316Y347D01*
X316Y349D01*
X318Y349D01*
X318Y351D01*
X322Y351D01*
X322Y353D01*
X324Y353D01*
X324Y355D01*
X326Y355D01*
X326Y357D01*
X330Y357D01*
X330Y359D01*
X334Y359D01*
X334Y361D01*
X342Y361D01*
X342Y363D01*
X352Y363D01*
X352Y365D01*
X40Y365D01*
G37*
D02*
G36*
X362Y365D02*
X362Y363D01*
X372Y363D01*
X372Y361D01*
X378Y361D01*
X378Y359D01*
X382Y359D01*
X382Y357D01*
X386Y357D01*
X386Y355D01*
X390Y355D01*
X390Y353D01*
X392Y353D01*
X392Y351D01*
X394Y351D01*
X394Y349D01*
X398Y349D01*
X398Y347D01*
X400Y347D01*
X400Y343D01*
X402Y343D01*
X402Y341D01*
X404Y341D01*
X404Y339D01*
X406Y339D01*
X406Y335D01*
X408Y335D01*
X408Y333D01*
X410Y333D01*
X410Y327D01*
X412Y327D01*
X412Y321D01*
X414Y321D01*
X414Y313D01*
X416Y313D01*
X416Y299D01*
X414Y299D01*
X414Y289D01*
X412Y289D01*
X412Y283D01*
X410Y283D01*
X410Y279D01*
X408Y279D01*
X408Y275D01*
X406Y275D01*
X406Y273D01*
X404Y273D01*
X404Y269D01*
X402Y269D01*
X402Y267D01*
X400Y267D01*
X400Y265D01*
X398Y265D01*
X398Y263D01*
X396Y263D01*
X396Y261D01*
X394Y261D01*
X394Y259D01*
X390Y259D01*
X390Y257D01*
X388Y257D01*
X388Y255D01*
X384Y255D01*
X384Y253D01*
X380Y253D01*
X380Y251D01*
X376Y251D01*
X376Y249D01*
X368Y249D01*
X368Y247D01*
X562Y247D01*
X562Y249D01*
X554Y249D01*
X554Y251D01*
X548Y251D01*
X548Y253D01*
X546Y253D01*
X546Y255D01*
X542Y255D01*
X542Y257D01*
X540Y257D01*
X540Y259D01*
X536Y259D01*
X536Y261D01*
X534Y261D01*
X534Y263D01*
X532Y263D01*
X532Y265D01*
X530Y265D01*
X530Y267D01*
X528Y267D01*
X528Y269D01*
X526Y269D01*
X526Y273D01*
X524Y273D01*
X524Y275D01*
X522Y275D01*
X522Y279D01*
X520Y279D01*
X520Y283D01*
X518Y283D01*
X518Y289D01*
X516Y289D01*
X516Y299D01*
X514Y299D01*
X514Y313D01*
X516Y313D01*
X516Y323D01*
X518Y323D01*
X518Y329D01*
X520Y329D01*
X520Y333D01*
X522Y333D01*
X522Y335D01*
X524Y335D01*
X524Y339D01*
X526Y339D01*
X526Y341D01*
X528Y341D01*
X528Y343D01*
X530Y343D01*
X530Y347D01*
X532Y347D01*
X532Y349D01*
X536Y349D01*
X536Y351D01*
X538Y351D01*
X538Y353D01*
X540Y353D01*
X540Y355D01*
X544Y355D01*
X544Y357D01*
X548Y357D01*
X548Y359D01*
X552Y359D01*
X552Y361D01*
X558Y361D01*
X558Y363D01*
X568Y363D01*
X568Y365D01*
X362Y365D01*
G37*
D02*
G36*
X3082Y365D02*
X3082Y363D01*
X3078Y363D01*
X3078Y361D01*
X3076Y361D01*
X3076Y359D01*
X3072Y359D01*
X3072Y357D01*
X3068Y357D01*
X3068Y355D01*
X3006Y355D01*
X3006Y335D01*
X3008Y335D01*
X3008Y333D01*
X3010Y333D01*
X3010Y327D01*
X3012Y327D01*
X3012Y321D01*
X3014Y321D01*
X3014Y313D01*
X3016Y313D01*
X3016Y299D01*
X3014Y299D01*
X3014Y289D01*
X3012Y289D01*
X3012Y283D01*
X3010Y283D01*
X3010Y279D01*
X3008Y279D01*
X3008Y275D01*
X3006Y275D01*
X3006Y273D01*
X3004Y273D01*
X3004Y269D01*
X3002Y269D01*
X3002Y267D01*
X3000Y267D01*
X3000Y265D01*
X2998Y265D01*
X2998Y263D01*
X2996Y263D01*
X2996Y261D01*
X2994Y261D01*
X2994Y259D01*
X2990Y259D01*
X2990Y257D01*
X2988Y257D01*
X2988Y255D01*
X2984Y255D01*
X2984Y253D01*
X2980Y253D01*
X2980Y251D01*
X2976Y251D01*
X2976Y249D01*
X2968Y249D01*
X2968Y247D01*
X3086Y247D01*
X3086Y249D01*
X3088Y249D01*
X3088Y251D01*
X3090Y251D01*
X3090Y255D01*
X3092Y255D01*
X3092Y257D01*
X3094Y257D01*
X3094Y259D01*
X3096Y259D01*
X3096Y261D01*
X3098Y261D01*
X3098Y265D01*
X3100Y265D01*
X3100Y267D01*
X3102Y267D01*
X3102Y269D01*
X3104Y269D01*
X3104Y271D01*
X3106Y271D01*
X3106Y275D01*
X3108Y275D01*
X3108Y277D01*
X3110Y277D01*
X3110Y279D01*
X3112Y279D01*
X3112Y281D01*
X3114Y281D01*
X3114Y313D01*
X3116Y313D01*
X3116Y323D01*
X3118Y323D01*
X3118Y329D01*
X3120Y329D01*
X3120Y333D01*
X3122Y333D01*
X3122Y335D01*
X3124Y335D01*
X3124Y339D01*
X3126Y339D01*
X3126Y341D01*
X3128Y341D01*
X3128Y343D01*
X3130Y343D01*
X3130Y347D01*
X3132Y347D01*
X3132Y349D01*
X3136Y349D01*
X3136Y351D01*
X3138Y351D01*
X3138Y353D01*
X3140Y353D01*
X3140Y355D01*
X3144Y355D01*
X3144Y357D01*
X3148Y357D01*
X3148Y359D01*
X3152Y359D01*
X3152Y361D01*
X3158Y361D01*
X3158Y363D01*
X3168Y363D01*
X3168Y365D01*
X3082Y365D01*
G37*
D02*
G36*
X1742Y355D02*
X1742Y353D01*
X1738Y353D01*
X1738Y351D01*
X1736Y351D01*
X1736Y349D01*
X1734Y349D01*
X1734Y347D01*
X1732Y347D01*
X1732Y345D01*
X1728Y345D01*
X1728Y343D01*
X1726Y343D01*
X1726Y341D01*
X1724Y341D01*
X1724Y339D01*
X1722Y339D01*
X1722Y337D01*
X1718Y337D01*
X1718Y335D01*
X1716Y335D01*
X1716Y333D01*
X1714Y333D01*
X1714Y331D01*
X1712Y331D01*
X1712Y329D01*
X1710Y329D01*
X1710Y327D01*
X1706Y327D01*
X1706Y325D01*
X1704Y325D01*
X1704Y323D01*
X1702Y323D01*
X1702Y321D01*
X1700Y321D01*
X1700Y319D01*
X1696Y319D01*
X1696Y317D01*
X1694Y317D01*
X1694Y315D01*
X1692Y315D01*
X1692Y313D01*
X1690Y313D01*
X1690Y311D01*
X1686Y311D01*
X1686Y309D01*
X1684Y309D01*
X1684Y307D01*
X1682Y307D01*
X1682Y305D01*
X1680Y305D01*
X1680Y303D01*
X1676Y303D01*
X1676Y301D01*
X1674Y301D01*
X1674Y299D01*
X1672Y299D01*
X1672Y297D01*
X1670Y297D01*
X1670Y295D01*
X1668Y295D01*
X1668Y293D01*
X1666Y293D01*
X1666Y279D01*
X1664Y279D01*
X1664Y269D01*
X1662Y269D01*
X1662Y263D01*
X1660Y263D01*
X1660Y259D01*
X1658Y259D01*
X1658Y257D01*
X1656Y257D01*
X1656Y253D01*
X1654Y253D01*
X1654Y251D01*
X1652Y251D01*
X1652Y249D01*
X1650Y249D01*
X1650Y245D01*
X1648Y245D01*
X1648Y243D01*
X1646Y243D01*
X1646Y241D01*
X1642Y241D01*
X1642Y239D01*
X1640Y239D01*
X1640Y237D01*
X1636Y237D01*
X1636Y235D01*
X1634Y235D01*
X1634Y233D01*
X1630Y233D01*
X1630Y231D01*
X1624Y231D01*
X1624Y229D01*
X1614Y229D01*
X1614Y227D01*
X1902Y227D01*
X1902Y229D01*
X1892Y229D01*
X1892Y231D01*
X1888Y231D01*
X1888Y233D01*
X1882Y233D01*
X1882Y235D01*
X1880Y235D01*
X1880Y237D01*
X1876Y237D01*
X1876Y239D01*
X1874Y239D01*
X1874Y241D01*
X1872Y241D01*
X1872Y243D01*
X1870Y243D01*
X1870Y245D01*
X1868Y245D01*
X1868Y247D01*
X1866Y247D01*
X1866Y249D01*
X1864Y249D01*
X1864Y251D01*
X1862Y251D01*
X1862Y253D01*
X1860Y253D01*
X1860Y257D01*
X1858Y257D01*
X1858Y261D01*
X1856Y261D01*
X1856Y265D01*
X1854Y265D01*
X1854Y273D01*
X1852Y273D01*
X1852Y301D01*
X1854Y301D01*
X1854Y307D01*
X1856Y307D01*
X1856Y311D01*
X1858Y311D01*
X1858Y315D01*
X1860Y315D01*
X1860Y319D01*
X1862Y319D01*
X1862Y321D01*
X1864Y321D01*
X1864Y323D01*
X1866Y323D01*
X1866Y327D01*
X1868Y327D01*
X1868Y329D01*
X1872Y329D01*
X1872Y331D01*
X1874Y331D01*
X1874Y333D01*
X1876Y333D01*
X1876Y335D01*
X1878Y335D01*
X1878Y355D01*
X1742Y355D01*
G37*
D02*
G36*
X1940Y355D02*
X1940Y335D01*
X1944Y335D01*
X1944Y333D01*
X1946Y333D01*
X1946Y331D01*
X1948Y331D01*
X1948Y329D01*
X1952Y329D01*
X1952Y325D01*
X1954Y325D01*
X1954Y323D01*
X1956Y323D01*
X1956Y321D01*
X1958Y321D01*
X1958Y319D01*
X1960Y319D01*
X1960Y315D01*
X1962Y315D01*
X1962Y311D01*
X1964Y311D01*
X1964Y307D01*
X1966Y307D01*
X1966Y299D01*
X1968Y299D01*
X1968Y273D01*
X1966Y273D01*
X1966Y267D01*
X1964Y267D01*
X1964Y261D01*
X1962Y261D01*
X1962Y257D01*
X1960Y257D01*
X1960Y255D01*
X1958Y255D01*
X1958Y251D01*
X1956Y251D01*
X1956Y249D01*
X1954Y249D01*
X1954Y247D01*
X1952Y247D01*
X1952Y245D01*
X1950Y245D01*
X1950Y243D01*
X1948Y243D01*
X1948Y241D01*
X1946Y241D01*
X1946Y239D01*
X1944Y239D01*
X1944Y237D01*
X1940Y237D01*
X1940Y235D01*
X1936Y235D01*
X1936Y233D01*
X1932Y233D01*
X1932Y231D01*
X1926Y231D01*
X1926Y229D01*
X1918Y229D01*
X1918Y227D01*
X2100Y227D01*
X2100Y229D01*
X2090Y229D01*
X2090Y231D01*
X2084Y231D01*
X2084Y233D01*
X2080Y233D01*
X2080Y235D01*
X2076Y235D01*
X2076Y237D01*
X2074Y237D01*
X2074Y239D01*
X2070Y239D01*
X2070Y241D01*
X2068Y241D01*
X2068Y243D01*
X2066Y243D01*
X2066Y245D01*
X2064Y245D01*
X2064Y247D01*
X2062Y247D01*
X2062Y249D01*
X2060Y249D01*
X2060Y253D01*
X2058Y253D01*
X2058Y255D01*
X2056Y255D01*
X2056Y259D01*
X2054Y259D01*
X2054Y263D01*
X2052Y263D01*
X2052Y267D01*
X2050Y267D01*
X2050Y277D01*
X2048Y277D01*
X2048Y297D01*
X2050Y297D01*
X2050Y305D01*
X2052Y305D01*
X2052Y309D01*
X2054Y309D01*
X2054Y313D01*
X2056Y313D01*
X2056Y317D01*
X2058Y317D01*
X2058Y321D01*
X2060Y321D01*
X2060Y323D01*
X2062Y323D01*
X2062Y325D01*
X2064Y325D01*
X2064Y327D01*
X2066Y327D01*
X2066Y329D01*
X2068Y329D01*
X2068Y331D01*
X2070Y331D01*
X2070Y333D01*
X2072Y333D01*
X2072Y335D01*
X2076Y335D01*
X2076Y355D01*
X1940Y355D01*
G37*
D02*
G36*
X2138Y355D02*
X2138Y335D01*
X2140Y335D01*
X2140Y333D01*
X2144Y333D01*
X2144Y331D01*
X2146Y331D01*
X2146Y329D01*
X2148Y329D01*
X2148Y327D01*
X2150Y327D01*
X2150Y325D01*
X2152Y325D01*
X2152Y321D01*
X2154Y321D01*
X2154Y319D01*
X2156Y319D01*
X2156Y317D01*
X2158Y317D01*
X2158Y313D01*
X2160Y313D01*
X2160Y309D01*
X2162Y309D01*
X2162Y303D01*
X2164Y303D01*
X2164Y293D01*
X2166Y293D01*
X2166Y279D01*
X2164Y279D01*
X2164Y269D01*
X2162Y269D01*
X2162Y263D01*
X2160Y263D01*
X2160Y259D01*
X2158Y259D01*
X2158Y257D01*
X2156Y257D01*
X2156Y253D01*
X2154Y253D01*
X2154Y251D01*
X2152Y251D01*
X2152Y249D01*
X2150Y249D01*
X2150Y245D01*
X2148Y245D01*
X2148Y243D01*
X2146Y243D01*
X2146Y241D01*
X2142Y241D01*
X2142Y239D01*
X2140Y239D01*
X2140Y237D01*
X2136Y237D01*
X2136Y235D01*
X2134Y235D01*
X2134Y233D01*
X2130Y233D01*
X2130Y231D01*
X2124Y231D01*
X2124Y229D01*
X2114Y229D01*
X2114Y227D01*
X2304Y227D01*
X2304Y229D01*
X2308Y229D01*
X2308Y231D01*
X2310Y231D01*
X2310Y233D01*
X2312Y233D01*
X2312Y235D01*
X2314Y235D01*
X2314Y237D01*
X2316Y237D01*
X2316Y239D01*
X2318Y239D01*
X2318Y241D01*
X2320Y241D01*
X2320Y243D01*
X2322Y243D01*
X2322Y245D01*
X2324Y245D01*
X2324Y247D01*
X2326Y247D01*
X2326Y249D01*
X2328Y249D01*
X2328Y251D01*
X2330Y251D01*
X2330Y253D01*
X2332Y253D01*
X2332Y255D01*
X2334Y255D01*
X2334Y257D01*
X2336Y257D01*
X2336Y259D01*
X2338Y259D01*
X2338Y261D01*
X2340Y261D01*
X2340Y263D01*
X2342Y263D01*
X2342Y265D01*
X2344Y265D01*
X2344Y267D01*
X2346Y267D01*
X2346Y269D01*
X2348Y269D01*
X2348Y271D01*
X2350Y271D01*
X2350Y273D01*
X2352Y273D01*
X2352Y301D01*
X2354Y301D01*
X2354Y307D01*
X2356Y307D01*
X2356Y311D01*
X2358Y311D01*
X2358Y315D01*
X2360Y315D01*
X2360Y319D01*
X2362Y319D01*
X2362Y321D01*
X2364Y321D01*
X2364Y323D01*
X2366Y323D01*
X2366Y327D01*
X2368Y327D01*
X2368Y329D01*
X2372Y329D01*
X2372Y331D01*
X2374Y331D01*
X2374Y333D01*
X2376Y333D01*
X2376Y335D01*
X2378Y335D01*
X2378Y355D01*
X2138Y355D01*
G37*
D02*
G36*
X2440Y355D02*
X2440Y335D01*
X2444Y335D01*
X2444Y333D01*
X2446Y333D01*
X2446Y331D01*
X2448Y331D01*
X2448Y329D01*
X2452Y329D01*
X2452Y325D01*
X2454Y325D01*
X2454Y323D01*
X2456Y323D01*
X2456Y321D01*
X2458Y321D01*
X2458Y319D01*
X2460Y319D01*
X2460Y315D01*
X2462Y315D01*
X2462Y311D01*
X2464Y311D01*
X2464Y307D01*
X2466Y307D01*
X2466Y299D01*
X2468Y299D01*
X2468Y273D01*
X2466Y273D01*
X2466Y267D01*
X2464Y267D01*
X2464Y261D01*
X2462Y261D01*
X2462Y257D01*
X2460Y257D01*
X2460Y255D01*
X2458Y255D01*
X2458Y251D01*
X2456Y251D01*
X2456Y249D01*
X2454Y249D01*
X2454Y247D01*
X2452Y247D01*
X2452Y245D01*
X2450Y245D01*
X2450Y243D01*
X2448Y243D01*
X2448Y241D01*
X2446Y241D01*
X2446Y239D01*
X2444Y239D01*
X2444Y237D01*
X2440Y237D01*
X2440Y235D01*
X2436Y235D01*
X2436Y233D01*
X2432Y233D01*
X2432Y231D01*
X2426Y231D01*
X2426Y229D01*
X2418Y229D01*
X2418Y227D01*
X2394Y227D01*
X2394Y225D01*
X2392Y225D01*
X2392Y223D01*
X2390Y223D01*
X2390Y221D01*
X2388Y221D01*
X2388Y219D01*
X2386Y219D01*
X2386Y217D01*
X2384Y217D01*
X2384Y215D01*
X2382Y215D01*
X2382Y213D01*
X2380Y213D01*
X2380Y211D01*
X2378Y211D01*
X2378Y209D01*
X2376Y209D01*
X2376Y207D01*
X2374Y207D01*
X2374Y205D01*
X2372Y205D01*
X2372Y203D01*
X2370Y203D01*
X2370Y201D01*
X2368Y201D01*
X2368Y199D01*
X2366Y199D01*
X2366Y197D01*
X2364Y197D01*
X2364Y195D01*
X2362Y195D01*
X2362Y193D01*
X2360Y193D01*
X2360Y191D01*
X2358Y191D01*
X2358Y189D01*
X2356Y189D01*
X2356Y187D01*
X2354Y187D01*
X2354Y185D01*
X2352Y185D01*
X2352Y183D01*
X2350Y183D01*
X2350Y181D01*
X2348Y181D01*
X2348Y179D01*
X2346Y179D01*
X2346Y177D01*
X2344Y177D01*
X2344Y175D01*
X2342Y175D01*
X2342Y173D01*
X2340Y173D01*
X2340Y171D01*
X2338Y171D01*
X2338Y169D01*
X2336Y169D01*
X2336Y167D01*
X2334Y167D01*
X2334Y165D01*
X2332Y165D01*
X2332Y163D01*
X2330Y163D01*
X2330Y161D01*
X2328Y161D01*
X2328Y159D01*
X2326Y159D01*
X2326Y157D01*
X2324Y157D01*
X2324Y155D01*
X2322Y155D01*
X2322Y153D01*
X2318Y153D01*
X2318Y151D01*
X2316Y151D01*
X2316Y149D01*
X2314Y149D01*
X2314Y147D01*
X2312Y147D01*
X2312Y145D01*
X2310Y145D01*
X2310Y143D01*
X2308Y143D01*
X2308Y141D01*
X2306Y141D01*
X2306Y139D01*
X2304Y139D01*
X2304Y137D01*
X2302Y137D01*
X2302Y135D01*
X2300Y135D01*
X2300Y133D01*
X2296Y133D01*
X2296Y131D01*
X2288Y131D01*
X2288Y129D01*
X2726Y129D01*
X2726Y131D01*
X2720Y131D01*
X2720Y133D01*
X2716Y133D01*
X2716Y135D01*
X2714Y135D01*
X2714Y137D01*
X2712Y137D01*
X2712Y139D01*
X2710Y139D01*
X2710Y141D01*
X2706Y141D01*
X2706Y143D01*
X2704Y143D01*
X2704Y145D01*
X2702Y145D01*
X2702Y147D01*
X2700Y147D01*
X2700Y149D01*
X2698Y149D01*
X2698Y151D01*
X2696Y151D01*
X2696Y153D01*
X2694Y153D01*
X2694Y155D01*
X2692Y155D01*
X2692Y157D01*
X2690Y157D01*
X2690Y159D01*
X2688Y159D01*
X2688Y161D01*
X2686Y161D01*
X2686Y163D01*
X2684Y163D01*
X2684Y165D01*
X2682Y165D01*
X2682Y167D01*
X2680Y167D01*
X2680Y169D01*
X2678Y169D01*
X2678Y171D01*
X2676Y171D01*
X2676Y173D01*
X2674Y173D01*
X2674Y175D01*
X2672Y175D01*
X2672Y177D01*
X2670Y177D01*
X2670Y179D01*
X2668Y179D01*
X2668Y181D01*
X2666Y181D01*
X2666Y183D01*
X2664Y183D01*
X2664Y185D01*
X2662Y185D01*
X2662Y187D01*
X2660Y187D01*
X2660Y189D01*
X2658Y189D01*
X2658Y191D01*
X2656Y191D01*
X2656Y193D01*
X2654Y193D01*
X2654Y195D01*
X2652Y195D01*
X2652Y197D01*
X2650Y197D01*
X2650Y199D01*
X2648Y199D01*
X2648Y201D01*
X2646Y201D01*
X2646Y203D01*
X2644Y203D01*
X2644Y205D01*
X2642Y205D01*
X2642Y207D01*
X2640Y207D01*
X2640Y209D01*
X2638Y209D01*
X2638Y211D01*
X2636Y211D01*
X2636Y213D01*
X2634Y213D01*
X2634Y215D01*
X2632Y215D01*
X2632Y217D01*
X2630Y217D01*
X2630Y219D01*
X2628Y219D01*
X2628Y221D01*
X2626Y221D01*
X2626Y223D01*
X2624Y223D01*
X2624Y225D01*
X2622Y225D01*
X2622Y227D01*
X2600Y227D01*
X2600Y229D01*
X2590Y229D01*
X2590Y231D01*
X2584Y231D01*
X2584Y233D01*
X2580Y233D01*
X2580Y235D01*
X2576Y235D01*
X2576Y237D01*
X2574Y237D01*
X2574Y239D01*
X2570Y239D01*
X2570Y241D01*
X2568Y241D01*
X2568Y243D01*
X2566Y243D01*
X2566Y245D01*
X2564Y245D01*
X2564Y247D01*
X2562Y247D01*
X2562Y249D01*
X2560Y249D01*
X2560Y253D01*
X2558Y253D01*
X2558Y255D01*
X2556Y255D01*
X2556Y259D01*
X2554Y259D01*
X2554Y263D01*
X2552Y263D01*
X2552Y267D01*
X2550Y267D01*
X2550Y277D01*
X2548Y277D01*
X2548Y297D01*
X2550Y297D01*
X2550Y305D01*
X2552Y305D01*
X2552Y309D01*
X2554Y309D01*
X2554Y313D01*
X2556Y313D01*
X2556Y317D01*
X2558Y317D01*
X2558Y321D01*
X2560Y321D01*
X2560Y323D01*
X2562Y323D01*
X2562Y325D01*
X2564Y325D01*
X2564Y327D01*
X2566Y327D01*
X2566Y329D01*
X2568Y329D01*
X2568Y331D01*
X2570Y331D01*
X2570Y333D01*
X2572Y333D01*
X2572Y335D01*
X2576Y335D01*
X2576Y355D01*
X2440Y355D01*
G37*
D02*
G36*
X2638Y355D02*
X2638Y335D01*
X2640Y335D01*
X2640Y333D01*
X2644Y333D01*
X2644Y331D01*
X2646Y331D01*
X2646Y329D01*
X2648Y329D01*
X2648Y327D01*
X2650Y327D01*
X2650Y325D01*
X2652Y325D01*
X2652Y321D01*
X2654Y321D01*
X2654Y319D01*
X2656Y319D01*
X2656Y317D01*
X2658Y317D01*
X2658Y313D01*
X2660Y313D01*
X2660Y309D01*
X2662Y309D01*
X2662Y303D01*
X2664Y303D01*
X2664Y293D01*
X2666Y293D01*
X2666Y271D01*
X2668Y271D01*
X2668Y269D01*
X2670Y269D01*
X2670Y267D01*
X2672Y267D01*
X2672Y265D01*
X2674Y265D01*
X2674Y263D01*
X2676Y263D01*
X2676Y261D01*
X2678Y261D01*
X2678Y259D01*
X2680Y259D01*
X2680Y257D01*
X2682Y257D01*
X2682Y255D01*
X2684Y255D01*
X2684Y253D01*
X2686Y253D01*
X2686Y251D01*
X2688Y251D01*
X2688Y249D01*
X2690Y249D01*
X2690Y247D01*
X2946Y247D01*
X2946Y249D01*
X2938Y249D01*
X2938Y251D01*
X2932Y251D01*
X2932Y253D01*
X2928Y253D01*
X2928Y255D01*
X2926Y255D01*
X2926Y257D01*
X2922Y257D01*
X2922Y259D01*
X2920Y259D01*
X2920Y261D01*
X2918Y261D01*
X2918Y263D01*
X2916Y263D01*
X2916Y265D01*
X2914Y265D01*
X2914Y267D01*
X2912Y267D01*
X2912Y269D01*
X2910Y269D01*
X2910Y271D01*
X2908Y271D01*
X2908Y275D01*
X2906Y275D01*
X2906Y277D01*
X2904Y277D01*
X2904Y281D01*
X2902Y281D01*
X2902Y287D01*
X2900Y287D01*
X2900Y295D01*
X2898Y295D01*
X2898Y315D01*
X2900Y315D01*
X2900Y325D01*
X2902Y325D01*
X2902Y329D01*
X2904Y329D01*
X2904Y333D01*
X2906Y333D01*
X2906Y355D01*
X2638Y355D01*
G37*
D02*
G36*
X618Y345D02*
X618Y341D01*
X620Y341D01*
X620Y339D01*
X622Y339D01*
X622Y337D01*
X624Y337D01*
X624Y333D01*
X626Y333D01*
X626Y329D01*
X628Y329D01*
X628Y323D01*
X630Y323D01*
X630Y315D01*
X632Y315D01*
X632Y295D01*
X634Y295D01*
X634Y293D01*
X636Y293D01*
X636Y291D01*
X638Y291D01*
X638Y289D01*
X640Y289D01*
X640Y287D01*
X642Y287D01*
X642Y285D01*
X644Y285D01*
X644Y283D01*
X646Y283D01*
X646Y281D01*
X648Y281D01*
X648Y279D01*
X650Y279D01*
X650Y277D01*
X652Y277D01*
X652Y275D01*
X656Y275D01*
X656Y273D01*
X658Y273D01*
X658Y271D01*
X660Y271D01*
X660Y269D01*
X662Y269D01*
X662Y267D01*
X664Y267D01*
X664Y265D01*
X666Y265D01*
X666Y263D01*
X668Y263D01*
X668Y261D01*
X670Y261D01*
X670Y259D01*
X672Y259D01*
X672Y257D01*
X674Y257D01*
X674Y255D01*
X676Y255D01*
X676Y253D01*
X680Y253D01*
X680Y251D01*
X682Y251D01*
X682Y249D01*
X684Y249D01*
X684Y247D01*
X686Y247D01*
X686Y245D01*
X688Y245D01*
X688Y243D01*
X690Y243D01*
X690Y241D01*
X692Y241D01*
X692Y239D01*
X694Y239D01*
X694Y237D01*
X696Y237D01*
X696Y235D01*
X698Y235D01*
X698Y233D01*
X702Y233D01*
X702Y231D01*
X704Y231D01*
X704Y229D01*
X706Y229D01*
X706Y227D01*
X902Y227D01*
X902Y229D01*
X892Y229D01*
X892Y231D01*
X888Y231D01*
X888Y233D01*
X882Y233D01*
X882Y235D01*
X880Y235D01*
X880Y237D01*
X876Y237D01*
X876Y239D01*
X874Y239D01*
X874Y241D01*
X872Y241D01*
X872Y243D01*
X870Y243D01*
X870Y245D01*
X868Y245D01*
X868Y247D01*
X866Y247D01*
X866Y249D01*
X864Y249D01*
X864Y251D01*
X862Y251D01*
X862Y253D01*
X860Y253D01*
X860Y257D01*
X858Y257D01*
X858Y261D01*
X856Y261D01*
X856Y265D01*
X854Y265D01*
X854Y273D01*
X852Y273D01*
X852Y301D01*
X854Y301D01*
X854Y307D01*
X856Y307D01*
X856Y311D01*
X858Y311D01*
X858Y315D01*
X860Y315D01*
X860Y319D01*
X862Y319D01*
X862Y321D01*
X864Y321D01*
X864Y323D01*
X866Y323D01*
X866Y327D01*
X868Y327D01*
X868Y329D01*
X872Y329D01*
X872Y331D01*
X874Y331D01*
X874Y333D01*
X876Y333D01*
X876Y335D01*
X878Y335D01*
X878Y337D01*
X882Y337D01*
X882Y339D01*
X886Y339D01*
X886Y341D01*
X892Y341D01*
X892Y343D01*
X900Y343D01*
X900Y345D01*
X618Y345D01*
G37*
D02*
G36*
X920Y345D02*
X920Y343D01*
X928Y343D01*
X928Y341D01*
X934Y341D01*
X934Y339D01*
X938Y339D01*
X938Y337D01*
X940Y337D01*
X940Y335D01*
X944Y335D01*
X944Y333D01*
X946Y333D01*
X946Y331D01*
X948Y331D01*
X948Y329D01*
X952Y329D01*
X952Y325D01*
X954Y325D01*
X954Y323D01*
X956Y323D01*
X956Y321D01*
X958Y321D01*
X958Y319D01*
X960Y319D01*
X960Y315D01*
X962Y315D01*
X962Y311D01*
X964Y311D01*
X964Y307D01*
X966Y307D01*
X966Y299D01*
X968Y299D01*
X968Y273D01*
X966Y273D01*
X966Y267D01*
X964Y267D01*
X964Y261D01*
X962Y261D01*
X962Y257D01*
X960Y257D01*
X960Y255D01*
X958Y255D01*
X958Y251D01*
X956Y251D01*
X956Y249D01*
X954Y249D01*
X954Y247D01*
X952Y247D01*
X952Y245D01*
X950Y245D01*
X950Y243D01*
X948Y243D01*
X948Y241D01*
X946Y241D01*
X946Y239D01*
X944Y239D01*
X944Y237D01*
X940Y237D01*
X940Y235D01*
X936Y235D01*
X936Y233D01*
X932Y233D01*
X932Y231D01*
X926Y231D01*
X926Y229D01*
X918Y229D01*
X918Y227D01*
X1100Y227D01*
X1100Y229D01*
X1090Y229D01*
X1090Y231D01*
X1084Y231D01*
X1084Y233D01*
X1080Y233D01*
X1080Y235D01*
X1076Y235D01*
X1076Y237D01*
X1074Y237D01*
X1074Y239D01*
X1070Y239D01*
X1070Y241D01*
X1068Y241D01*
X1068Y243D01*
X1066Y243D01*
X1066Y245D01*
X1064Y245D01*
X1064Y247D01*
X1062Y247D01*
X1062Y249D01*
X1060Y249D01*
X1060Y253D01*
X1058Y253D01*
X1058Y255D01*
X1056Y255D01*
X1056Y259D01*
X1054Y259D01*
X1054Y263D01*
X1052Y263D01*
X1052Y267D01*
X1050Y267D01*
X1050Y277D01*
X1048Y277D01*
X1048Y297D01*
X1050Y297D01*
X1050Y305D01*
X1052Y305D01*
X1052Y309D01*
X1054Y309D01*
X1054Y313D01*
X1056Y313D01*
X1056Y317D01*
X1058Y317D01*
X1058Y321D01*
X1060Y321D01*
X1060Y323D01*
X1062Y323D01*
X1062Y325D01*
X1064Y325D01*
X1064Y327D01*
X1066Y327D01*
X1066Y329D01*
X1068Y329D01*
X1068Y331D01*
X1070Y331D01*
X1070Y333D01*
X1072Y333D01*
X1072Y335D01*
X1076Y335D01*
X1076Y337D01*
X1080Y337D01*
X1080Y339D01*
X1084Y339D01*
X1084Y341D01*
X1088Y341D01*
X1088Y343D01*
X1098Y343D01*
X1098Y345D01*
X920Y345D01*
G37*
D02*
G36*
X40Y247D02*
X40Y245D01*
X590Y245D01*
X590Y247D01*
X40Y247D01*
G37*
D02*
G36*
X40Y247D02*
X40Y245D01*
X590Y245D01*
X590Y247D01*
X40Y247D01*
G37*
D02*
G36*
X2692Y247D02*
X2692Y245D01*
X3084Y245D01*
X3084Y247D01*
X2692Y247D01*
G37*
D02*
G36*
X2692Y247D02*
X2692Y245D01*
X3084Y245D01*
X3084Y247D01*
X2692Y247D01*
G37*
D02*
G36*
X40Y245D02*
X40Y129D01*
X726Y129D01*
X726Y131D01*
X718Y131D01*
X718Y133D01*
X714Y133D01*
X714Y135D01*
X712Y135D01*
X712Y137D01*
X710Y137D01*
X710Y139D01*
X706Y139D01*
X706Y141D01*
X704Y141D01*
X704Y143D01*
X702Y143D01*
X702Y145D01*
X700Y145D01*
X700Y147D01*
X698Y147D01*
X698Y149D01*
X696Y149D01*
X696Y151D01*
X694Y151D01*
X694Y153D01*
X692Y153D01*
X692Y155D01*
X690Y155D01*
X690Y157D01*
X688Y157D01*
X688Y159D01*
X684Y159D01*
X684Y161D01*
X682Y161D01*
X682Y163D01*
X680Y163D01*
X680Y165D01*
X678Y165D01*
X678Y167D01*
X676Y167D01*
X676Y169D01*
X674Y169D01*
X674Y171D01*
X672Y171D01*
X672Y173D01*
X670Y173D01*
X670Y175D01*
X668Y175D01*
X668Y177D01*
X666Y177D01*
X666Y179D01*
X664Y179D01*
X664Y181D01*
X660Y181D01*
X660Y183D01*
X658Y183D01*
X658Y185D01*
X656Y185D01*
X656Y187D01*
X654Y187D01*
X654Y189D01*
X652Y189D01*
X652Y191D01*
X650Y191D01*
X650Y193D01*
X648Y193D01*
X648Y195D01*
X646Y195D01*
X646Y197D01*
X644Y197D01*
X644Y199D01*
X642Y199D01*
X642Y201D01*
X638Y201D01*
X638Y203D01*
X636Y203D01*
X636Y205D01*
X634Y205D01*
X634Y207D01*
X632Y207D01*
X632Y209D01*
X630Y209D01*
X630Y211D01*
X628Y211D01*
X628Y213D01*
X626Y213D01*
X626Y215D01*
X624Y215D01*
X624Y217D01*
X622Y217D01*
X622Y219D01*
X620Y219D01*
X620Y221D01*
X618Y221D01*
X618Y223D01*
X614Y223D01*
X614Y225D01*
X612Y225D01*
X612Y227D01*
X610Y227D01*
X610Y229D01*
X608Y229D01*
X608Y231D01*
X606Y231D01*
X606Y233D01*
X604Y233D01*
X604Y235D01*
X602Y235D01*
X602Y237D01*
X600Y237D01*
X600Y239D01*
X598Y239D01*
X598Y241D01*
X596Y241D01*
X596Y243D01*
X594Y243D01*
X594Y245D01*
X40Y245D01*
G37*
D02*
G36*
X2694Y245D02*
X2694Y243D01*
X2696Y243D01*
X2696Y241D01*
X2698Y241D01*
X2698Y239D01*
X2700Y239D01*
X2700Y237D01*
X2702Y237D01*
X2702Y235D01*
X2704Y235D01*
X2704Y233D01*
X2708Y233D01*
X2708Y231D01*
X2710Y231D01*
X2710Y229D01*
X2712Y229D01*
X2712Y227D01*
X2714Y227D01*
X2714Y225D01*
X2716Y225D01*
X2716Y223D01*
X2718Y223D01*
X2718Y221D01*
X2720Y221D01*
X2720Y219D01*
X2722Y219D01*
X2722Y217D01*
X2724Y217D01*
X2724Y215D01*
X2726Y215D01*
X2726Y213D01*
X2728Y213D01*
X2728Y211D01*
X2730Y211D01*
X2730Y209D01*
X2732Y209D01*
X2732Y207D01*
X2734Y207D01*
X2734Y205D01*
X2736Y205D01*
X2736Y203D01*
X2738Y203D01*
X2738Y201D01*
X2740Y201D01*
X2740Y199D01*
X2742Y199D01*
X2742Y197D01*
X2744Y197D01*
X2744Y195D01*
X2746Y195D01*
X2746Y193D01*
X3042Y193D01*
X3042Y195D01*
X3044Y195D01*
X3044Y197D01*
X3046Y197D01*
X3046Y199D01*
X3048Y199D01*
X3048Y203D01*
X3050Y203D01*
X3050Y205D01*
X3052Y205D01*
X3052Y207D01*
X3054Y207D01*
X3054Y209D01*
X3056Y209D01*
X3056Y211D01*
X3058Y211D01*
X3058Y215D01*
X3060Y215D01*
X3060Y217D01*
X3062Y217D01*
X3062Y219D01*
X3064Y219D01*
X3064Y221D01*
X3066Y221D01*
X3066Y225D01*
X3068Y225D01*
X3068Y227D01*
X3070Y227D01*
X3070Y229D01*
X3072Y229D01*
X3072Y231D01*
X3074Y231D01*
X3074Y235D01*
X3076Y235D01*
X3076Y237D01*
X3078Y237D01*
X3078Y239D01*
X3080Y239D01*
X3080Y241D01*
X3082Y241D01*
X3082Y245D01*
X2694Y245D01*
G37*
D02*
G36*
X708Y227D02*
X708Y225D01*
X2302Y225D01*
X2302Y227D01*
X708Y227D01*
G37*
D02*
G36*
X708Y227D02*
X708Y225D01*
X2302Y225D01*
X2302Y227D01*
X708Y227D01*
G37*
D02*
G36*
X708Y227D02*
X708Y225D01*
X2302Y225D01*
X2302Y227D01*
X708Y227D01*
G37*
D02*
G36*
X708Y227D02*
X708Y225D01*
X2302Y225D01*
X2302Y227D01*
X708Y227D01*
G37*
D02*
G36*
X708Y227D02*
X708Y225D01*
X2302Y225D01*
X2302Y227D01*
X708Y227D01*
G37*
D02*
G36*
X708Y227D02*
X708Y225D01*
X2302Y225D01*
X2302Y227D01*
X708Y227D01*
G37*
D02*
G36*
X708Y227D02*
X708Y225D01*
X2302Y225D01*
X2302Y227D01*
X708Y227D01*
G37*
D02*
G36*
X710Y225D02*
X710Y223D01*
X712Y223D01*
X712Y221D01*
X714Y221D01*
X714Y219D01*
X716Y219D01*
X716Y217D01*
X718Y217D01*
X718Y215D01*
X720Y215D01*
X720Y213D01*
X722Y213D01*
X722Y211D01*
X726Y211D01*
X726Y209D01*
X728Y209D01*
X728Y207D01*
X730Y207D01*
X730Y205D01*
X732Y205D01*
X732Y203D01*
X734Y203D01*
X734Y201D01*
X736Y201D01*
X736Y199D01*
X738Y199D01*
X738Y197D01*
X740Y197D01*
X740Y195D01*
X742Y195D01*
X742Y193D01*
X2270Y193D01*
X2270Y195D01*
X2272Y195D01*
X2272Y197D01*
X2274Y197D01*
X2274Y199D01*
X2276Y199D01*
X2276Y201D01*
X2278Y201D01*
X2278Y203D01*
X2280Y203D01*
X2280Y205D01*
X2282Y205D01*
X2282Y207D01*
X2284Y207D01*
X2284Y209D01*
X2286Y209D01*
X2286Y211D01*
X2288Y211D01*
X2288Y213D01*
X2290Y213D01*
X2290Y215D01*
X2292Y215D01*
X2292Y217D01*
X2294Y217D01*
X2294Y219D01*
X2296Y219D01*
X2296Y221D01*
X2298Y221D01*
X2298Y223D01*
X2300Y223D01*
X2300Y225D01*
X710Y225D01*
G37*
D02*
G36*
X40Y129D02*
X40Y127D01*
X3514Y127D01*
X3514Y129D01*
X40Y129D01*
G37*
D02*
G36*
X40Y129D02*
X40Y127D01*
X3514Y127D01*
X3514Y129D01*
X40Y129D01*
G37*
D02*
G36*
X40Y129D02*
X40Y127D01*
X3514Y127D01*
X3514Y129D01*
X40Y129D01*
G37*
D02*
G36*
X40Y127D02*
X40Y41D01*
X3514Y41D01*
X3514Y127D01*
X40Y127D01*
G37*
D02*
G04 End of Copper0*
M02*