G04 MADE WITH FRITZING*
G04 WWW.FRITZING.ORG*
G04 DOUBLE SIDED*
G04 HOLES PLATED*
G04 CONTOUR ON CENTER OF CONTOUR VECTOR*
%ASAXBY*%
%FSLAX23Y23*%
%MOIN*%
%OFA0B0*%
%SFA1.0B1.0*%
%ADD10C,0.068000*%
%ADD11C,0.068028*%
%ADD12C,0.049370*%
%ADD13C,0.079685*%
%ADD14C,0.117087*%
%ADD15C,0.135984*%
%ADD16C,0.072992*%
%ADD17C,0.076929*%
%ADD18C,0.088000*%
%LNMASK0*%
G90*
G70*
G54D10*
X826Y3109D03*
X826Y3009D03*
X826Y2909D03*
X826Y2809D03*
G54D11*
X826Y2709D03*
G54D10*
X826Y2609D03*
X826Y2509D03*
X826Y2409D03*
X826Y2309D03*
G54D11*
X826Y2209D03*
G54D10*
X826Y2109D03*
G54D11*
X826Y2009D03*
G54D10*
X826Y1909D03*
X826Y1809D03*
X826Y1709D03*
X826Y1609D03*
G54D11*
X826Y1509D03*
G54D10*
X826Y1409D03*
X826Y1309D03*
X826Y1209D03*
X726Y1209D03*
X726Y1309D03*
X726Y1409D03*
G54D11*
X726Y1509D03*
G54D10*
X726Y1609D03*
X726Y1709D03*
X726Y1809D03*
X726Y1909D03*
G54D11*
X726Y2009D03*
G54D10*
X726Y2109D03*
G54D11*
X726Y2209D03*
G54D10*
X726Y2309D03*
X726Y2409D03*
X726Y2509D03*
X726Y2609D03*
G54D11*
X726Y2709D03*
G54D10*
X726Y2809D03*
X726Y2909D03*
X726Y3009D03*
X726Y3109D03*
X826Y3109D03*
X826Y3009D03*
X826Y2909D03*
X826Y2809D03*
G54D11*
X826Y2709D03*
G54D10*
X826Y2609D03*
X826Y2509D03*
X826Y2409D03*
X826Y2309D03*
G54D11*
X826Y2209D03*
G54D10*
X826Y2109D03*
G54D11*
X826Y2009D03*
G54D10*
X826Y1909D03*
X826Y1809D03*
X826Y1709D03*
X826Y1609D03*
G54D11*
X826Y1509D03*
G54D10*
X826Y1409D03*
X826Y1309D03*
X826Y1209D03*
X726Y1209D03*
X726Y1309D03*
X726Y1409D03*
G54D11*
X726Y1509D03*
G54D10*
X726Y1609D03*
X726Y1709D03*
X726Y1809D03*
X726Y1909D03*
G54D11*
X726Y2009D03*
G54D10*
X726Y2109D03*
G54D11*
X726Y2209D03*
G54D10*
X726Y2309D03*
X726Y2409D03*
X726Y2509D03*
X726Y2609D03*
G54D11*
X726Y2709D03*
G54D10*
X726Y2809D03*
X726Y2909D03*
X726Y3009D03*
X726Y3109D03*
G54D12*
X949Y2357D03*
X949Y2160D03*
X3623Y3109D03*
X1224Y3183D03*
X1998Y2984D03*
X2048Y2934D03*
X2472Y3035D03*
X2148Y2809D03*
X1898Y2834D03*
X1275Y2533D03*
X548Y1759D03*
X598Y2334D03*
X598Y2185D03*
X3897Y3660D03*
X724Y3735D03*
X3623Y3559D03*
X622Y3335D03*
X1072Y3335D03*
X1073Y1709D03*
X949Y1710D03*
X3422Y3558D03*
X948Y2459D03*
X948Y2659D03*
X3623Y3659D03*
X123Y2984D03*
X173Y2734D03*
X3523Y3459D03*
X2898Y534D03*
G54D13*
X3510Y1234D03*
X3648Y1234D03*
X3510Y1584D03*
X3648Y1584D03*
X3510Y1934D03*
X3648Y1934D03*
X3510Y2284D03*
X3648Y2284D03*
G54D14*
X3183Y3284D03*
X3348Y3284D03*
X3513Y3284D03*
X3679Y3284D03*
G54D15*
X4148Y509D03*
X173Y509D03*
X4148Y3184D03*
X173Y3784D03*
G54D16*
X3898Y3559D03*
X3898Y3459D03*
X3898Y3359D03*
X3898Y3259D03*
X3898Y3159D03*
X3898Y3059D03*
X3898Y2959D03*
X3898Y2859D03*
X3898Y3559D03*
X3898Y3459D03*
X3898Y3359D03*
X3898Y3259D03*
X3898Y3159D03*
X3898Y3059D03*
X3898Y2959D03*
X3898Y2859D03*
X3998Y2859D03*
X3998Y2959D03*
X3998Y3059D03*
X3998Y3159D03*
X3998Y3259D03*
X3998Y3359D03*
X3998Y3459D03*
X3998Y3559D03*
G54D17*
X298Y3633D03*
X298Y3533D03*
X298Y3433D03*
X298Y3333D03*
X298Y3233D03*
X298Y3133D03*
X298Y3033D03*
X298Y2933D03*
X298Y2833D03*
X298Y2733D03*
X298Y2633D03*
X298Y2533D03*
X298Y2433D03*
X298Y2333D03*
X298Y2233D03*
X298Y2133D03*
X298Y2033D03*
X298Y1933D03*
X298Y1833D03*
X298Y1733D03*
X298Y3633D03*
X298Y3533D03*
X298Y3433D03*
X298Y3333D03*
X298Y3233D03*
X298Y3133D03*
X298Y3033D03*
X298Y2933D03*
X298Y2833D03*
X298Y2733D03*
X298Y2633D03*
X298Y2533D03*
X298Y2433D03*
X298Y2333D03*
X298Y2233D03*
X298Y2133D03*
X298Y2033D03*
X298Y1933D03*
X298Y1833D03*
X298Y1733D03*
X398Y1733D03*
X398Y1833D03*
X398Y1933D03*
X398Y2033D03*
X398Y2133D03*
X398Y2233D03*
X398Y2333D03*
X398Y2433D03*
X398Y2533D03*
X398Y2633D03*
X398Y2733D03*
X398Y2833D03*
X398Y2933D03*
X398Y3033D03*
X398Y3133D03*
X398Y3233D03*
X398Y3333D03*
X398Y3433D03*
X398Y3533D03*
X398Y3633D03*
G54D18*
X3998Y733D03*
X3998Y833D03*
X3998Y933D03*
X3998Y1033D03*
X3998Y1133D03*
X3998Y1233D03*
X3998Y1333D03*
X3998Y1433D03*
X3998Y1533D03*
X3998Y1633D03*
X3998Y1733D03*
X3998Y1833D03*
X3998Y1933D03*
X3998Y2033D03*
X3998Y2133D03*
X3998Y2233D03*
X3998Y2333D03*
X3998Y2433D03*
X3998Y2533D03*
X3998Y2633D03*
X3998Y733D03*
X3998Y833D03*
X3998Y933D03*
X3998Y1033D03*
X3998Y1133D03*
X3998Y1233D03*
X3998Y1333D03*
X3998Y1433D03*
X3998Y1533D03*
X3998Y1633D03*
X3998Y1733D03*
X3998Y1833D03*
X3998Y1933D03*
X3998Y2033D03*
X3998Y2133D03*
X3998Y2233D03*
X3998Y2333D03*
X3998Y2433D03*
X3998Y2533D03*
X3998Y2633D03*
X3898Y2633D03*
X3898Y2533D03*
X3898Y2433D03*
X3898Y2333D03*
X3898Y2233D03*
X3898Y2133D03*
X3898Y2033D03*
X3898Y1933D03*
X3898Y1833D03*
X3898Y1733D03*
X3898Y1633D03*
X3898Y1533D03*
X3898Y1433D03*
X3898Y1333D03*
X3898Y1233D03*
X3898Y1133D03*
X3898Y1033D03*
X3898Y933D03*
X3898Y833D03*
X3898Y733D03*
G04 End of Mask0*
M02*