; NON-PLATED HOLES START AT T1
; THROUGH (PLATED) HOLES START AT T100
M48
INCH
T1C0.125984
T2C0.058028
T3C0.058000
T100C0.038000
T101C0.030315
T102C0.039370
T103C0.015748
T104C0.075591
%
T1
X041478Y005089
X001728Y037839
X041478Y031839
X001728Y005089
T2
X007261Y027089
X008261Y022089
X007261Y020089
X007261Y022089
X007261Y015089
X008261Y027089
X008261Y015089
X008261Y020089
T3
X008261Y026089
X008261Y018089
X007261Y023089
X007261Y019089
X007261Y028089
X008261Y030089
X007261Y025089
X007261Y018089
X008261Y014089
X008261Y013089
X007261Y026089
X007261Y021089
X008261Y017089
X008261Y019089
X007261Y024089
X008261Y024089
X008261Y012089
X008261Y031089
X007261Y030089
X008261Y023089
X008261Y029089
X007261Y016089
X007261Y012089
X007261Y013089
X008261Y028089
X007261Y014089
X007261Y017089
X007261Y031089
X008261Y016089
X007261Y029089
X008261Y025089
X008261Y021089
T100
X039979Y011327
X038979Y011327
X038979Y009327
X038979Y018327
X039979Y013327
X039979Y018327
X039979Y017327
X038979Y010327
X039979Y023327
X038979Y014327
X039979Y016327
X038979Y022327
X039979Y021327
X039979Y015327
X039979Y010327
X039979Y019327
X039979Y008327
X038979Y021327
X038979Y013327
X038979Y007327
X038979Y020327
X038979Y024327
X038979Y015327
X038979Y016327
X039979Y014327
X038979Y025327
X038979Y019327
X039979Y009327
X038979Y026327
X039979Y024327
X039979Y020327
X039979Y025327
X038979Y012327
X039979Y022327
X038979Y008327
X039979Y026327
X039979Y007327
X039979Y012327
X038979Y017327
X038979Y023327
T101
X035100Y019339
X036478Y022839
X035100Y022839
X036478Y015839
X035100Y015839
X036478Y012339
X036478Y019339
X035100Y012339
T102
X003979Y030327
X003979Y035327
X002979Y035327
X003979Y018327
X002979Y019327
X003979Y024327
X002979Y025327
X002979Y024327
X002979Y032327
X002979Y031327
X003979Y023327
X038978Y031589
X002979Y036327
X003979Y025327
X038978Y030589
X002979Y020327
X039978Y030589
X002979Y030327
X039978Y035589
X003979Y028327
X039978Y032589
X003979Y027327
X003979Y019327
X003979Y029327
X003979Y021327
X002979Y022327
X038978Y028589
X002979Y028327
X002979Y033327
X003979Y017327
X002979Y026327
X003979Y031327
X038978Y035589
X039978Y034589
X038978Y033589
X002979Y018327
X039978Y028589
X003979Y032327
X038978Y034589
X003979Y020327
X039978Y029589
X002979Y017327
X003979Y036327
X002979Y021327
X038978Y032589
X003979Y022327
X002979Y023327
X002979Y034327
X003979Y026327
X038978Y029589
X003979Y033327
X002979Y027327
X003979Y034327
X039978Y031589
X039978Y033589
X002979Y029327
T103
X001728Y027339
X019978Y029839
X005984Y021848
X018978Y028341
X012240Y031826
X024715Y030346
X005478Y017589
X038967Y036603
X020482Y029343
X009485Y017101
X036228Y035589
X010718Y033349
X005984Y023344
X036228Y036589
X006219Y033349
X009478Y024589
X012745Y025325
X009478Y026589
X001228Y029839
X010728Y017089
X028978Y005339
X035228Y034589
X007237Y037347
X036228Y031089
X009489Y023574
X034215Y035584
X021484Y028090
X009489Y021604
T104
X031825Y032839
X033478Y032839
X036785Y032839
X035132Y032839
T00
M30
