; NON-PLATED HOLES START AT T1
; THROUGH (PLATED) HOLES START AT T100
M48
INCH
T100C0.015748
T101C0.030000
T102C0.038000
T103C0.035000
%
T100
X004222Y007998
X005216Y002251
X011722Y012248
X012466Y003999
T101
X016722Y007998
X013722Y007998
X011722Y007998
X014722Y007998
X012722Y007998
X015722Y007998
T102
X002722Y010248
X001722Y011248
X002722Y007248
X002722Y009248
X002722Y005248
X001722Y008248
X002722Y011248
X001722Y005248
X001722Y009248
X002722Y004248
X001722Y007248
X001722Y006248
X001722Y010248
X001722Y004248
X002722Y006248
X002722Y008248
T103
X018163Y004769
X008163Y002997
X013163Y006519
X015722Y003019
X013163Y001248
X015722Y004748
X008163Y004769
X020722Y004769
X010722Y002997
X018163Y002997
X010722Y004769
X013163Y004748
X015722Y001248
X013163Y003019
X020722Y002997
X015722Y006519
T00
M30
