G04 MADE WITH FRITZING*
G04 WWW.FRITZING.ORG*
G04 DOUBLE SIDED*
G04 HOLES PLATED*
G04 CONTOUR ON CENTER OF CONTOUR VECTOR*
%ASAXBY*%
%FSLAX23Y23*%
%MOIN*%
%OFA0B0*%
%SFA1.0B1.0*%
%ADD10C,0.039370*%
%ADD11C,0.070000*%
%ADD12C,0.075000*%
%ADD13C,0.078000*%
%ADD14C,0.024000*%
%ADD15R,0.001000X0.001000*%
%LNCOPPER0*%
G90*
G70*
G54D10*
X422Y800D03*
X522Y225D03*
X1247Y400D03*
X1172Y1225D03*
G54D11*
X1172Y800D03*
X1272Y800D03*
X1372Y800D03*
X1472Y800D03*
X1572Y800D03*
X1672Y800D03*
G54D12*
X2072Y300D03*
X1816Y300D03*
X2072Y477D03*
X1816Y477D03*
X1072Y300D03*
X816Y300D03*
X1072Y477D03*
X816Y477D03*
X1316Y302D03*
X1572Y302D03*
X1316Y125D03*
X1572Y125D03*
X1572Y475D03*
X1316Y475D03*
X1572Y652D03*
X1316Y652D03*
G54D13*
X172Y1125D03*
X172Y1025D03*
X172Y925D03*
X172Y825D03*
X172Y725D03*
X172Y625D03*
X172Y525D03*
X172Y425D03*
X172Y1125D03*
X172Y1025D03*
X172Y925D03*
X172Y825D03*
X172Y725D03*
X172Y625D03*
X172Y525D03*
X172Y425D03*
X272Y425D03*
X272Y525D03*
X272Y625D03*
X272Y725D03*
X272Y825D03*
X272Y925D03*
X272Y1025D03*
X272Y1125D03*
G54D14*
X423Y975D02*
X372Y1024D01*
D02*
X372Y1024D02*
X302Y1025D01*
D02*
X422Y819D02*
X423Y975D01*
D02*
X788Y300D02*
X323Y299D01*
D02*
X323Y299D02*
X272Y350D01*
D02*
X272Y350D02*
X272Y395D01*
D02*
X1288Y302D02*
X1101Y300D01*
D02*
X1316Y446D02*
X1316Y331D01*
D02*
X1601Y302D02*
X1788Y300D01*
D02*
X1572Y331D02*
X1572Y446D01*
D02*
X72Y174D02*
X72Y550D01*
D02*
X72Y550D02*
X148Y607D01*
D02*
X121Y125D02*
X72Y174D01*
D02*
X447Y225D02*
X372Y125D01*
D02*
X597Y225D02*
X541Y225D01*
D02*
X372Y125D02*
X121Y125D01*
D02*
X672Y125D02*
X597Y225D01*
D02*
X503Y225D02*
X447Y225D01*
D02*
X1288Y125D02*
X672Y125D01*
D02*
X422Y675D02*
X372Y724D01*
D02*
X422Y525D02*
X422Y675D01*
D02*
X372Y724D02*
X302Y725D01*
D02*
X471Y475D02*
X422Y525D01*
D02*
X788Y477D02*
X471Y475D01*
D02*
X1472Y574D02*
X1552Y495D01*
D02*
X1472Y774D02*
X1472Y574D01*
D02*
X1544Y475D02*
X1345Y475D01*
D02*
X1228Y400D02*
X398Y400D01*
D02*
X347Y449D02*
X347Y574D01*
D02*
X347Y574D02*
X297Y608D01*
D02*
X398Y400D02*
X347Y449D01*
D02*
X97Y1324D02*
X48Y1275D01*
D02*
X98Y825D02*
X142Y825D01*
D02*
X48Y875D02*
X98Y825D01*
D02*
X48Y1275D02*
X48Y875D01*
D02*
X1222Y1324D02*
X97Y1324D01*
D02*
X1372Y1174D02*
X1222Y1324D01*
D02*
X1372Y826D02*
X1372Y1174D01*
D02*
X1172Y826D02*
X1172Y1206D01*
G54D15*
X1165Y835D02*
X1178Y835D01*
X1265Y835D02*
X1278Y835D01*
X1365Y835D02*
X1378Y835D01*
X1465Y835D02*
X1478Y835D01*
X1565Y835D02*
X1578Y835D01*
X1665Y835D02*
X1678Y835D01*
X1161Y834D02*
X1182Y834D01*
X1261Y834D02*
X1282Y834D01*
X1361Y834D02*
X1382Y834D01*
X1461Y834D02*
X1482Y834D01*
X1561Y834D02*
X1582Y834D01*
X1661Y834D02*
X1682Y834D01*
X1159Y833D02*
X1185Y833D01*
X1259Y833D02*
X1285Y833D01*
X1359Y833D02*
X1385Y833D01*
X1459Y833D02*
X1485Y833D01*
X1559Y833D02*
X1585Y833D01*
X1659Y833D02*
X1685Y833D01*
X1157Y832D02*
X1187Y832D01*
X1257Y832D02*
X1287Y832D01*
X1357Y832D02*
X1387Y832D01*
X1457Y832D02*
X1487Y832D01*
X1557Y832D02*
X1587Y832D01*
X1657Y832D02*
X1687Y832D01*
X1155Y831D02*
X1189Y831D01*
X1255Y831D02*
X1289Y831D01*
X1355Y831D02*
X1389Y831D01*
X1455Y831D02*
X1489Y831D01*
X1555Y831D02*
X1589Y831D01*
X1655Y831D02*
X1689Y831D01*
X1153Y830D02*
X1190Y830D01*
X1253Y830D02*
X1290Y830D01*
X1353Y830D02*
X1390Y830D01*
X1453Y830D02*
X1490Y830D01*
X1553Y830D02*
X1590Y830D01*
X1653Y830D02*
X1690Y830D01*
X1152Y829D02*
X1192Y829D01*
X1252Y829D02*
X1292Y829D01*
X1352Y829D02*
X1392Y829D01*
X1452Y829D02*
X1492Y829D01*
X1552Y829D02*
X1592Y829D01*
X1652Y829D02*
X1692Y829D01*
X1150Y828D02*
X1193Y828D01*
X1250Y828D02*
X1293Y828D01*
X1350Y828D02*
X1393Y828D01*
X1450Y828D02*
X1493Y828D01*
X1550Y828D02*
X1593Y828D01*
X1650Y828D02*
X1693Y828D01*
X1149Y827D02*
X1194Y827D01*
X1249Y827D02*
X1294Y827D01*
X1349Y827D02*
X1394Y827D01*
X1449Y827D02*
X1494Y827D01*
X1549Y827D02*
X1594Y827D01*
X1649Y827D02*
X1694Y827D01*
X1148Y826D02*
X1196Y826D01*
X1248Y826D02*
X1296Y826D01*
X1348Y826D02*
X1396Y826D01*
X1448Y826D02*
X1496Y826D01*
X1548Y826D02*
X1596Y826D01*
X1648Y826D02*
X1696Y826D01*
X1147Y825D02*
X1196Y825D01*
X1247Y825D02*
X1296Y825D01*
X1347Y825D02*
X1396Y825D01*
X1447Y825D02*
X1496Y825D01*
X1547Y825D02*
X1596Y825D01*
X1647Y825D02*
X1696Y825D01*
X1146Y824D02*
X1197Y824D01*
X1246Y824D02*
X1297Y824D01*
X1346Y824D02*
X1397Y824D01*
X1446Y824D02*
X1497Y824D01*
X1546Y824D02*
X1597Y824D01*
X1646Y824D02*
X1697Y824D01*
X1145Y823D02*
X1198Y823D01*
X1245Y823D02*
X1298Y823D01*
X1345Y823D02*
X1398Y823D01*
X1445Y823D02*
X1498Y823D01*
X1545Y823D02*
X1598Y823D01*
X1645Y823D02*
X1698Y823D01*
X1144Y822D02*
X1199Y822D01*
X1244Y822D02*
X1299Y822D01*
X1344Y822D02*
X1399Y822D01*
X1444Y822D02*
X1499Y822D01*
X1544Y822D02*
X1599Y822D01*
X1644Y822D02*
X1699Y822D01*
X1144Y821D02*
X1200Y821D01*
X1244Y821D02*
X1300Y821D01*
X1344Y821D02*
X1400Y821D01*
X1444Y821D02*
X1500Y821D01*
X1544Y821D02*
X1600Y821D01*
X1644Y821D02*
X1700Y821D01*
X1143Y820D02*
X1200Y820D01*
X1243Y820D02*
X1300Y820D01*
X1343Y820D02*
X1400Y820D01*
X1443Y820D02*
X1500Y820D01*
X1543Y820D02*
X1600Y820D01*
X1643Y820D02*
X1700Y820D01*
X1142Y819D02*
X1201Y819D01*
X1242Y819D02*
X1301Y819D01*
X1342Y819D02*
X1401Y819D01*
X1442Y819D02*
X1501Y819D01*
X1542Y819D02*
X1601Y819D01*
X1642Y819D02*
X1701Y819D01*
X1142Y818D02*
X1202Y818D01*
X1242Y818D02*
X1302Y818D01*
X1342Y818D02*
X1402Y818D01*
X1442Y818D02*
X1502Y818D01*
X1542Y818D02*
X1602Y818D01*
X1642Y818D02*
X1702Y818D01*
X1141Y817D02*
X1202Y817D01*
X1241Y817D02*
X1302Y817D01*
X1341Y817D02*
X1402Y817D01*
X1441Y817D02*
X1502Y817D01*
X1541Y817D02*
X1602Y817D01*
X1641Y817D02*
X1702Y817D01*
X1141Y816D02*
X1203Y816D01*
X1241Y816D02*
X1303Y816D01*
X1341Y816D02*
X1403Y816D01*
X1441Y816D02*
X1503Y816D01*
X1541Y816D02*
X1603Y816D01*
X1641Y816D02*
X1703Y816D01*
X1140Y815D02*
X1166Y815D01*
X1178Y815D02*
X1203Y815D01*
X1240Y815D02*
X1266Y815D01*
X1278Y815D02*
X1303Y815D01*
X1340Y815D02*
X1366Y815D01*
X1378Y815D02*
X1403Y815D01*
X1440Y815D02*
X1466Y815D01*
X1478Y815D02*
X1503Y815D01*
X1540Y815D02*
X1566Y815D01*
X1578Y815D02*
X1603Y815D01*
X1640Y815D02*
X1666Y815D01*
X1678Y815D02*
X1703Y815D01*
X1140Y814D02*
X1164Y814D01*
X1180Y814D02*
X1203Y814D01*
X1240Y814D02*
X1264Y814D01*
X1280Y814D02*
X1303Y814D01*
X1340Y814D02*
X1364Y814D01*
X1380Y814D02*
X1403Y814D01*
X1440Y814D02*
X1464Y814D01*
X1480Y814D02*
X1503Y814D01*
X1540Y814D02*
X1564Y814D01*
X1580Y814D02*
X1603Y814D01*
X1640Y814D02*
X1664Y814D01*
X1680Y814D02*
X1703Y814D01*
X1140Y813D02*
X1162Y813D01*
X1181Y813D02*
X1204Y813D01*
X1240Y813D02*
X1262Y813D01*
X1281Y813D02*
X1304Y813D01*
X1340Y813D02*
X1362Y813D01*
X1381Y813D02*
X1404Y813D01*
X1440Y813D02*
X1462Y813D01*
X1481Y813D02*
X1504Y813D01*
X1540Y813D02*
X1562Y813D01*
X1581Y813D02*
X1604Y813D01*
X1640Y813D02*
X1662Y813D01*
X1681Y813D02*
X1704Y813D01*
X1139Y812D02*
X1161Y812D01*
X1182Y812D02*
X1204Y812D01*
X1239Y812D02*
X1261Y812D01*
X1282Y812D02*
X1304Y812D01*
X1339Y812D02*
X1361Y812D01*
X1382Y812D02*
X1404Y812D01*
X1439Y812D02*
X1461Y812D01*
X1482Y812D02*
X1504Y812D01*
X1539Y812D02*
X1561Y812D01*
X1582Y812D02*
X1604Y812D01*
X1639Y812D02*
X1661Y812D01*
X1682Y812D02*
X1704Y812D01*
X1139Y811D02*
X1160Y811D01*
X1183Y811D02*
X1205Y811D01*
X1239Y811D02*
X1260Y811D01*
X1283Y811D02*
X1305Y811D01*
X1339Y811D02*
X1360Y811D01*
X1383Y811D02*
X1405Y811D01*
X1439Y811D02*
X1460Y811D01*
X1483Y811D02*
X1505Y811D01*
X1539Y811D02*
X1560Y811D01*
X1583Y811D02*
X1605Y811D01*
X1639Y811D02*
X1660Y811D01*
X1683Y811D02*
X1705Y811D01*
X1139Y810D02*
X1159Y810D01*
X1184Y810D02*
X1205Y810D01*
X1239Y810D02*
X1259Y810D01*
X1284Y810D02*
X1305Y810D01*
X1339Y810D02*
X1359Y810D01*
X1384Y810D02*
X1405Y810D01*
X1439Y810D02*
X1459Y810D01*
X1484Y810D02*
X1505Y810D01*
X1539Y810D02*
X1559Y810D01*
X1584Y810D02*
X1605Y810D01*
X1639Y810D02*
X1659Y810D01*
X1684Y810D02*
X1705Y810D01*
X1138Y809D02*
X1158Y809D01*
X1185Y809D02*
X1205Y809D01*
X1238Y809D02*
X1258Y809D01*
X1285Y809D02*
X1305Y809D01*
X1338Y809D02*
X1358Y809D01*
X1385Y809D02*
X1405Y809D01*
X1438Y809D02*
X1458Y809D01*
X1485Y809D02*
X1505Y809D01*
X1538Y809D02*
X1558Y809D01*
X1585Y809D02*
X1605Y809D01*
X1638Y809D02*
X1658Y809D01*
X1685Y809D02*
X1705Y809D01*
X1138Y808D02*
X1158Y808D01*
X1186Y808D02*
X1205Y808D01*
X1238Y808D02*
X1258Y808D01*
X1286Y808D02*
X1305Y808D01*
X1338Y808D02*
X1358Y808D01*
X1386Y808D02*
X1405Y808D01*
X1438Y808D02*
X1458Y808D01*
X1486Y808D02*
X1505Y808D01*
X1538Y808D02*
X1558Y808D01*
X1585Y808D02*
X1605Y808D01*
X1638Y808D02*
X1658Y808D01*
X1685Y808D02*
X1705Y808D01*
X1138Y807D02*
X1157Y807D01*
X1186Y807D02*
X1206Y807D01*
X1238Y807D02*
X1257Y807D01*
X1286Y807D02*
X1306Y807D01*
X1338Y807D02*
X1357Y807D01*
X1386Y807D02*
X1406Y807D01*
X1438Y807D02*
X1457Y807D01*
X1486Y807D02*
X1506Y807D01*
X1538Y807D02*
X1557Y807D01*
X1586Y807D02*
X1606Y807D01*
X1638Y807D02*
X1657Y807D01*
X1686Y807D02*
X1706Y807D01*
X1138Y806D02*
X1157Y806D01*
X1186Y806D02*
X1206Y806D01*
X1238Y806D02*
X1257Y806D01*
X1286Y806D02*
X1306Y806D01*
X1338Y806D02*
X1357Y806D01*
X1386Y806D02*
X1406Y806D01*
X1438Y806D02*
X1457Y806D01*
X1486Y806D02*
X1506Y806D01*
X1538Y806D02*
X1557Y806D01*
X1586Y806D02*
X1606Y806D01*
X1638Y806D02*
X1657Y806D01*
X1686Y806D02*
X1706Y806D01*
X1138Y805D02*
X1157Y805D01*
X1187Y805D02*
X1206Y805D01*
X1238Y805D02*
X1257Y805D01*
X1287Y805D02*
X1306Y805D01*
X1338Y805D02*
X1357Y805D01*
X1387Y805D02*
X1406Y805D01*
X1438Y805D02*
X1457Y805D01*
X1487Y805D02*
X1506Y805D01*
X1538Y805D02*
X1557Y805D01*
X1587Y805D02*
X1606Y805D01*
X1638Y805D02*
X1657Y805D01*
X1687Y805D02*
X1706Y805D01*
X1137Y804D02*
X1156Y804D01*
X1187Y804D02*
X1206Y804D01*
X1237Y804D02*
X1256Y804D01*
X1287Y804D02*
X1306Y804D01*
X1337Y804D02*
X1356Y804D01*
X1387Y804D02*
X1406Y804D01*
X1437Y804D02*
X1456Y804D01*
X1487Y804D02*
X1506Y804D01*
X1537Y804D02*
X1556Y804D01*
X1587Y804D02*
X1606Y804D01*
X1637Y804D02*
X1656Y804D01*
X1687Y804D02*
X1706Y804D01*
X1137Y803D02*
X1156Y803D01*
X1187Y803D02*
X1206Y803D01*
X1237Y803D02*
X1256Y803D01*
X1287Y803D02*
X1306Y803D01*
X1337Y803D02*
X1356Y803D01*
X1387Y803D02*
X1406Y803D01*
X1437Y803D02*
X1456Y803D01*
X1487Y803D02*
X1506Y803D01*
X1537Y803D02*
X1556Y803D01*
X1587Y803D02*
X1606Y803D01*
X1637Y803D02*
X1656Y803D01*
X1687Y803D02*
X1706Y803D01*
X1137Y802D02*
X1156Y802D01*
X1187Y802D02*
X1206Y802D01*
X1237Y802D02*
X1256Y802D01*
X1287Y802D02*
X1306Y802D01*
X1337Y802D02*
X1356Y802D01*
X1387Y802D02*
X1406Y802D01*
X1437Y802D02*
X1456Y802D01*
X1487Y802D02*
X1506Y802D01*
X1537Y802D02*
X1556Y802D01*
X1587Y802D02*
X1606Y802D01*
X1637Y802D02*
X1656Y802D01*
X1687Y802D02*
X1706Y802D01*
X1137Y801D02*
X1156Y801D01*
X1187Y801D02*
X1206Y801D01*
X1237Y801D02*
X1256Y801D01*
X1287Y801D02*
X1306Y801D01*
X1337Y801D02*
X1356Y801D01*
X1387Y801D02*
X1406Y801D01*
X1437Y801D02*
X1456Y801D01*
X1487Y801D02*
X1506Y801D01*
X1537Y801D02*
X1556Y801D01*
X1587Y801D02*
X1606Y801D01*
X1637Y801D02*
X1656Y801D01*
X1687Y801D02*
X1706Y801D01*
X1137Y800D02*
X1156Y800D01*
X1187Y800D02*
X1206Y800D01*
X1237Y800D02*
X1256Y800D01*
X1287Y800D02*
X1306Y800D01*
X1337Y800D02*
X1356Y800D01*
X1387Y800D02*
X1406Y800D01*
X1437Y800D02*
X1456Y800D01*
X1487Y800D02*
X1506Y800D01*
X1537Y800D02*
X1556Y800D01*
X1587Y800D02*
X1606Y800D01*
X1637Y800D02*
X1656Y800D01*
X1687Y800D02*
X1706Y800D01*
X1137Y799D02*
X1156Y799D01*
X1187Y799D02*
X1206Y799D01*
X1237Y799D02*
X1256Y799D01*
X1287Y799D02*
X1306Y799D01*
X1337Y799D02*
X1356Y799D01*
X1387Y799D02*
X1406Y799D01*
X1437Y799D02*
X1456Y799D01*
X1487Y799D02*
X1506Y799D01*
X1537Y799D02*
X1556Y799D01*
X1587Y799D02*
X1606Y799D01*
X1637Y799D02*
X1656Y799D01*
X1687Y799D02*
X1706Y799D01*
X1137Y798D02*
X1156Y798D01*
X1187Y798D02*
X1206Y798D01*
X1237Y798D02*
X1256Y798D01*
X1287Y798D02*
X1306Y798D01*
X1337Y798D02*
X1356Y798D01*
X1387Y798D02*
X1406Y798D01*
X1437Y798D02*
X1456Y798D01*
X1487Y798D02*
X1506Y798D01*
X1537Y798D02*
X1556Y798D01*
X1587Y798D02*
X1606Y798D01*
X1637Y798D02*
X1656Y798D01*
X1687Y798D02*
X1706Y798D01*
X1137Y797D02*
X1157Y797D01*
X1187Y797D02*
X1206Y797D01*
X1237Y797D02*
X1257Y797D01*
X1287Y797D02*
X1306Y797D01*
X1337Y797D02*
X1357Y797D01*
X1387Y797D02*
X1406Y797D01*
X1437Y797D02*
X1457Y797D01*
X1487Y797D02*
X1506Y797D01*
X1537Y797D02*
X1557Y797D01*
X1587Y797D02*
X1606Y797D01*
X1637Y797D02*
X1657Y797D01*
X1687Y797D02*
X1706Y797D01*
X1138Y796D02*
X1157Y796D01*
X1186Y796D02*
X1206Y796D01*
X1238Y796D02*
X1257Y796D01*
X1286Y796D02*
X1306Y796D01*
X1338Y796D02*
X1357Y796D01*
X1386Y796D02*
X1406Y796D01*
X1438Y796D02*
X1457Y796D01*
X1486Y796D02*
X1506Y796D01*
X1538Y796D02*
X1557Y796D01*
X1586Y796D02*
X1606Y796D01*
X1638Y796D02*
X1657Y796D01*
X1686Y796D02*
X1706Y796D01*
X1138Y795D02*
X1157Y795D01*
X1186Y795D02*
X1206Y795D01*
X1238Y795D02*
X1257Y795D01*
X1286Y795D02*
X1306Y795D01*
X1338Y795D02*
X1357Y795D01*
X1386Y795D02*
X1406Y795D01*
X1438Y795D02*
X1457Y795D01*
X1486Y795D02*
X1506Y795D01*
X1538Y795D02*
X1557Y795D01*
X1586Y795D02*
X1606Y795D01*
X1638Y795D02*
X1657Y795D01*
X1686Y795D02*
X1706Y795D01*
X1138Y794D02*
X1158Y794D01*
X1186Y794D02*
X1205Y794D01*
X1238Y794D02*
X1258Y794D01*
X1286Y794D02*
X1305Y794D01*
X1338Y794D02*
X1358Y794D01*
X1386Y794D02*
X1405Y794D01*
X1438Y794D02*
X1458Y794D01*
X1486Y794D02*
X1505Y794D01*
X1538Y794D02*
X1558Y794D01*
X1586Y794D02*
X1605Y794D01*
X1638Y794D02*
X1658Y794D01*
X1686Y794D02*
X1705Y794D01*
X1138Y793D02*
X1158Y793D01*
X1185Y793D02*
X1205Y793D01*
X1238Y793D02*
X1258Y793D01*
X1285Y793D02*
X1305Y793D01*
X1338Y793D02*
X1358Y793D01*
X1385Y793D02*
X1405Y793D01*
X1438Y793D02*
X1458Y793D01*
X1485Y793D02*
X1505Y793D01*
X1538Y793D02*
X1558Y793D01*
X1585Y793D02*
X1605Y793D01*
X1638Y793D02*
X1658Y793D01*
X1685Y793D02*
X1705Y793D01*
X1139Y792D02*
X1159Y792D01*
X1184Y792D02*
X1205Y792D01*
X1239Y792D02*
X1259Y792D01*
X1284Y792D02*
X1305Y792D01*
X1339Y792D02*
X1359Y792D01*
X1384Y792D02*
X1405Y792D01*
X1439Y792D02*
X1459Y792D01*
X1484Y792D02*
X1505Y792D01*
X1539Y792D02*
X1559Y792D01*
X1584Y792D02*
X1605Y792D01*
X1639Y792D02*
X1659Y792D01*
X1684Y792D02*
X1705Y792D01*
X1139Y791D02*
X1160Y791D01*
X1183Y791D02*
X1205Y791D01*
X1239Y791D02*
X1260Y791D01*
X1283Y791D02*
X1305Y791D01*
X1339Y791D02*
X1360Y791D01*
X1383Y791D02*
X1405Y791D01*
X1439Y791D02*
X1460Y791D01*
X1483Y791D02*
X1505Y791D01*
X1539Y791D02*
X1560Y791D01*
X1583Y791D02*
X1605Y791D01*
X1639Y791D02*
X1660Y791D01*
X1683Y791D02*
X1705Y791D01*
X1139Y790D02*
X1161Y790D01*
X1182Y790D02*
X1204Y790D01*
X1239Y790D02*
X1261Y790D01*
X1282Y790D02*
X1304Y790D01*
X1339Y790D02*
X1361Y790D01*
X1382Y790D02*
X1404Y790D01*
X1439Y790D02*
X1461Y790D01*
X1482Y790D02*
X1504Y790D01*
X1539Y790D02*
X1561Y790D01*
X1582Y790D02*
X1604Y790D01*
X1639Y790D02*
X1661Y790D01*
X1682Y790D02*
X1704Y790D01*
X1140Y789D02*
X1162Y789D01*
X1181Y789D02*
X1204Y789D01*
X1239Y789D02*
X1262Y789D01*
X1281Y789D02*
X1304Y789D01*
X1339Y789D02*
X1362Y789D01*
X1381Y789D02*
X1404Y789D01*
X1439Y789D02*
X1462Y789D01*
X1481Y789D02*
X1504Y789D01*
X1539Y789D02*
X1562Y789D01*
X1581Y789D02*
X1604Y789D01*
X1639Y789D02*
X1662Y789D01*
X1681Y789D02*
X1704Y789D01*
X1140Y788D02*
X1163Y788D01*
X1180Y788D02*
X1204Y788D01*
X1240Y788D02*
X1263Y788D01*
X1280Y788D02*
X1304Y788D01*
X1340Y788D02*
X1363Y788D01*
X1380Y788D02*
X1404Y788D01*
X1440Y788D02*
X1463Y788D01*
X1480Y788D02*
X1504Y788D01*
X1540Y788D02*
X1563Y788D01*
X1580Y788D02*
X1603Y788D01*
X1640Y788D02*
X1663Y788D01*
X1680Y788D02*
X1703Y788D01*
X1140Y787D02*
X1165Y787D01*
X1178Y787D02*
X1203Y787D01*
X1240Y787D02*
X1265Y787D01*
X1278Y787D02*
X1303Y787D01*
X1340Y787D02*
X1365Y787D01*
X1378Y787D02*
X1403Y787D01*
X1440Y787D02*
X1465Y787D01*
X1478Y787D02*
X1503Y787D01*
X1540Y787D02*
X1565Y787D01*
X1578Y787D02*
X1603Y787D01*
X1640Y787D02*
X1665Y787D01*
X1678Y787D02*
X1703Y787D01*
X1141Y786D02*
X1170Y786D01*
X1173Y786D02*
X1203Y786D01*
X1241Y786D02*
X1270Y786D01*
X1273Y786D02*
X1303Y786D01*
X1341Y786D02*
X1370Y786D01*
X1373Y786D02*
X1403Y786D01*
X1441Y786D02*
X1470Y786D01*
X1473Y786D02*
X1503Y786D01*
X1541Y786D02*
X1570Y786D01*
X1573Y786D02*
X1603Y786D01*
X1641Y786D02*
X1670Y786D01*
X1673Y786D02*
X1703Y786D01*
X1141Y785D02*
X1202Y785D01*
X1241Y785D02*
X1302Y785D01*
X1341Y785D02*
X1402Y785D01*
X1441Y785D02*
X1502Y785D01*
X1541Y785D02*
X1602Y785D01*
X1641Y785D02*
X1702Y785D01*
X1142Y784D02*
X1202Y784D01*
X1242Y784D02*
X1302Y784D01*
X1342Y784D02*
X1402Y784D01*
X1442Y784D02*
X1502Y784D01*
X1542Y784D02*
X1602Y784D01*
X1642Y784D02*
X1702Y784D01*
X1142Y783D02*
X1201Y783D01*
X1242Y783D02*
X1301Y783D01*
X1342Y783D02*
X1401Y783D01*
X1442Y783D02*
X1501Y783D01*
X1542Y783D02*
X1601Y783D01*
X1642Y783D02*
X1701Y783D01*
X1143Y782D02*
X1200Y782D01*
X1243Y782D02*
X1300Y782D01*
X1343Y782D02*
X1400Y782D01*
X1443Y782D02*
X1500Y782D01*
X1543Y782D02*
X1600Y782D01*
X1643Y782D02*
X1700Y782D01*
X1144Y781D02*
X1200Y781D01*
X1244Y781D02*
X1300Y781D01*
X1344Y781D02*
X1400Y781D01*
X1444Y781D02*
X1500Y781D01*
X1544Y781D02*
X1600Y781D01*
X1644Y781D02*
X1700Y781D01*
X1144Y780D02*
X1199Y780D01*
X1244Y780D02*
X1299Y780D01*
X1344Y780D02*
X1399Y780D01*
X1444Y780D02*
X1499Y780D01*
X1544Y780D02*
X1599Y780D01*
X1644Y780D02*
X1699Y780D01*
X1145Y779D02*
X1198Y779D01*
X1245Y779D02*
X1298Y779D01*
X1345Y779D02*
X1398Y779D01*
X1445Y779D02*
X1498Y779D01*
X1545Y779D02*
X1598Y779D01*
X1645Y779D02*
X1698Y779D01*
X1146Y778D02*
X1198Y778D01*
X1246Y778D02*
X1298Y778D01*
X1346Y778D02*
X1398Y778D01*
X1446Y778D02*
X1498Y778D01*
X1546Y778D02*
X1598Y778D01*
X1646Y778D02*
X1698Y778D01*
X1147Y777D02*
X1197Y777D01*
X1247Y777D02*
X1297Y777D01*
X1347Y777D02*
X1397Y777D01*
X1447Y777D02*
X1497Y777D01*
X1547Y777D02*
X1597Y777D01*
X1647Y777D02*
X1697Y777D01*
X1148Y776D02*
X1196Y776D01*
X1248Y776D02*
X1296Y776D01*
X1348Y776D02*
X1396Y776D01*
X1448Y776D02*
X1496Y776D01*
X1548Y776D02*
X1596Y776D01*
X1648Y776D02*
X1696Y776D01*
X1149Y775D02*
X1195Y775D01*
X1249Y775D02*
X1295Y775D01*
X1349Y775D02*
X1395Y775D01*
X1449Y775D02*
X1495Y775D01*
X1549Y775D02*
X1595Y775D01*
X1649Y775D02*
X1695Y775D01*
X1150Y774D02*
X1193Y774D01*
X1250Y774D02*
X1293Y774D01*
X1350Y774D02*
X1393Y774D01*
X1450Y774D02*
X1493Y774D01*
X1550Y774D02*
X1593Y774D01*
X1650Y774D02*
X1693Y774D01*
X1151Y773D02*
X1192Y773D01*
X1251Y773D02*
X1292Y773D01*
X1351Y773D02*
X1392Y773D01*
X1451Y773D02*
X1492Y773D01*
X1551Y773D02*
X1592Y773D01*
X1651Y773D02*
X1692Y773D01*
X1153Y772D02*
X1191Y772D01*
X1253Y772D02*
X1291Y772D01*
X1353Y772D02*
X1391Y772D01*
X1453Y772D02*
X1491Y772D01*
X1553Y772D02*
X1591Y772D01*
X1653Y772D02*
X1691Y772D01*
X1154Y771D02*
X1189Y771D01*
X1254Y771D02*
X1289Y771D01*
X1354Y771D02*
X1389Y771D01*
X1454Y771D02*
X1489Y771D01*
X1554Y771D02*
X1589Y771D01*
X1654Y771D02*
X1689Y771D01*
X1156Y770D02*
X1187Y770D01*
X1256Y770D02*
X1287Y770D01*
X1356Y770D02*
X1387Y770D01*
X1456Y770D02*
X1487Y770D01*
X1556Y770D02*
X1587Y770D01*
X1656Y770D02*
X1687Y770D01*
X1158Y769D02*
X1185Y769D01*
X1258Y769D02*
X1285Y769D01*
X1358Y769D02*
X1385Y769D01*
X1458Y769D02*
X1485Y769D01*
X1558Y769D02*
X1585Y769D01*
X1658Y769D02*
X1685Y769D01*
X1161Y768D02*
X1182Y768D01*
X1261Y768D02*
X1282Y768D01*
X1361Y768D02*
X1382Y768D01*
X1461Y768D02*
X1482Y768D01*
X1561Y768D02*
X1582Y768D01*
X1661Y768D02*
X1682Y768D01*
X1164Y767D02*
X1179Y767D01*
X1264Y767D02*
X1279Y767D01*
X1364Y767D02*
X1379Y767D01*
X1464Y767D02*
X1479Y767D01*
X1564Y767D02*
X1579Y767D01*
X1664Y767D02*
X1679Y767D01*
X1171Y766D02*
X1173Y766D01*
X1271Y766D02*
X1273Y766D01*
X1371Y766D02*
X1373Y766D01*
X1471Y766D02*
X1473Y766D01*
X1571Y766D02*
X1573Y766D01*
X1671Y766D02*
X1673Y766D01*
D02*
G04 End of Copper0*
M02*